STARTFONT 2.1
FONT -FontForge-Pacifico-Book-R-Normal--24-240-72-72-P-141-ISO10646-1
SIZE 24 72 72
FONTBOUNDINGBOX 54 47 -14 -11
COMMENT "Generated by fontforge, http://fontforge.sourceforge.net"
COMMENT "Copyright 2018 The Pacifico Project Authors (https://github.com/googlefonts/Pacifico)"
STARTPROPERTIES 40
FOUNDRY "FontForge"
FAMILY_NAME "Pacifico"
WEIGHT_NAME "Book"
SLANT "R"
SETWIDTH_NAME "Normal"
ADD_STYLE_NAME ""
PIXEL_SIZE 24
POINT_SIZE 240
RESOLUTION_X 72
RESOLUTION_Y 72
SPACING "P"
AVERAGE_WIDTH 141
CHARSET_REGISTRY "ISO10646"
CHARSET_ENCODING "1"
FONTNAME_REGISTRY ""
CHARSET_COLLECTIONS "ISO8859-2 ISO8859-5 ISO8859-9 ISO8859-4 ISO10646-1"
FONT_NAME "Pacifico-Regular"
FACE_NAME "Pacifico Regular"
COPYRIGHT "Copyright 2018 The Pacifico Project Authors (https://github.com/googlefonts/Pacifico)"
FONT_VERSION "3.001"
FONT_ASCENT 19
FONT_DESCENT 5
UNDERLINE_POSITION -2
UNDERLINE_THICKNESS 2
X_HEIGHT 10
CAP_HEIGHT 19
DEFAULT_CHAR 1
RAW_ASCENT 800
RAW_DESCENT 200
NORM_SPACE 6
RELATIVE_WEIGHT 40
RELATIVE_SETWIDTH 50
SUPERSCRIPT_X 0
SUPERSCRIPT_Y 8
SUPERSCRIPT_SIZE 14
SUBSCRIPT_X 0
SUBSCRIPT_Y 1
SUBSCRIPT_SIZE 14
AVG_LOWERCASE_WIDTH 113
AVG_UPPERCASE_WIDTH 195
ENDPROPERTIES
CHARS 1514
STARTCHAR NULL.dup1
ENCODING 0
SWIDTH 0 0
DWIDTH 0 0
BBX 1 1 0 0
BITMAP
00
ENDCHAR
STARTCHAR nonmarkingreturn
ENCODING 13
SWIDTH 265 0
DWIDTH 6 0
BBX 1 1 0 0
BITMAP
00
ENDCHAR
STARTCHAR space
ENCODING 32
SWIDTH 265 0
DWIDTH 6 0
BBX 1 1 0 0
BITMAP
00
ENDCHAR
STARTCHAR exclam
ENCODING 33
SWIDTH 340 0
DWIDTH 8 0
BBX 8 20 1 0
BITMAP
07
0F
0E
0E
1E
1E
1C
1C
1C
3C
38
38
38
30
30
00
70
F0
F0
F0
ENDCHAR
STARTCHAR quotedbl
ENCODING 34
SWIDTH 510 0
DWIDTH 12 0
BBX 9 8 3 12
BITMAP
7380
F380
F780
F780
E780
E700
E700
C700
ENDCHAR
STARTCHAR numbersign
ENCODING 35
SWIDTH 700 0
DWIDTH 17 0
BBX 15 14 1 0
BITMAP
0618
0738
0E38
7FFE
7FFE
3FFC
1C70
1C70
7FF8
FFFC
FFFC
39C0
71C0
31C0
ENDCHAR
STARTCHAR dollar
ENCODING 36
SWIDTH 524 0
DWIDTH 13 0
BBX 11 20 1 -3
BITMAP
0300
0300
0200
1F80
3FC0
77E0
76E0
7640
7E00
3E00
1F80
0FC0
CDC0
EDC0
FDC0
7F80
3F00
0800
0800
1800
ENDCHAR
STARTCHAR percent
ENCODING 37
SWIDTH 896 0
DWIDTH 22 0
BBX 20 18 1 0
BITMAP
1C0300
7E0700
770F00
E71E00
E7FC00
E7FC00
E73800
7E3800
3C7000
00E3C0
00E7E0
01CE70
03CE70
038E70
070E70
070E70
0E07E0
0603C0
ENDCHAR
STARTCHAR ampersand
ENCODING 38
SWIDTH 851 0
DWIDTH 20 0
BBX 19 22 1 -1
BITMAP
01E000
07F800
0FF800
0E3800
1E1800
1C3800
1E3800
0E7800
0EF000
0FE000
0FC000
1F8000
3FC0E0
79E1E0
F0F3C0
F0FF80
E07F00
F03E00
7FFE00
3FFF00
1FC780
000380
ENDCHAR
STARTCHAR quotesingle
ENCODING 39
SWIDTH 290 0
DWIDTH 7 0
BBX 4 8 3 12
BITMAP
70
F0
F0
F0
E0
E0
E0
C0
ENDCHAR
STARTCHAR parenleft
ENCODING 40
SWIDTH 613 0
DWIDTH 15 0
BBX 16 26 2 -4
BITMAP
007C
01FE
07FF
0782
0F00
1E00
1C00
3C00
3800
3800
7800
7000
7000
7000
F000
F000
E000
E000
E000
E000
F000
7070
70E0
7FE0
3F80
0400
ENDCHAR
STARTCHAR parenright
ENCODING 41
SWIDTH 613 0
DWIDTH 15 0
BBX 16 26 -2 -4
BITMAP
00F0
03FC
07FE
0E0E
040E
000E
000F
000F
000F
000E
000E
000E
000E
000E
001E
001C
001C
003C
0038
0078
0070
00F0
E1E0
FFC0
7F80
0C00
ENDCHAR
STARTCHAR asterisk
ENCODING 42
SWIDTH 520 0
DWIDTH 12 0
BBX 10 10 3 12
BITMAP
0C00
6E00
EC00
7DC0
1F80
FE00
DF00
1B80
1980
1800
ENDCHAR
STARTCHAR plus
ENCODING 43
SWIDTH 700 0
DWIDTH 17 0
BBX 13 14 2 0
BITMAP
0300
0380
0380
0300
0300
0700
FFF8
FFF8
7FF0
0700
0700
0600
0E00
0600
ENDCHAR
STARTCHAR comma
ENCODING 44
SWIDTH 257 0
DWIDTH 6 0
BBX 5 8 0 -4
BITMAP
30
78
78
70
70
70
E0
C0
ENDCHAR
STARTCHAR hyphen
ENCODING 45
SWIDTH 403 0
DWIDTH 10 0
BBX 8 3 1 6
BITMAP
7F
FF
7E
ENDCHAR
STARTCHAR period
ENCODING 46
SWIDTH 257 0
DWIDTH 6 0
BBX 4 4 1 0
BITMAP
F0
F0
F0
E0
ENDCHAR
STARTCHAR slash
ENCODING 47
SWIDTH 509 0
DWIDTH 12 0
BBX 13 22 0 0
BITMAP
0018
0038
0038
0078
0070
00E0
00E0
01C0
01C0
0380
0780
0700
0F00
0E00
1E00
1C00
3800
3800
7000
7000
E000
6000
ENDCHAR
STARTCHAR zero
ENCODING 48
SWIDTH 543 0
DWIDTH 13 0
BBX 11 14 1 0
BITMAP
0F80
1FC0
3FE0
70E0
70E0
E0E0
E0E0
E0E0
E0E0
E0E0
F1C0
7FC0
3F80
1E00
ENDCHAR
STARTCHAR one
ENCODING 49
SWIDTH 376 0
DWIDTH 9 0
BBX 7 14 1 0
BITMAP
1E
7E
FE
5E
1C
1C
1C
1C
1C
1C
3C
3C
38
18
ENDCHAR
STARTCHAR two
ENCODING 50
SWIDTH 560 0
DWIDTH 13 0
BBX 11 14 1 0
BITMAP
0F80
3FC0
7FE0
70E0
70E0
70E0
01C0
03C0
0780
0F00
3E00
FFE0
FFE0
FFE0
ENDCHAR
STARTCHAR three
ENCODING 51
SWIDTH 520 0
DWIDTH 12 0
BBX 11 14 1 0
BITMAP
1F80
7FC0
7FE0
E1E0
61C0
03C0
0F80
1F80
07C0
C1C0
C1C0
FFC0
FF80
3F00
ENDCHAR
STARTCHAR four
ENCODING 52
SWIDTH 577 0
DWIDTH 14 0
BBX 12 14 1 0
BITMAP
0E00
1E00
1C00
3CE0
38E0
78E0
71C0
71C0
FFE0
FFF0
7FF0
01C0
01C0
0180
ENDCHAR
STARTCHAR five
ENCODING 53
SWIDTH 518 0
DWIDTH 12 0
BBX 11 14 1 0
BITMAP
7FE0
7FE0
3FC0
3800
7000
7C00
7F80
7FC0
03C0
41C0
E1C0
FFC0
7F80
3F00
ENDCHAR
STARTCHAR six
ENCODING 54
SWIDTH 541 0
DWIDTH 13 0
BBX 11 14 1 0
BITMAP
0F80
1FE0
3FE0
78E0
7060
F200
EF80
FFC0
F1E0
F0E0
F1C0
7FC0
3F80
1F00
ENDCHAR
STARTCHAR seven
ENCODING 55
SWIDTH 497 0
DWIDTH 12 0
BBX 11 14 1 0
BITMAP
7060
FFE0
FFE0
03C0
0780
0F00
0E00
1C00
1C00
3C00
3800
3800
3800
3800
ENDCHAR
STARTCHAR eight
ENCODING 56
SWIDTH 512 0
DWIDTH 12 0
BBX 11 14 1 0
BITMAP
1F80
3FC0
7FE0
70E0
70E0
79C0
3F80
3F80
73C0
E1C0
E1C0
FFC0
7F80
3F00
ENDCHAR
STARTCHAR nine
ENCODING 57
SWIDTH 541 0
DWIDTH 13 0
BBX 11 14 1 0
BITMAP
1F00
3FC0
7FC0
70E0
70E0
71E0
7FE0
7FE0
1EE0
01E0
E1C0
FF80
7F80
3E00
ENDCHAR
STARTCHAR colon
ENCODING 58
SWIDTH 257 0
DWIDTH 6 0
BBX 5 11 1 0
BITMAP
70
78
78
70
00
00
00
F0
F0
F0
E0
ENDCHAR
STARTCHAR semicolon
ENCODING 59
SWIDTH 257 0
DWIDTH 6 0
BBX 6 15 0 -4
BITMAP
38
3C
3C
38
00
00
00
30
78
78
70
70
70
E0
C0
ENDCHAR
STARTCHAR less
ENCODING 60
SWIDTH 700 0
DWIDTH 17 0
BBX 14 11 2 2
BITMAP
0008
007C
03F8
1FE0
7F00
F800
FC00
7F80
0FF0
01F8
0070
ENDCHAR
STARTCHAR equal
ENCODING 61
SWIDTH 700 0
DWIDTH 17 0
BBX 13 8 2 3
BITMAP
7FF8
FFF8
7FF0
0000
0000
7FF0
FFF8
FFF0
ENDCHAR
STARTCHAR greater
ENCODING 62
SWIDTH 700 0
DWIDTH 17 0
BBX 13 11 2 2
BITMAP
4000
7800
7F00
1FC0
03F8
00F8
01F8
0FE0
7F00
F800
C000
ENDCHAR
STARTCHAR question
ENCODING 63
SWIDTH 476 0
DWIDTH 11 0
BBX 10 20 2 0
BITMAP
1F00
7FC0
7FC0
E1C0
E1C0
E1C0
03C0
0780
0F00
1E00
1C00
3800
3000
3000
2000
0000
E000
F000
F000
E000
ENDCHAR
STARTCHAR at
ENCODING 64
SWIDTH 1015 0
DWIDTH 24 0
BBX 23 25 1 -7
BITMAP
000C00
00FFC0
03FFF0
07C0F8
0F003C
1C001C
3C001C
381C0E
707F0E
70FF0E
F1E70E
E1C71C
E1CE1C
E3CE1C
E38E38
E1DFF8
E1FFF0
F0F3C0
700000
780000
3C0030
1F01F0
0FFFF0
07FF80
007000
ENDCHAR
STARTCHAR A
ENCODING 65
SWIDTH 786 0
DWIDTH 19 0
BBX 21 20 1 0
BITMAP
003FC0
01FFE0
03FFE0
0F8000
1F0700
1E0780
3C0700
380700
780F00
700F00
700E00
F00E00
F01E00
F01E00
F03E00
703E18
787E38
7FEFF0
3FCFE0
0F87C0
ENDCHAR
STARTCHAR B
ENCODING 66
SWIDTH 827 0
DWIDTH 20 0
BBX 21 21 0 -1
BITMAP
01FF80
0FFFE0
3FFFF0
7C00F8
E00078
078078
070078
0700F0
0F03E0
0F3FC0
0E3E00
0E1F80
0E03C0
1E01C0
1E01C0
1C03C0
1C07C0
1FFF80
1FFE00
1FF800
1C0000
ENDCHAR
STARTCHAR C
ENCODING 67
SWIDTH 686 0
DWIDTH 16 0
BBX 17 20 2 0
BITMAP
01F000
0FFC00
1FFC00
3C1E00
780E00
780E00
F01E00
F00C00
E00000
E00000
E00000
E00000
E00000
E00000
F00000
F00000
780380
3FFF80
1FFF00
07F800
ENDCHAR
STARTCHAR D
ENCODING 68
SWIDTH 836 0
DWIDTH 20 0
BBX 19 20 1 0
BITMAP
07F800
3FFE00
7FFF00
F00F80
C003C0
0E03C0
0E01C0
1E01E0
1E01E0
1C01E0
1C01C0
1C01C0
3C03C0
3C03C0
380780
380F80
381F00
3FFE00
3FF800
3FC000
ENDCHAR
STARTCHAR E
ENCODING 69
SWIDTH 686 0
DWIDTH 16 0
BBX 18 20 1 0
BITMAP
01F800
07FE00
1FFF00
1E0700
3C0700
3C0700
3C0700
3C0600
1FC000
07E000
3FC000
7C0000
F00000
F00000
E00000
F00000
F001C0
7FFFC0
3FFF80
0FFC00
ENDCHAR
STARTCHAR F
ENCODING 70
SWIDTH 712 0
DWIDTH 17 0
BBX 22 20 0 0
BITMAP
00FFFC
07FFFC
1FFFFC
1C3800
387800
387800
387800
1C7800
007000
03FFC0
03FFC0
01FF00
007000
00F000
00F000
C0E000
E1E000
FFC000
7FC000
1F0000
ENDCHAR
STARTCHAR G
ENCODING 71
SWIDTH 811 0
DWIDTH 19 0
BBX 20 31 2 -11
BITMAP
01F800
07FC00
1FFE00
3E0E00
780F00
780E00
F00E00
F00E00
E00000
E00000
E00000
E03E00
E07F00
E07F00
F00700
F00730
780770
3FFEE0
1FFFC0
07FF00
001E00
003E00
007C00
00FC00
01DC00
019C00
031800
033800
03F000
03F000
01C000
ENDCHAR
STARTCHAR H
ENCODING 72
SWIDTH 873 0
DWIDTH 21 0
BBX 24 21 0 0
BITMAP
00003C
0F007C
3F807E
7F80E6
E381C6
C381C6
8381CC
03838C
038398
0383F8
0383E0
1FFF80
3FFF80
0F0780
070780
0F0780
0F0383
0E0387
0E03FE
0E01FC
0C00F8
ENDCHAR
STARTCHAR I
ENCODING 73
SWIDTH 495 0
DWIDTH 12 0
BBX 13 20 0 0
BITMAP
1FF8
3FF8
0FF0
0380
0380
0380
0780
0780
0700
0700
0700
0700
0F00
0F00
0E00
0E00
0E00
3FC0
FFE0
FFC0
ENDCHAR
STARTCHAR J
ENCODING 74
SWIDTH 743 0
DWIDTH 18 0
BBX 16 22 2 -2
BITMAP
07FE
3FFF
7FFF
F00E
E00E
E01E
E01E
E01C
001C
003C
00FC
03FC
07B8
1E38
1C38
3878
3870
3870
78E0
3FC0
3F80
1F00
ENDCHAR
STARTCHAR K
ENCODING 75
SWIDTH 937 0
DWIDTH 22 0
BBX 25 20 1 0
BITMAP
07F01C00
1FF81C00
3FF83C00
70703800
70F07800
60F07000
70F0F000
70E1E000
20E3C000
01FF8000
03FE0000
03FE0000
01EF0000
01E78000
01C78000
C1C3C180
E3C3C300
FF81FF00
7F80FE00
3E007800
ENDCHAR
STARTCHAR L
ENCODING 76
SWIDTH 673 0
DWIDTH 16 0
BBX 20 20 -1 0
BITMAP
003F00
00FF80
01FFC0
03C1E0
0381E0
0781E0
0781C0
0700C0
070000
070000
070000
070000
070000
070000
0F0010
3F0030
FFE070
FFFFE0
FCFFC0
781F80
ENDCHAR
STARTCHAR M
ENCODING 77
SWIDTH 1232 0
DWIDTH 30 0
BBX 33 20 0 0
BITMAP
0F0783E000
3F1FC7F000
7FBFCFF000
E3B1DC7000
C3E0D87000
83E1F07000
03C1F0F000
07C1E0F000
0781E0F000
0781E0E000
0781C0E000
0703C1E000
0703C1E000
0F03C1C000
0F03C1C000
0F0381C180
0F0381C380
0E0381FF00
0E0380FE00
0E03007800
ENDCHAR
STARTCHAR N
ENCODING 78
SWIDTH 884 0
DWIDTH 21 0
BBX 24 20 0 0
BITMAP
0F07C0
3F8FE0
7F9FF0
E3B8F0
C3B0F0
83E0F0
03C0F0
07C0E0
0780E0
0781E0
0781E0
0701E0
0701C0
0F01C0
0F03C0
0F03C1
0E01C3
0E01FF
0E01FE
0E0078
ENDCHAR
STARTCHAR O
ENCODING 79
SWIDTH 816 0
DWIDTH 20 0
BBX 17 20 2 0
BITMAP
01F000
0FFC00
1FFE00
3C0F00
780780
780780
F00780
F00380
E00380
E00380
E00780
E00780
E00780
E00700
F00F00
F01E00
783C00
7FF800
3FF000
0FC000
ENDCHAR
STARTCHAR P
ENCODING 80
SWIDTH 805 0
DWIDTH 19 0
BBX 19 22 1 -2
BITMAP
00FE00
03FF80
07FFC0
0E03C0
1C01E0
38E1E0
38E1E0
70E1E0
71E1C0
61E3C0
E1C780
E5DF80
EFFE00
E7F800
E3C000
E3C000
E38000
E38000
778000
7F8000
3F0000
1E0000
ENDCHAR
STARTCHAR Q
ENCODING 81
SWIDTH 816 0
DWIDTH 20 0
BBX 19 28 2 -8
BITMAP
01F000
0FFC00
1FFE00
3C0F00
380780
780780
F00780
F00380
E00380
E00380
E00780
E00780
E00780
E00700
E00F00
F01E00
783E00
7FFC00
3FF000
0FC000
01E000
00F000
00F020
007060
0078E0
003FC0
003F80
000400
ENDCHAR
STARTCHAR R
ENCODING 82
SWIDTH 880 0
DWIDTH 21 0
BBX 23 20 1 0
BITMAP
00FE00
03FF80
0FFFC0
1E03C0
1C01C0
38E1C0
71E1C0
71E3C0
61C380
61CF80
E7FE00
E7F800
E3FE00
E3DE00
E38F00
638F02
738786
7F83FE
3F03FC
0F01F0
ENDCHAR
STARTCHAR S
ENCODING 83
SWIDTH 693 0
DWIDTH 17 0
BBX 16 20 1 0
BITMAP
03F0
0FFC
1FFE
3C0F
3807
380F
380E
3C04
3F00
1FE0
07F8
01FC
003C
E01E
E01E
E01E
E01C
FFFC
7FF8
1FC0
ENDCHAR
STARTCHAR T
ENCODING 84
SWIDTH 697 0
DWIDTH 17 0
BBX 21 20 1 0
BITMAP
03FFF0
3FFFF8
7FFFF0
F07000
E0F000
E0F000
E0F000
E0E000
00E000
01E000
01E000
01E000
01C000
01C000
01C000
01C000
03C000
03C000
03C000
018000
ENDCHAR
STARTCHAR U
ENCODING 85
SWIDTH 890 0
DWIDTH 21 0
BBX 24 20 0 0
BITMAP
0F0070
3F8070
7F8070
E3C0F0
C380F0
8380F0
0380E0
0780E0
0781E0
0781E0
0701E0
0703E0
0F03C0
0F07C0
0E07C0
0E0DC1
0F1DE7
0FF9FF
07F1FE
03C078
ENDCHAR
STARTCHAR V
ENCODING 86
SWIDTH 763 0
DWIDTH 18 0
BBX 19 20 3 0
BITMAP
701E00
707E00
F07F00
F0E700
F0E700
F0E700
E0E700
E06E00
E07E00
E03FC0
E01FE0
E01FC0
E03800
F03800
F07000
70F000
79E000
7FC000
3F8000
1E0000
ENDCHAR
STARTCHAR W
ENCODING 87
SWIDTH 1217 0
DWIDTH 29 0
BBX 30 20 3 0
BITMAP
700E0780
700E0FC0
F00E0FE0
F01E1CE0
F01E1CE0
F01E1CE0
E01E1CE0
E03E1DC0
E03E0FC0
E03E07F8
E03E03FC
E07E03F8
E06E0700
E0EE0700
F0EE0E00
F1CE1E00
738F3C00
7F87F800
3F07F000
1E03C000
ENDCHAR
STARTCHAR X
ENCODING 88
SWIDTH 712 0
DWIDTH 17 0
BBX 20 20 0 0
BITMAP
1F01E0
3F83C0
7FC3C0
E3C780
81CF00
01FE00
01FC00
00F800
00F000
00F000
01F000
03F000
07F800
0F7800
1E3800
3C3810
7C3C70
781FE0
F01FC0
E00780
ENDCHAR
STARTCHAR Y
ENCODING 89
SWIDTH 851 0
DWIDTH 20 0
BBX 23 28 0 -8
BITMAP
0F0070
3F8070
7F8070
E3C0F0
C380F0
8380F0
0380E0
0781E0
0781E0
0781E0
0703E0
0703E0
0707E0
070FC0
07FDC2
07F9FE
01E3FE
000FE0
003FC0
00F380
01C380
038380
038380
038700
038F00
03FE00
01FC00
006000
ENDCHAR
STARTCHAR Z
ENCODING 90
SWIDTH 721 0
DWIDTH 17 0
BBX 20 20 0 0
BITMAP
03FF00
1FFFC0
3FFFE0
380780
700780
700F00
380E00
381E00
003C00
007800
007800
00F000
01E000
01E000
03C010
3F8010
7FE030
FFFFF0
FEFFE0
781F80
ENDCHAR
STARTCHAR bracketleft
ENCODING 91
SWIDTH 405 0
DWIDTH 10 0
BBX 10 24 2 -2
BITMAP
1FC0
3FC0
3F80
3800
3800
3800
3800
3800
7800
7800
7000
7000
7000
7000
7000
F000
F000
E000
E000
E000
E000
FC00
FE00
FE00
ENDCHAR
STARTCHAR backslash
ENCODING 92
SWIDTH 509 0
DWIDTH 12 0
BBX 8 22 3 0
BITMAP
C0
E0
E0
E0
E0
70
70
70
78
38
38
3C
1C
1C
1C
1E
0E
0E
0F
07
07
07
ENDCHAR
STARTCHAR bracketright
ENCODING 93
SWIDTH 405 0
DWIDTH 10 0
BBX 10 24 -1 -2
BITMAP
1FC0
1FC0
0FC0
01C0
01C0
03C0
03C0
0380
0380
0380
0380
0380
0780
0780
0700
0700
0700
0700
0700
0700
0F00
7F00
FE00
FE00
ENDCHAR
STARTCHAR asciicircum
ENCODING 94
SWIDTH 700 0
DWIDTH 17 0
BBX 12 13 2 1
BITMAP
0100
0380
0780
0780
0FC0
0DC0
1CC0
38E0
38E0
7060
7070
E070
C030
ENDCHAR
STARTCHAR underscore
ENCODING 95
SWIDTH 354 0
DWIDTH 9 0
BBX 9 3 -1 -3
BITMAP
7F00
FF80
7F80
ENDCHAR
STARTCHAR grave
ENCODING 96
SWIDTH 600 0
DWIDTH 14 0
BBX 5 7 3 13
BITMAP
E0
E0
F0
70
30
18
18
ENDCHAR
STARTCHAR a
ENCODING 97
SWIDTH 470 0
DWIDTH 11 0
BBX 13 11 1 0
BITMAP
0E00
3F80
7F80
7380
F380
E380
E388
E798
FFF8
FFF0
79C0
ENDCHAR
STARTCHAR b
ENCODING 98
SWIDTH 473 0
DWIDTH 11 0
BBX 14 22 1 0
BITMAP
0700
0F80
1F80
1980
3980
3980
3380
7300
7300
7600
7400
7F00
FF80
FB80
F3C0
E3FC
E3F8
E1C0
7180
7F80
3F00
1E00
ENDCHAR
STARTCHAR c
ENCODING 99
SWIDTH 368 0
DWIDTH 9 0
BBX 11 11 1 0
BITMAP
1E00
3F00
7F00
E700
E600
E000
E060
E0E0
FFC0
7F80
3E00
ENDCHAR
STARTCHAR d
ENCODING 100
SWIDTH 515 0
DWIDTH 12 0
BBX 14 22 1 0
BITMAP
0038
0078
00FC
00DC
01DC
01D8
0198
0198
0398
03B0
03B0
0FB0
3FE0
7FE0
73C0
E3C0
E380
E384
E38C
FFFC
FDF8
78E0
ENDCHAR
STARTCHAR e
ENCODING 101
SWIDTH 393 0
DWIDTH 9 0
BBX 12 11 1 0
BITMAP
1E00
3F00
7F00
E300
E700
EE00
FC30
E0E0
FFE0
7FC0
3F00
ENDCHAR
STARTCHAR f
ENCODING 102
SWIDTH 371 0
DWIDTH 9 0
BBX 10 30 1 -8
BITMAP
0380
07C0
0FC0
0CC0
1CC0
1CC0
38C0
3980
3980
3B80
7300
7600
7C00
7C00
7800
F000
EFC0
EFC0
ED80
EC00
EC00
EC00
E400
E400
E400
6400
7400
7C00
7C00
3800
ENDCHAR
STARTCHAR g
ENCODING 103
SWIDTH 479 0
DWIDTH 12 0
BBX 14 22 0 -11
BITMAP
0700
1FC0
3FC0
39C0
79C0
71C0
71CC
73BC
7FF8
7FF0
3FC0
0780
0F80
1F00
3B00
7700
6700
E600
CE00
FC00
FC00
7000
ENDCHAR
STARTCHAR h
ENCODING 104
SWIDTH 502 0
DWIDTH 12 0
BBX 14 22 1 0
BITMAP
0700
0F80
1F80
1980
3980
3980
3380
7300
7700
7600
7C00
7DC0
7BC0
F7C0
EFC0
EDC0
F9C0
FB8C
F39C
F3F8
F3F0
E1E0
ENDCHAR
STARTCHAR i
ENCODING 105
SWIDTH 246 0
DWIDTH 6 0
BBX 8 16 1 0
BITMAP
38
7C
78
38
00
70
70
70
70
E0
E0
E3
E7
FE
7C
78
ENDCHAR
STARTCHAR j
ENCODING 106
SWIDTH 254 0
DWIDTH 6 0
BBX 14 27 -5 -11
BITMAP
00C0
01E0
01E0
01C0
0000
01C0
01C0
01C0
01C0
01C0
0380
038C
03BC
03F8
03E0
03C0
0780
0F00
1F00
3700
6700
E600
CE00
CC00
FC00
F800
7000
ENDCHAR
STARTCHAR k
ENCODING 107
SWIDTH 525 0
DWIDTH 13 0
BBX 15 22 1 0
BITMAP
0700
0F80
1F80
1980
3980
3980
3380
7300
7700
7600
7C00
79C0
73E0
F7E0
ECE0
ECE0
F9C0
FF86
F78E
F3FC
73F8
61F0
ENDCHAR
STARTCHAR l
ENCODING 108
SWIDTH 326 0
DWIDTH 8 0
BBX 10 22 1 0
BITMAP
0700
0F80
1F80
1980
3980
3980
3180
7380
7300
7300
7700
6600
EE00
EC00
FC00
F800
F000
F0C0
71C0
7F80
3F00
1E00
ENDCHAR
STARTCHAR m
ENCODING 109
SWIDTH 744 0
DWIDTH 18 0
BBX 20 11 1 0
BITMAP
318700
77CF00
77DF00
6FBF00
F9E700
FBE600
F3CE30
F3CE70
F3CFE0
E38FC0
618780
ENDCHAR
STARTCHAR n
ENCODING 110
SWIDTH 496 0
DWIDTH 12 0
BBX 14 11 1 0
BITMAP
31C0
73C0
77C0
6FC0
EDC0
F980
F38C
F39C
F3F8
E3F0
61E0
ENDCHAR
STARTCHAR o
ENCODING 111
SWIDTH 451 0
DWIDTH 11 0
BBX 13 11 1 0
BITMAP
1E00
3F00
7F80
E780
E7F8
E3F8
E3C0
E380
FF00
7F00
3C00
ENDCHAR
STARTCHAR p
ENCODING 112
SWIDTH 481 0
DWIDTH 12 0
BBX 18 22 -3 -11
BITMAP
067000
0EF800
07FC00
071C00
071C00
063800
0E38C0
0E79C0
1EFF80
1FFF00
3F9C00
3E0000
6E0000
6E0000
6E0000
EE0000
CE0000
CC0000
CC0000
FC0000
F80000
700000
ENDCHAR
STARTCHAR q
ENCODING 113
SWIDTH 500 0
DWIDTH 12 0
BBX 14 22 1 -10
BITMAP
00C0
0FC0
3FC0
7FC0
7380
F380
E380
E3BC
E77C
FF7C
FF60
7760
0760
0760
0E60
0E60
0E60
0E60
07C0
07C0
07C0
0300
ENDCHAR
STARTCHAR r
ENCODING 114
SWIDTH 455 0
DWIDTH 11 0
BBX 13 11 1 0
BITMAP
31C0
73C0
77C0
6FC0
EDD8
F9F8
F1F0
F0C0
F000
E000
6000
ENDCHAR
STARTCHAR s
ENCODING 115
SWIDTH 427 0
DWIDTH 10 0
BBX 13 12 0 -1
BITMAP
0700
0E00
0E00
1E00
1E00
3F00
3788
7398
E3B8
DFF0
1FE0
0E00
ENDCHAR
STARTCHAR t
ENCODING 116
SWIDTH 393 0
DWIDTH 9 0
BBX 13 21 0 0
BITMAP
01C0
03C0
07C0
0EC0
0CC0
0CC0
1CC0
1D80
1F80
1F00
FFE0
FFE0
7F00
3800
3800
3800
3818
3C30
1FF0
1FE0
0780
ENDCHAR
STARTCHAR u
ENCODING 117
SWIDTH 462 0
DWIDTH 11 0
BBX 13 11 1 0
BITMAP
31C0
7180
7380
7380
E380
E780
E708
EF18
FBF8
7BF0
73C0
ENDCHAR
STARTCHAR v
ENCODING 118
SWIDTH 449 0
DWIDTH 11 0
BBX 13 11 1 0
BITMAP
E380
E3C0
E780
E780
E3F8
E7F8
EE00
EE00
7C00
7800
7000
ENDCHAR
STARTCHAR w
ENCODING 119
SWIDTH 700 0
DWIDTH 17 0
BBX 19 11 1 0
BITMAP
E18600
E38F00
E39E00
E79E00
E78FE0
E79FE0
EDB800
EDB800
7DF000
79E000
70C000
ENDCHAR
STARTCHAR x
ENCODING 120
SWIDTH 529 0
DWIDTH 13 0
BBX 16 11 0 0
BITMAP
1E78
3FF8
3FF8
3398
0380
0380
6783
E787
FFFE
7DFC
78F0
ENDCHAR
STARTCHAR y
ENCODING 121
SWIDTH 479 0
DWIDTH 12 0
BBX 14 22 0 -11
BITMAP
18E0
38C0
39C0
39C0
71C0
73C0
73CC
779C
7FB8
3DF0
3BC0
0380
0F80
1F00
3B00
7700
6700
C600
CE00
FC00
FC00
7000
ENDCHAR
STARTCHAR z
ENCODING 122
SWIDTH 445 0
DWIDTH 11 0
BBX 13 11 1 0
BITMAP
7FC0
FFC0
7FC0
0F00
3C00
7800
7018
F038
7FF0
7FE0
1F80
ENDCHAR
STARTCHAR braceleft
ENCODING 123
SWIDTH 490 0
DWIDTH 12 0
BBX 13 24 1 -2
BITMAP
00F8
03F8
03F0
0780
0700
0700
0700
0700
0700
0F00
3E00
FC00
FC00
1E00
0E00
0E00
1E00
1E00
1C00
1C00
1C00
1F80
0FC0
07C0
ENDCHAR
STARTCHAR bar
ENCODING 124
SWIDTH 326 0
DWIDTH 8 0
BBX 7 29 1 -7
BITMAP
0C
0E
1C
1C
1C
1C
1C
1C
1C
38
38
38
38
38
38
38
70
70
70
70
70
70
F0
E0
E0
E0
E0
E0
E0
ENDCHAR
STARTCHAR braceright
ENCODING 125
SWIDTH 490 0
DWIDTH 12 0
BBX 13 24 -1 -2
BITMAP
1F00
3F80
0F80
03C0
01C0
03C0
03C0
0380
0380
0380
03F0
01F8
03F0
0380
0780
0700
0700
0700
0700
0700
0F00
7E00
FE00
F800
ENDCHAR
STARTCHAR asciitilde
ENCODING 126
SWIDTH 700 0
DWIDTH 17 0
BBX 13 6 2 4
BITMAP
1000
7C18
7F38
EFF8
E3F0
80E0
ENDCHAR
STARTCHAR uni00A0
ENCODING 160
SWIDTH 265 0
DWIDTH 6 0
BBX 1 1 0 0
BITMAP
00
ENDCHAR
STARTCHAR exclamdown
ENCODING 161
SWIDTH 340 0
DWIDTH 8 0
BBX 8 19 -1 -8
BITMAP
07
0F
0F
0F
00
0C
0C
0C
1C
1C
1C
38
38
38
78
78
70
70
F0
ENDCHAR
STARTCHAR cent
ENCODING 162
SWIDTH 466 0
DWIDTH 11 0
BBX 9 17 1 -3
BITMAP
0200
0600
0600
0400
1F80
7F80
7D80
ED80
ED00
EC80
EC80
7B80
7F80
3E00
1800
1800
1800
ENDCHAR
STARTCHAR sterling
ENCODING 163
SWIDTH 525 0
DWIDTH 13 0
BBX 13 14 0 0
BITMAP
03E0
0FF0
0FF0
1C38
1C30
3800
3800
7FC0
7F80
3800
3800
7FF0
FFF0
7FF0
ENDCHAR
STARTCHAR currency
ENCODING 164
SWIDTH 700 0
DWIDTH 17 0
BBX 11 11 3 1
BITMAP
C460
FFE0
7FC0
71C0
60C0
60E0
60C0
71C0
7FC0
FFE0
C460
ENDCHAR
STARTCHAR yen
ENCODING 165
SWIDTH 497 0
DWIDTH 12 0
BBX 12 14 1 0
BITMAP
E070
E0F0
F0E0
71C0
3B80
3F80
1F00
FFC0
FFC0
1C00
FFC0
FFC0
1C00
1C00
ENDCHAR
STARTCHAR brokenbar
ENCODING 166
SWIDTH 326 0
DWIDTH 8 0
BBX 7 29 1 -7
BITMAP
0C
0E
1C
1C
1C
1C
1C
1C
1C
38
38
38
38
00
00
00
00
70
70
70
70
70
70
E0
E0
E0
E0
E0
E0
ENDCHAR
STARTCHAR section
ENCODING 167
SWIDTH 607 0
DWIDTH 15 0
BBX 11 20 2 0
BITMAP
0FC0
1FE0
3FE0
3860
3860
3860
3E00
3F80
77C0
61E0
70E0
78E0
3FC0
1F80
C3C0
C1C0
C1C0
FFC0
FF80
3E00
ENDCHAR
STARTCHAR dieresis
ENCODING 168
SWIDTH 600 0
DWIDTH 14 0
BBX 9 4 3 13
BITMAP
6300
F780
F780
6300
ENDCHAR
STARTCHAR copyright
ENCODING 169
SWIDTH 647 0
DWIDTH 16 0
BBX 14 14 2 8
BITMAP
0780
1FE0
3870
6398
CCD8
CCCC
D80C
D80C
D80C
CC4C
6798
3030
1FE0
0FC0
ENDCHAR
STARTCHAR ordfeminine
ENCODING 170
SWIDTH 393 0
DWIDTH 9 0
BBX 8 9 2 11
BITMAP
1C
3F
77
E7
E7
E7
EF
FF
76
ENDCHAR
STARTCHAR guillemotleft
ENCODING 171
SWIDTH 615 0
DWIDTH 15 0
BBX 13 9 1 1
BITMAP
0C30
3C78
79F0
F3C0
E380
F3C0
78F0
3C78
0C30
ENDCHAR
STARTCHAR logicalnot
ENCODING 172
SWIDTH 700 0
DWIDTH 17 0
BBX 13 7 2 1
BITMAP
7FF0
FFF8
FFF8
0038
0038
0038
0030
ENDCHAR
STARTCHAR uni00AD
ENCODING 173
SWIDTH 403 0
DWIDTH 10 0
BBX 8 3 1 6
BITMAP
7F
FF
7E
ENDCHAR
STARTCHAR registered
ENCODING 174
SWIDTH 647 0
DWIDTH 16 0
BBX 14 14 2 8
BITMAP
0780
1FE0
3870
6F98
C6D8
C4CC
C48C
CF0C
CD0C
CD8C
68D8
3030
1FE0
0FC0
ENDCHAR
STARTCHAR macron
ENCODING 175
SWIDTH 600 0
DWIDTH 14 0
BBX 8 3 3 13
BITMAP
3F
FF
7F
ENDCHAR
STARTCHAR degree
ENCODING 176
SWIDTH 385 0
DWIDTH 9 0
BBX 8 8 2 13
BITMAP
18
7E
7E
E7
E7
FE
7E
3C
ENDCHAR
STARTCHAR plusminus
ENCODING 177
SWIDTH 700 0
DWIDTH 17 0
BBX 12 14 2 0
BITMAP
0100
0380
0380
0300
3FF0
7FF0
3FE0
0700
0700
0700
0000
7FE0
FFE0
FFE0
ENDCHAR
STARTCHAR uni00B2
ENCODING 178
SWIDTH 450 0
DWIDTH 11 0
BBX 10 12 1 8
BITMAP
1F00
3F80
7380
71C0
6180
0380
0780
0F00
1E00
7800
FFC0
7FC0
ENDCHAR
STARTCHAR uni00B3
ENCODING 179
SWIDTH 450 0
DWIDTH 11 0
BBX 9 12 2 8
BITMAP
3E00
7F00
E380
E380
0700
1E00
1E00
0700
C380
C780
FF00
7E00
ENDCHAR
STARTCHAR acute
ENCODING 180
SWIDTH 600 0
DWIDTH 14 0
BBX 6 7 6 13
BITMAP
18
1C
38
38
70
60
C0
ENDCHAR
STARTCHAR uni00B5
ENCODING 181
SWIDTH 462 0
DWIDTH 11 0
BBX 13 17 1 -6
BITMAP
31C0
7180
7380
7380
E380
E780
E708
EF18
FBF8
FBF0
F3C0
E000
E000
E000
E000
E000
C000
ENDCHAR
STARTCHAR paragraph
ENCODING 182
SWIDTH 739 0
DWIDTH 18 0
BBX 15 20 2 0
BITMAP
0FF8
3FFC
7FFE
7F9E
FF9E
FF9C
7F9C
7F9C
1F1C
073C
073C
0738
0F38
0F38
0E38
0E78
0E78
0E78
0E70
0E70
ENDCHAR
STARTCHAR periodcentered
ENCODING 183
SWIDTH 257 0
DWIDTH 6 0
BBX 5 4 1 4
BITMAP
70
F8
F8
70
ENDCHAR
STARTCHAR cedilla
ENCODING 184
SWIDTH 600 0
DWIDTH 14 0
BBX 7 7 1 -6
BITMAP
3C
3E
06
06
7E
FE
78
ENDCHAR
STARTCHAR uni00B9
ENCODING 185
SWIDTH 450 0
DWIDTH 11 0
BBX 7 12 2 8
BITMAP
0E
7E
FE
0E
0E
0E
1C
1C
1C
1C
1C
1C
ENDCHAR
STARTCHAR ordmasculine
ENCODING 186
SWIDTH 408 0
DWIDTH 10 0
BBX 8 9 2 11
BITMAP
3C
7E
67
E3
E3
E7
E7
7E
3C
ENDCHAR
STARTCHAR guillemotright
ENCODING 187
SWIDTH 615 0
DWIDTH 15 0
BBX 13 9 1 1
BITMAP
6180
F1C0
79F0
3C78
0E38
1E78
7DF0
F3C0
E180
ENDCHAR
STARTCHAR onequarter
ENCODING 188
SWIDTH 955 0
DWIDTH 23 0
BBX 20 21 2 -1
BITMAP
0E0000
7E0000
FE0000
0E0600
0E0E00
0E1C00
1C1C00
1C3800
1C7800
1C7380
1CE380
1CE720
01C660
03CEE0
038EE0
071CE0
071FF0
061FF0
0000C0
0000C0
0000C0
ENDCHAR
STARTCHAR onehalf
ENCODING 189
SWIDTH 1024 0
DWIDTH 25 0
BBX 22 21 2 -1
BITMAP
0E0000
7E0000
FE0000
0E0600
0E0E00
0E1C00
1C1C00
1C3800
1C7800
1C71F0
1CE3F8
1CE738
01C638
03C638
038038
070070
0700E0
0601C0
000780
000FFC
000FF8
ENDCHAR
STARTCHAR threequarters
ENCODING 190
SWIDTH 1035 0
DWIDTH 25 0
BBX 22 21 2 -1
BITMAP
3E0000
7F0000
E38000
E38300
070380
1E0700
1E0700
070E00
C39C00
C79CE0
FF38C0
7E39C8
007198
00E3B8
00E338
01C738
01C7FC
0187FC
000030
000030
000030
ENDCHAR
STARTCHAR questiondown
ENCODING 191
SWIDTH 476 0
DWIDTH 11 0
BBX 11 20 -1 -9
BITMAP
01C0
01E0
03E0
01C0
0000
0180
0380
0380
0700
0F00
1E00
3C00
7800
F080
F1C0
E1C0
F1C0
FFC0
7F80
0C00
ENDCHAR
STARTCHAR Agrave
ENCODING 192
SWIDTH 786 0
DWIDTH 19 0
BBX 21 28 1 0
BITMAP
008000
01C000
01E000
00F800
003C00
000C00
000000
000000
003FC0
01FFE0
03FFE0
0F8000
1F0700
1E0780
3C0700
380700
780F00
700F00
700E00
F00E00
F01E00
F01E00
F03E00
703E18
787E38
7FEFF0
3FCFE0
0F87C0
ENDCHAR
STARTCHAR Aacute
ENCODING 193
SWIDTH 786 0
DWIDTH 19 0
BBX 21 28 1 0
BITMAP
000020
0000F0
0001F0
0003E0
000780
000E00
000000
000000
003FC0
01FFE0
03FFE0
0F8000
1F0700
1E0780
3C0700
380700
780F00
700F00
700E00
F00E00
F01E00
F01E00
F03E00
703E18
787E38
7FEFF0
3FCFE0
0F87C0
ENDCHAR
STARTCHAR Acircumflex
ENCODING 194
SWIDTH 786 0
DWIDTH 19 0
BBX 21 29 1 0
BITMAP
000200
000F00
001F00
001F80
003B80
0071C0
007180
000000
000000
003FC0
01FFE0
03FFE0
0F8000
1F0700
1E0780
3C0700
380700
780F00
700F00
700E00
F00E00
F01E00
F01E00
F03E00
703E18
787E38
7FEFF0
3FCFE0
0F87C0
ENDCHAR
STARTCHAR Atilde
ENCODING 195
SWIDTH 786 0
DWIDTH 19 0
BBX 21 27 1 0
BITMAP
001040
003CE0
007FE0
00E7C0
004380
000000
000000
003FC0
01FFE0
03FFE0
0F8000
1F0700
1E0780
3C0700
380700
780F00
700F00
700E00
F00E00
F01E00
F01E00
F03E00
703E18
787E38
7FEFF0
3FCFE0
0F87C0
ENDCHAR
STARTCHAR Adieresis
ENCODING 196
SWIDTH 786 0
DWIDTH 19 0
BBX 21 26 1 0
BITMAP
0039C0
007BC0
007BC0
003180
000000
000000
003FC0
01FFE0
03FFE0
0F8000
1F0700
1E0780
3C0700
380700
780F00
700F00
700E00
F00E00
F01E00
F01E00
F03E00
703E18
787E38
7FEFF0
3FCFE0
0F87C0
ENDCHAR
STARTCHAR Aring
ENCODING 197
SWIDTH 786 0
DWIDTH 19 0
BBX 21 29 1 0
BITMAP
000F00
001F80
001F80
001980
001F80
001F00
000E00
000000
000000
003FC0
01FFE0
03FFE0
0F8000
1F0700
1E0780
3C0700
380700
780F00
700F00
700E00
F00E00
F01E00
F01E00
F03E00
703E18
787E38
7FEFF0
3FCFE0
0F87C0
ENDCHAR
STARTCHAR AE
ENCODING 198
SWIDTH 1015 0
DWIDTH 24 0
BBX 26 20 1 0
BITMAP
0078FF80
01F9FF80
07FBFE00
0F838000
1F038000
1E078000
3C078000
78070000
78070000
700FFE00
700FFE00
F00FFC00
F01E0000
F01E0000
F03E0000
703F0000
787F00C0
7FE7FFC0
3FC3FF80
0F80FE00
ENDCHAR
STARTCHAR Ccedilla
ENCODING 199
SWIDTH 686 0
DWIDTH 16 0
BBX 17 26 2 -6
BITMAP
01F000
0FFC00
1FFC00
3C1E00
780E00
780E00
F01E00
F00C00
E00000
E00000
E00000
E00000
E00000
E00000
F00000
F00000
780380
3FFF80
1FFF00
0FF800
0FC000
01C000
01C000
0FC000
1F8000
1F0000
ENDCHAR
STARTCHAR Egrave
ENCODING 200
SWIDTH 686 0
DWIDTH 16 0
BBX 18 28 1 0
BITMAP
040000
0E0000
0F0000
07C000
01E000
006000
000000
000000
01F800
07FE00
1FFF00
1E0700
3C0700
3C0700
3C0700
3C0600
1FC000
07E000
3FC000
7C0000
F00000
F00000
E00000
F00000
F001C0
7FFFC0
3FFF80
0FFC00
ENDCHAR
STARTCHAR Eacute
ENCODING 201
SWIDTH 686 0
DWIDTH 16 0
BBX 18 28 1 0
BITMAP
000100
000780
000F80
001F00
003C00
007000
000000
000000
01F800
07FE00
1FFF00
1E0700
3C0700
3C0700
3C0700
3C0600
1FC000
07E000
3FC000
7C0000
F00000
F00000
E00000
F00000
F001C0
7FFFC0
3FFF80
0FFC00
ENDCHAR
STARTCHAR Ecircumflex
ENCODING 202
SWIDTH 686 0
DWIDTH 16 0
BBX 18 29 1 0
BITMAP
001000
007800
00F800
00DC00
01DC00
038E00
038C00
000000
000000
01F800
07FE00
1FFF00
1E0700
3C0700
3C0700
3C0700
3C0600
1FC000
07E000
3FC000
7C0000
F00000
F00000
E00000
F00000
F001C0
7FFFC0
3FFF80
0FFC00
ENDCHAR
STARTCHAR Edieresis
ENCODING 203
SWIDTH 686 0
DWIDTH 16 0
BBX 18 26 1 0
BITMAP
01CE00
03DE00
03DE00
018C00
000000
000000
01F800
07FE00
1FFF00
1E0700
3C0700
3C0700
3C0700
3C0600
1FC000
07E000
3FC000
7C0000
F00000
F00000
E00000
F00000
F001C0
7FFFC0
3FFF80
0FFC00
ENDCHAR
STARTCHAR Igrave
ENCODING 204
SWIDTH 495 0
DWIDTH 12 0
BBX 13 28 0 0
BITMAP
1000
3800
3C00
1E00
0780
0180
0000
0000
1FF8
3FF8
0FF0
0380
0380
0380
0780
0780
0700
0700
0700
0700
0F00
0F00
0E00
0E00
0E00
3FC0
FFE0
FFC0
ENDCHAR
STARTCHAR Iacute
ENCODING 205
SWIDTH 495 0
DWIDTH 12 0
BBX 15 28 0 0
BITMAP
0004
001E
003C
007C
00F0
01C0
0000
0000
1FF8
3FF8
0FF0
0380
0380
0380
0780
0780
0700
0700
0700
0700
0F00
0F00
0E00
0E00
0E00
3FC0
FFE0
FFC0
ENDCHAR
STARTCHAR Icircumflex
ENCODING 206
SWIDTH 495 0
DWIDTH 12 0
BBX 13 29 0 0
BITMAP
0040
01E0
03E0
0370
0770
0E30
0E30
0000
0000
1FF8
3FF8
0FF0
0380
0380
0380
0780
0780
0700
0700
0700
0700
0F00
0F00
0E00
0E00
0E00
3FC0
FFE0
FFC0
ENDCHAR
STARTCHAR Idieresis
ENCODING 207
SWIDTH 495 0
DWIDTH 12 0
BBX 13 26 0 0
BITMAP
0630
0F78
0F78
0630
0000
0000
1FF8
3FF8
0FF0
0380
0380
0380
0780
0780
0700
0700
0700
0700
0F00
0F00
0E00
0E00
0E00
3FC0
FFE0
FFC0
ENDCHAR
STARTCHAR Eth
ENCODING 208
SWIDTH 821 0
DWIDTH 20 0
BBX 19 20 0 0
BITMAP
01FC00
03FF00
07FF80
0707C0
0701C0
0701E0
0F00E0
0E00E0
7FF0E0
FFF0E0
7FE0E0
1C01E0
1C01E0
1C01C0
1C03C0
3C0780
3C0F00
3FFE00
3FFC00
1FE000
ENDCHAR
STARTCHAR Ntilde
ENCODING 209
SWIDTH 884 0
DWIDTH 21 0
BBX 24 27 0 0
BITMAP
001040
003CE0
007FE0
00E7C0
004380
000000
000000
0F07C0
3F8FE0
7F9FF0
E3B8F0
C3B0F0
83E0F0
03C0F0
07C0E0
0780E0
0781E0
0781E0
0701E0
0701C0
0F01C0
0F03C0
0F03C1
0E01C3
0E01FF
0E01FE
0E0078
ENDCHAR
STARTCHAR Ograve
ENCODING 210
SWIDTH 816 0
DWIDTH 20 0
BBX 17 28 2 0
BITMAP
080000
1E0000
1F0000
0F8000
03C000
00C000
000000
000000
01F000
0FFC00
1FFE00
3C0F00
780780
780780
F00780
F00380
E00380
E00380
E00780
E00780
E00780
E00700
F00F00
F01E00
783C00
7FF800
3FF000
0FC000
ENDCHAR
STARTCHAR Oacute
ENCODING 211
SWIDTH 816 0
DWIDTH 20 0
BBX 17 28 2 0
BITMAP
000200
000700
001F00
003E00
007800
006000
000000
000000
01F000
0FFC00
1FFE00
3C0F00
780780
780780
F00780
F00380
E00380
E00380
E00780
E00780
E00780
E00700
F00F00
F01E00
783C00
7FF800
3FF000
0FC000
ENDCHAR
STARTCHAR Ocircumflex
ENCODING 212
SWIDTH 816 0
DWIDTH 20 0
BBX 17 29 2 0
BITMAP
002000
00F000
00F800
01D800
039C00
039C00
031C00
000000
000000
01F000
0FFC00
1FFE00
3C0F00
780780
780780
F00780
F00380
E00380
E00380
E00780
E00780
E00780
E00700
F00F00
F01E00
783C00
7FF800
3FF000
0FC000
ENDCHAR
STARTCHAR Otilde
ENCODING 213
SWIDTH 816 0
DWIDTH 20 0
BBX 17 27 2 0
BITMAP
010200
03C600
07FE00
067C00
041C00
000000
000000
01F000
0FFC00
1FFE00
3C0F00
780780
780780
F00780
F00380
E00380
E00380
E00780
E00780
E00780
E00700
F00F00
F01E00
783C00
7FF800
3FF000
0FC000
ENDCHAR
STARTCHAR Odieresis
ENCODING 214
SWIDTH 816 0
DWIDTH 20 0
BBX 17 26 2 0
BITMAP
039C00
039C00
039C00
039C00
000000
000000
01F000
0FFC00
1FFE00
3C0F00
780780
780780
F00780
F00380
E00380
E00380
E00780
E00780
E00780
E00700
F00F00
F01E00
783C00
7FF800
3FF000
0FC000
ENDCHAR
STARTCHAR multiply
ENCODING 215
SWIDTH 700 0
DWIDTH 17 0
BBX 12 11 3 1
BITMAP
2020
7070
71E0
3BC0
3F80
1F00
1F00
3F80
73C0
E1E0
C0C0
ENDCHAR
STARTCHAR Oslash
ENCODING 216
SWIDTH 816 0
DWIDTH 20 0
BBX 17 24 2 -2
BITMAP
003800
003800
01F800
0FFC00
1FFE00
3C6F00
38E780
70E780
F0E780
F0C380
E1C380
E1C380
E1C780
E18780
E38780
E38700
E30F00
F30E00
7F3C00
7FF800
3FF000
0FC000
0E0000
0E0000
ENDCHAR
STARTCHAR Ugrave
ENCODING 217
SWIDTH 890 0
DWIDTH 21 0
BBX 24 28 0 0
BITMAP
010000
03C000
01E000
01F000
007800
001C00
000000
000000
0F0070
3F8070
7F8070
E3C0F0
C380F0
8380F0
0380E0
0780E0
0781E0
0781E0
0701E0
0703E0
0F03C0
0F07C0
0E07C0
0E0DC1
0F1DE7
0FF9FF
07F1FE
03C078
ENDCHAR
STARTCHAR Uacute
ENCODING 218
SWIDTH 890 0
DWIDTH 21 0
BBX 24 28 0 0
BITMAP
000040
0000E0
0001E0
0003C0
000F00
000C00
000000
000000
0F0070
3F8070
7F8070
E3C0F0
C380F0
8380F0
0380E0
0780E0
0781E0
0781E0
0701E0
0703E0
0F03C0
0F07C0
0E07C0
0E0DC1
0F1DE7
0FF9FF
07F1FE
03C078
ENDCHAR
STARTCHAR Ucircumflex
ENCODING 219
SWIDTH 890 0
DWIDTH 21 0
BBX 24 29 0 0
BITMAP
000400
000F00
001F00
003B00
003B80
007380
006180
000000
000000
0F0070
3F8070
7F8070
E3C0F0
C380F0
8380F0
0380E0
0780E0
0781E0
0781E0
0701E0
0703E0
0F03C0
0F07C0
0E07C0
0E0DC1
0F1DE7
0FF9FF
07F1FE
03C078
ENDCHAR
STARTCHAR Udieresis
ENCODING 220
SWIDTH 890 0
DWIDTH 21 0
BBX 24 26 0 0
BITMAP
003180
007BC0
007380
007380
000000
000000
0F0070
3F8070
7F8070
E3C0F0
C380F0
8380F0
0380E0
0780E0
0781E0
0781E0
0701E0
0703E0
0F03C0
0F07C0
0E07C0
0E0DC1
0F1DE7
0FF9FF
07F1FE
03C078
ENDCHAR
STARTCHAR Yacute
ENCODING 221
SWIDTH 851 0
DWIDTH 20 0
BBX 23 36 0 -8
BITMAP
000020
0000F0
0001E0
0003E0
000780
000E00
000000
000000
0F0070
3F8070
7F8070
E3C0F0
C380F0
8380F0
0380E0
0781E0
0781E0
0781E0
0703E0
0703E0
0707E0
070FC0
07FDC2
07F9FE
01E3FE
000FE0
003FC0
00F380
01C380
038380
038380
038700
038F00
03FE00
01FC00
006000
ENDCHAR
STARTCHAR Thorn
ENCODING 222
SWIDTH 776 0
DWIDTH 19 0
BBX 18 25 1 -3
BITMAP
00E000
00E000
00E000
00E000
01E000
01FC00
07FF00
0FFF80
1DC780
39C3C0
71C3C0
73C3C0
63C380
E38780
E38F00
EFFE00
EFFC00
E78000
E78000
E70000
E70000
670000
7F0000
3E0000
1C0000
ENDCHAR
STARTCHAR germandbls
ENCODING 223
SWIDTH 596 0
DWIDTH 14 0
BBX 16 24 1 -5
BITMAP
03E0
0FF0
1FF8
3C38
3838
7070
70F0
71E0
7380
6780
E780
E3C0
E3FF
E7FF
EE39
EE38
EFF8
EFF0
E3E0
E000
E000
E000
E000
E000
ENDCHAR
STARTCHAR agrave
ENCODING 224
SWIDTH 470 0
DWIDTH 11 0
BBX 13 20 1 0
BITMAP
3800
3800
3C00
1C00
0E00
0600
0200
0000
0000
0E00
3F80
7F80
7380
F380
E380
E388
E798
FFF8
FFF0
79C0
ENDCHAR
STARTCHAR aacute
ENCODING 225
SWIDTH 470 0
DWIDTH 11 0
BBX 13 20 1 0
BITMAP
00C0
00E0
01C0
01C0
0380
0300
0200
0000
0000
0E00
3F80
7F80
7380
F380
E380
E388
E798
FFF8
FFF0
79C0
ENDCHAR
STARTCHAR acircumflex
ENCODING 226
SWIDTH 470 0
DWIDTH 11 0
BBX 13 21 1 0
BITMAP
0100
0380
0780
0FC0
0DC0
1CC0
18C0
38C0
0000
0000
0E00
3F80
7F80
7380
F380
E380
E388
E798
FFF8
FFF0
79C0
ENDCHAR
STARTCHAR atilde
ENCODING 227
SWIDTH 470 0
DWIDTH 11 0
BBX 13 18 1 0
BITMAP
0820
1E70
3FF0
33E0
21C0
0000
0000
0E00
3F80
7F80
7380
F380
E380
E388
E798
FFF8
FFF0
79C0
ENDCHAR
STARTCHAR adieresis
ENCODING 228
SWIDTH 470 0
DWIDTH 11 0
BBX 13 17 1 0
BITMAP
1CE0
3DE0
3DE0
18C0
0000
0000
0E00
3F80
7F80
7380
F380
E380
E388
E798
FFF8
FFF0
79C0
ENDCHAR
STARTCHAR aring
ENCODING 229
SWIDTH 470 0
DWIDTH 11 0
BBX 13 20 1 0
BITMAP
0780
0FC0
0FC0
0CC0
0FC0
0F80
0700
0000
0000
0E00
3F80
7F80
7380
F380
E380
E388
E798
FFF8
FFF0
79C0
ENDCHAR
STARTCHAR ae
ENCODING 230
SWIDTH 653 0
DWIDTH 16 0
BBX 18 11 1 0
BITMAP
0F7800
3FFC00
7FFE00
71CC00
E38C00
E3BC00
E3F0C0
E781C0
FFFF80
FDFF00
787C00
ENDCHAR
STARTCHAR ccedilla
ENCODING 231
SWIDTH 368 0
DWIDTH 9 0
BBX 11 18 1 -7
BITMAP
1E00
3F00
7F00
F700
E700
E000
E060
E060
F1C0
7F80
3F00
3E00
0600
0600
0E00
7E00
FC00
2000
ENDCHAR
STARTCHAR egrave
ENCODING 232
SWIDTH 393 0
DWIDTH 9 0
BBX 12 20 1 0
BITMAP
7000
7000
7800
3800
1C00
0C00
0400
0000
0000
1E00
3F00
7F00
E300
E700
EE00
FC30
E0E0
FFE0
7FC0
3F00
ENDCHAR
STARTCHAR eacute
ENCODING 233
SWIDTH 393 0
DWIDTH 9 0
BBX 12 20 1 0
BITMAP
0180
01C0
0380
0380
0700
0600
0400
0000
0000
1E00
3F00
7F00
E300
E700
EE00
FC30
E0E0
FFE0
7FC0
3F00
ENDCHAR
STARTCHAR ecircumflex
ENCODING 234
SWIDTH 393 0
DWIDTH 9 0
BBX 12 21 1 0
BITMAP
0200
0700
0F00
1F80
1B80
3980
7180
7180
0000
0000
1E00
3F00
7F00
E300
E700
EE00
FC30
E0E0
FFE0
7FC0
3F00
ENDCHAR
STARTCHAR edieresis
ENCODING 235
SWIDTH 393 0
DWIDTH 9 0
BBX 12 17 1 0
BITMAP
39C0
7BC0
7BC0
3180
0000
0000
1E00
3F00
7F00
E300
E700
EE00
FC30
E0E0
FFE0
7FC0
3F00
ENDCHAR
STARTCHAR igrave
ENCODING 236
SWIDTH 246 0
DWIDTH 6 0
BBX 9 20 0 0
BITMAP
C000
E000
E000
7000
3000
3800
1800
0000
0000
3800
3800
3800
3800
7000
7000
7180
7380
7F00
3E00
3C00
ENDCHAR
STARTCHAR iacute
ENCODING 237
SWIDTH 246 0
DWIDTH 6 0
BBX 8 20 1 0
BITMAP
06
0E
0E
1C
1C
38
30
00
00
70
70
70
70
E0
E0
E3
E7
FE
7C
78
ENDCHAR
STARTCHAR icircumflex
ENCODING 238
SWIDTH 246 0
DWIDTH 6 0
BBX 9 21 0 0
BITMAP
0400
1E00
1E00
3600
7700
6700
E700
C300
0000
0000
3800
3800
3800
3800
7000
7000
7180
7380
7F00
3E00
3C00
ENDCHAR
STARTCHAR idieresis
ENCODING 239
SWIDTH 246 0
DWIDTH 6 0
BBX 9 17 0 0
BITMAP
6300
F780
E700
E700
0000
0000
3800
3800
3800
3800
7000
7000
7180
7380
7F00
3E00
3C00
ENDCHAR
STARTCHAR eth
ENCODING 240
SWIDTH 451 0
DWIDTH 11 0
BBX 11 22 1 0
BITMAP
1800
3C20
0EE0
0FE0
07C0
1F00
3F80
3B80
0380
01C0
01C0
1FC0
3FC0
7FC0
E1C0
E1C0
E180
E380
E380
FF00
7F00
3C00
ENDCHAR
STARTCHAR ntilde
ENCODING 241
SWIDTH 496 0
DWIDTH 12 0
BBX 14 18 1 0
BITMAP
0810
1E30
3FF0
33E0
20C0
0000
0000
31C0
73C0
77C0
6FC0
EDC0
F980
F38C
F39C
F3F8
E3F0
61E0
ENDCHAR
STARTCHAR ograve
ENCODING 242
SWIDTH 451 0
DWIDTH 11 0
BBX 13 20 1 0
BITMAP
7000
7000
7800
3800
1C00
0C00
0C00
0000
0000
1E00
3F00
7F80
E780
E7F8
E3F8
E3C0
E380
FF00
7F00
3C00
ENDCHAR
STARTCHAR oacute
ENCODING 243
SWIDTH 451 0
DWIDTH 11 0
BBX 13 20 1 0
BITMAP
0180
01C0
0380
0380
0700
0600
0C00
0000
0000
1E00
3F00
7F80
E780
E7F8
E3F8
E3C0
E380
FF00
7F00
3C00
ENDCHAR
STARTCHAR ocircumflex
ENCODING 244
SWIDTH 451 0
DWIDTH 11 0
BBX 13 21 1 0
BITMAP
0200
0F00
0F00
1F80
1B80
3B80
7180
7180
0000
0000
1E00
3F00
7F80
E780
E7F8
E3F8
E3C0
E380
FF00
7F00
3C00
ENDCHAR
STARTCHAR otilde
ENCODING 245
SWIDTH 451 0
DWIDTH 11 0
BBX 13 18 1 0
BITMAP
1040
3CE0
7FE0
E7C0
4380
0000
0000
1E00
3F00
7F80
E780
E7F8
E3F8
E3C0
E380
FF00
7F00
3C00
ENDCHAR
STARTCHAR odieresis
ENCODING 246
SWIDTH 451 0
DWIDTH 11 0
BBX 13 17 1 0
BITMAP
3180
7BC0
7BC0
3180
0000
0000
1E00
3F00
7F80
E780
E7F8
E3F8
E3C0
E380
FF00
7F00
3C00
ENDCHAR
STARTCHAR divide
ENCODING 247
SWIDTH 700 0
DWIDTH 17 0
BBX 13 13 2 0
BITMAP
0300
0780
0780
0300
0000
FFF8
FFF8
7FF0
0000
0600
0F00
0F00
0E00
ENDCHAR
STARTCHAR oslash
ENCODING 248
SWIDTH 459 0
DWIDTH 11 0
BBX 13 17 1 -3
BITMAP
0600
0600
0600
1E00
7F80
7F80
ED80
EDF8
EDF8
E9E0
EB80
FF80
7F00
3E00
1800
1000
3000
ENDCHAR
STARTCHAR ugrave
ENCODING 249
SWIDTH 462 0
DWIDTH 11 0
BBX 13 20 1 0
BITMAP
3000
3800
3800
1C00
0C00
0E00
0600
0000
0000
31C0
7180
7380
7380
E380
E780
E708
EF18
FBF8
7BF0
73C0
ENDCHAR
STARTCHAR uacute
ENCODING 250
SWIDTH 462 0
DWIDTH 11 0
BBX 13 20 1 0
BITMAP
00C0
01E0
01C0
0380
0380
0700
0600
0000
0000
31C0
7180
7380
7380
E380
E780
E708
EF18
FBF8
7BF0
73C0
ENDCHAR
STARTCHAR ucircumflex
ENCODING 251
SWIDTH 462 0
DWIDTH 11 0
BBX 13 21 1 0
BITMAP
0100
0780
0780
0D80
1DC0
19C0
39C0
30C0
0000
0000
31C0
7180
7380
7380
E380
E780
E708
EF18
FBF8
7BF0
73C0
ENDCHAR
STARTCHAR udieresis
ENCODING 252
SWIDTH 462 0
DWIDTH 11 0
BBX 13 17 1 0
BITMAP
18C0
3DE0
3DE0
39C0
0000
0000
31C0
7180
7380
7380
E380
E780
E708
EF18
FBF8
7BF0
73C0
ENDCHAR
STARTCHAR yacute
ENCODING 253
SWIDTH 479 0
DWIDTH 12 0
BBX 14 31 0 -11
BITMAP
0060
00F0
00E0
01C0
01C0
0380
0300
0000
0000
18E0
38C0
39C0
39C0
71C0
73C0
73CC
779C
7FB8
3DF0
3BC0
0380
0F80
1F00
3B00
7700
6700
C600
CE00
FC00
FC00
7000
ENDCHAR
STARTCHAR thorn
ENCODING 254
SWIDTH 508 0
DWIDTH 12 0
BBX 14 27 1 -8
BITMAP
1000
3800
3800
3800
3800
7000
7000
7000
7380
77C0
6FC0
F9C0
F9C0
F1C4
F1CC
E39C
EFF8
FFF0
FDE0
E000
E000
E000
E000
E000
E000
E000
C000
ENDCHAR
STARTCHAR ydieresis
ENCODING 255
SWIDTH 479 0
DWIDTH 12 0
BBX 14 28 0 -11
BITMAP
0C60
1EF0
1EF0
1CE0
0000
0000
18E0
38C0
39C0
39C0
71C0
73C0
73CC
779C
7FB8
3DF0
3BC0
0380
0F80
1F00
3B00
7700
6700
C600
CE00
FC00
FC00
7000
ENDCHAR
STARTCHAR Amacron
ENCODING 256
SWIDTH 786 0
DWIDTH 19 0
BBX 21 25 1 0
BITMAP
003F00
003F80
003F80
000000
000000
003FC0
01FFE0
03FFE0
0F8000
1F0700
1E0780
3C0700
380700
780F00
700F00
700E00
F00E00
F01E00
F01E00
F03E00
703E18
787E38
7FEFF0
3FCFE0
0F87C0
ENDCHAR
STARTCHAR amacron
ENCODING 257
SWIDTH 470 0
DWIDTH 11 0
BBX 13 16 1 0
BITMAP
1F80
1FC0
1FC0
0000
0000
0E00
3F80
7F80
7380
F380
E380
E388
E798
FFF8
FFF0
79C0
ENDCHAR
STARTCHAR Abreve
ENCODING 258
SWIDTH 786 0
DWIDTH 19 0
BBX 21 27 1 0
BITMAP
002040
0070E0
007FC0
003FC0
001F00
000000
000000
003FC0
01FFE0
03FFE0
0F8000
1F0700
1E0780
3C0700
380700
780F00
700F00
700E00
F00E00
F01E00
F01E00
F03E00
703E18
787E38
7FEFF0
3FCFE0
0F87C0
ENDCHAR
STARTCHAR abreve
ENCODING 259
SWIDTH 470 0
DWIDTH 11 0
BBX 13 19 1 0
BITMAP
1020
3070
3870
3FE0
1FC0
0F80
0000
0000
0E00
3F80
7F80
7380
F380
E380
E388
E798
FFF8
FFF0
79C0
ENDCHAR
STARTCHAR Aogonek
ENCODING 260
SWIDTH 786 0
DWIDTH 19 0
BBX 21 26 1 -6
BITMAP
003FC0
01FFE0
03FFE0
0F8000
1F0700
1C0780
3C0700
380700
780F00
700F00
700E00
F00E00
F01E00
F01E00
F03E00
703E18
787E38
7FEFF0
3FCFE0
0F87C0
000700
000600
000E00
000720
0007E0
0003C0
ENDCHAR
STARTCHAR aogonek
ENCODING 261
SWIDTH 470 0
DWIDTH 11 0
BBX 13 17 1 -6
BITMAP
0E00
3F80
7F80
7380
F380
E380
E388
E798
FFF8
FFF0
79E0
0380
0700
0600
0700
07E0
03E0
ENDCHAR
STARTCHAR Cacute
ENCODING 262
SWIDTH 686 0
DWIDTH 16 0
BBX 17 28 2 0
BITMAP
000200
000700
001F00
003E00
007800
006000
000000
000000
01F000
0FFC00
1FFC00
3C1E00
780E00
780E00
F01E00
F00C00
E00000
E00000
E00000
E00000
E00000
E00000
F00000
F00000
780380
3FFF80
1FFF00
07F800
ENDCHAR
STARTCHAR cacute
ENCODING 263
SWIDTH 368 0
DWIDTH 9 0
BBX 11 20 1 0
BITMAP
0180
01C0
0380
0380
0700
0600
0C00
0000
0000
1E00
3F00
7F00
E700
E600
E000
E060
E0E0
FFC0
7F80
3E00
ENDCHAR
STARTCHAR Ccircumflex
ENCODING 264
SWIDTH 686 0
DWIDTH 16 0
BBX 17 29 2 0
BITMAP
002000
00F000
00F800
01D800
039C00
039C00
031C00
000000
000000
01F000
0FFC00
1FFC00
3C1E00
780E00
780E00
F01E00
F00C00
E00000
E00000
E00000
E00000
E00000
E00000
F00000
F00000
780380
3FFF80
1FFF00
07F800
ENDCHAR
STARTCHAR ccircumflex
ENCODING 265
SWIDTH 368 0
DWIDTH 9 0
BBX 11 21 1 0
BITMAP
0200
0F00
0F00
1F80
1B80
3B80
7180
7180
0000
0000
1E00
3F00
7F00
E700
E600
E000
E060
E0E0
FFC0
7F80
3E00
ENDCHAR
STARTCHAR Cdotaccent
ENCODING 266
SWIDTH 686 0
DWIDTH 16 0
BBX 17 26 2 0
BITMAP
007000
00F000
00F000
00E000
000000
000000
01F000
0FFC00
1FFC00
3C1E00
780E00
780E00
F01E00
F00C00
E00000
E00000
E00000
E00000
E00000
E00000
F00000
F00000
780380
3FFF80
1FFF00
07F800
ENDCHAR
STARTCHAR cdotaccent
ENCODING 267
SWIDTH 368 0
DWIDTH 9 0
BBX 11 17 1 0
BITMAP
0E00
1F00
1F00
0E00
0000
0000
1E00
3F00
7F00
E700
E600
E000
E060
E0E0
FFC0
7F80
3E00
ENDCHAR
STARTCHAR Ccaron
ENCODING 268
SWIDTH 686 0
DWIDTH 16 0
BBX 17 28 2 0
BITMAP
038C00
039C00
019C00
01F800
00F000
00E000
000000
000000
01F000
0FFC00
1FFC00
3C1E00
780E00
780E00
F01E00
F00C00
E00000
E00000
E00000
E00000
E00000
E00000
F00000
F00000
780380
3FFF80
1FFF00
07F800
ENDCHAR
STARTCHAR ccaron
ENCODING 269
SWIDTH 368 0
DWIDTH 9 0
BBX 11 21 1 0
BITMAP
18C0
39C0
19C0
1980
1B80
1B00
1E00
0E00
0000
0000
1E00
3F00
7F00
E700
E600
E000
E060
E0E0
FFC0
7F80
3E00
ENDCHAR
STARTCHAR Dcaron
ENCODING 270
SWIDTH 836 0
DWIDTH 20 0
BBX 19 28 1 0
BITMAP
018E00
038C00
019C00
01F800
00F000
006000
000000
000000
07F800
3FFE00
7FFF00
F00F80
C003C0
0E03C0
0E01C0
1E01E0
1E01E0
1C01E0
1C01C0
1C01C0
3C03C0
3C03C0
380780
380F80
381F00
3FFE00
3FF800
3FC000
ENDCHAR
STARTCHAR dcaron
ENCODING 271
SWIDTH 470 0
DWIDTH 11 0
BBX 15 23 1 0
BITMAP
0004
000E
000E
006E
00EC
00EC
00E0
00E0
01C0
01C0
01C0
01C0
0FC0
3F80
7F80
7380
F380
E380
E388
E798
FFF8
FFF0
79C0
ENDCHAR
STARTCHAR Dcroat
ENCODING 272
SWIDTH 821 0
DWIDTH 20 0
BBX 19 20 0 0
BITMAP
01FC00
03FF00
07FF80
0707C0
0701C0
0701E0
0F00E0
0E00E0
7FF0E0
FFF0E0
7FE0E0
1C01E0
1C01E0
1C01C0
1C03C0
3C0780
3C0F00
3FFE00
3FFC00
1FE000
ENDCHAR
STARTCHAR dcroat
ENCODING 273
SWIDTH 470 0
DWIDTH 11 0
BBX 13 20 1 0
BITMAP
0060
00E0
00E0
00E0
1FF0
1FF0
0FC0
01C0
01C0
0FC0
3FC0
7F80
7380
F380
E380
E388
E798
FFF8
FFF0
79C0
ENDCHAR
STARTCHAR Emacron
ENCODING 274
SWIDTH 686 0
DWIDTH 16 0
BBX 18 25 1 0
BITMAP
00F800
01FC00
01FC00
000000
000000
01F800
07FE00
1FFF00
1E0700
3C0700
3C0700
3C0700
3C0600
1FC000
07E000
3FC000
7C0000
F00000
F00000
E00000
F00000
F001C0
7FFFC0
3FFF80
0FFC00
ENDCHAR
STARTCHAR emacron
ENCODING 275
SWIDTH 393 0
DWIDTH 9 0
BBX 12 16 1 0
BITMAP
3F00
3F80
3F80
0000
0000
1E00
3F00
7F00
E300
E700
EE00
FC30
E0E0
FFE0
7FC0
3F00
ENDCHAR
STARTCHAR Ebreve
ENCODING 276
SWIDTH 686 0
DWIDTH 16 0
BBX 18 27 1 0
BITMAP
010200
038700
03FE00
01FE00
00F800
000000
000000
01F800
07FE00
1FFF00
1E0700
3C0700
3C0700
3C0700
3C0600
1FC000
07E000
3FC000
7C0000
F00000
F00000
E00000
F00000
F001C0
7FFFC0
3FFF80
0FFC00
ENDCHAR
STARTCHAR ebreve
ENCODING 277
SWIDTH 393 0
DWIDTH 9 0
BBX 12 19 1 0
BITMAP
2040
60E0
70E0
7FC0
3F80
1F00
0000
0000
1E00
3F00
7F00
E300
E700
EE00
FC30
E0E0
FFE0
7FC0
3F00
ENDCHAR
STARTCHAR Edotaccent
ENCODING 278
SWIDTH 686 0
DWIDTH 16 0
BBX 18 26 1 0
BITMAP
007000
00F800
00F800
007000
000000
000000
01F800
07FE00
1FFF00
1E0700
3C0700
3C0700
3C0700
3C0600
1FC000
07E000
3FC000
7C0000
F00000
F00000
E00000
F00000
F001C0
7FFFC0
3FFF80
0FFC00
ENDCHAR
STARTCHAR edotaccent
ENCODING 279
SWIDTH 393 0
DWIDTH 9 0
BBX 12 17 1 0
BITMAP
0E00
0F00
1F00
0E00
0000
0000
1E00
3F00
7F00
E300
E700
EE00
FC30
E0E0
FFE0
7FC0
3F00
ENDCHAR
STARTCHAR Eogonek
ENCODING 280
SWIDTH 686 0
DWIDTH 16 0
BBX 18 26 1 -6
BITMAP
01F800
07FE00
1FFF00
1E0700
3C0700
3C0700
3C0700
3C0600
1FC000
07E000
3FC000
7C0000
F00000
F00000
E00000
F00000
F001C0
7FFFC0
3FFF80
0FFC00
00C000
01C000
01C000
01F800
01F800
00F800
ENDCHAR
STARTCHAR eogonek
ENCODING 281
SWIDTH 393 0
DWIDTH 9 0
BBX 12 17 1 -6
BITMAP
1E00
3F00
7F00
E300
E700
EE00
FC20
F070
F1E0
7FC0
3F00
0C00
1800
1800
1800
1F80
0F80
ENDCHAR
STARTCHAR Ecaron
ENCODING 282
SWIDTH 686 0
DWIDTH 16 0
BBX 18 28 1 0
BITMAP
018600
01CE00
01DC00
00DC00
00F800
007000
000000
000000
01F800
07FE00
1FFF00
1E0700
3C0700
3C0700
3C0700
3C0600
1FC000
07E000
3FC000
7C0000
F00000
F00000
E00000
F00000
F001C0
7FFFC0
3FFF80
0FFC00
ENDCHAR
STARTCHAR ecaron
ENCODING 283
SWIDTH 393 0
DWIDTH 9 0
BBX 12 21 1 0
BITMAP
18E0
38C0
19C0
1980
1B80
1F00
0F00
0E00
0000
0000
1E00
3F00
7F00
E300
E700
EE00
FC30
E0E0
FFE0
7FC0
3F00
ENDCHAR
STARTCHAR Gcircumflex
ENCODING 284
SWIDTH 811 0
DWIDTH 19 0
BBX 20 40 2 -11
BITMAP
002000
007800
00F800
01D800
01DC00
039C00
030C00
000000
000000
01F800
07FC00
1FFE00
3E0E00
780F00
780E00
F00E00
F00E00
E00000
E00000
E00000
E03E00
E07F00
E07F00
F00700
F00730
780770
3FFEE0
1FFFC0
07FF00
001E00
003E00
007C00
00FC00
01DC00
019C00
031800
033800
03F000
03F000
01C000
ENDCHAR
STARTCHAR gcircumflex
ENCODING 285
SWIDTH 479 0
DWIDTH 12 0
BBX 14 32 0 -11
BITMAP
0080
01C0
03C0
07E0
06E0
0E60
0C60
1C60
0000
0000
0700
1FC0
3FC0
39C0
79C0
71C0
71CC
73BC
7FF8
7FF0
3FC0
0780
0F80
1F00
3B00
7700
6700
E600
CE00
FC00
FC00
7000
ENDCHAR
STARTCHAR Gbreve
ENCODING 286
SWIDTH 811 0
DWIDTH 19 0
BBX 20 38 2 -11
BITMAP
020200
070600
03FE00
03FC00
00F800
000000
000000
01F800
07FC00
1FFE00
3E0E00
780F00
780E00
F00E00
F00E00
E00000
E00000
E00000
E03E00
E07F00
E07F00
F00700
F00730
780770
3FFEE0
1FFFC0
07FF00
001E00
003E00
007C00
00FC00
01DC00
019C00
031800
033800
03F000
03F000
01C000
ENDCHAR
STARTCHAR gbreve
ENCODING 287
SWIDTH 479 0
DWIDTH 12 0
BBX 14 30 0 -11
BITMAP
0810
1838
1C38
1FF0
0FE0
07C0
0000
0000
0700
1FC0
3FC0
39C0
79C0
71C0
71CC
73BC
7FF8
7FF0
3FC0
0780
0F80
1F00
3B00
7700
6700
E600
CE00
FC00
FC00
7000
ENDCHAR
STARTCHAR Gdotaccent
ENCODING 288
SWIDTH 811 0
DWIDTH 19 0
BBX 20 37 2 -11
BITMAP
007000
00F000
00F000
007000
000000
000000
01F800
07FC00
1FFE00
3E0E00
780F00
780E00
F00E00
F00E00
E00000
E00000
E00000
E03E00
E07F00
E07F00
F00700
F00730
780770
3FFEE0
1FFFC0
07FF00
001E00
003E00
007C00
00FC00
01DC00
019C00
031800
033800
03F000
03F000
01C000
ENDCHAR
STARTCHAR gdotaccent
ENCODING 289
SWIDTH 479 0
DWIDTH 12 0
BBX 14 28 0 -11
BITMAP
0380
03C0
07C0
0380
0000
0000
0700
1FC0
3FC0
39C0
79C0
71C0
71CC
73BC
7FF8
7FF0
3FC0
0780
0F80
1F00
3B00
7700
6700
E600
CE00
FC00
FC00
7000
ENDCHAR
STARTCHAR uni0122
ENCODING 290
SWIDTH 811 0
DWIDTH 19 0
BBX 20 31 2 -11
BITMAP
01F800
07FC00
1FFE00
3E0E00
780F00
780E00
F00E00
F00E00
E00000
E00000
E00000
E03E00
E07F00
E07F00
F00700
F00730
780770
3FFEE0
1FFFC0
07FF00
1C1E00
1C3E00
1C7C00
18FC00
19DC00
019C00
031800
033800
03F000
03F000
01C000
ENDCHAR
STARTCHAR uni0123
ENCODING 291
SWIDTH 479 0
DWIDTH 12 0
BBX 14 30 0 -11
BITMAP
0180
01C0
0180
0180
0180
0100
0000
0000
0700
1FC0
3FC0
39C0
79C0
71C0
71CC
73BC
7FF8
7FF0
3FC0
0780
0F80
1F00
3B00
7700
6700
E600
CE00
FC00
FC00
7000
ENDCHAR
STARTCHAR Hcircumflex
ENCODING 292
SWIDTH 873 0
DWIDTH 21 0
BBX 24 29 0 0
BITMAP
000400
000E00
001F00
003B00
007380
007380
006180
000000
00003C
0F007C
3F807E
7F80E6
E381C6
C381C6
8381CC
03838C
038398
0383F8
0383E0
1FFF80
3FFF80
0F0780
070780
0F0780
0F0383
0E0387
0E03FE
0E01FC
0C00F8
ENDCHAR
STARTCHAR hcircumflex
ENCODING 293
SWIDTH 502 0
DWIDTH 12 0
BBX 14 31 1 0
BITMAP
0100
03C0
07C0
0EC0
0EE0
1CE0
1860
0000
0000
0700
0F80
1F80
1980
3980
3980
3380
7300
7700
7600
7C00
7DC0
7BC0
F7C0
EFC0
EDC0
F9C0
FB8C
F39C
F3F8
F3F0
E1E0
ENDCHAR
STARTCHAR Hbar
ENCODING 294
SWIDTH 856 0
DWIDTH 21 0
BBX 20 20 1 0
BITMAP
0E01C0
0E01C0
0E01C0
0E01C0
7FFFF0
7FFFF0
1E03C0
1C0380
3FFFE0
FFFFE0
FFFFE0
3C0780
3C0700
380700
380700
380700
780F00
780F00
780F00
300600
ENDCHAR
STARTCHAR hbar
ENCODING 295
SWIDTH 502 0
DWIDTH 12 0
BBX 14 20 1 0
BITMAP
1C00
1C00
1C00
3C00
FFC0
FFC0
3800
7800
7000
71C0
73C0
77C0
7FC0
6DC0
F9C0
FB8C
F39C
F3F8
73F0
61E0
ENDCHAR
STARTCHAR Itilde
ENCODING 296
SWIDTH 495 0
DWIDTH 12 0
BBX 14 27 0 0
BITMAP
0208
079C
0FFC
1CF8
0870
0000
0000
1FF8
3FF8
0FF0
0380
0380
0380
0780
0780
0700
0700
0700
0700
0F00
0F00
0E00
0E00
0E00
3FC0
FFE0
FFC0
ENDCHAR
STARTCHAR itilde
ENCODING 297
SWIDTH 246 0
DWIDTH 6 0
BBX 11 18 -1 0
BITMAP
1040
7CE0
7FC0
E7C0
4380
0000
0000
1C00
1C00
1C00
1C00
3800
3800
38C0
39C0
3F80
1F00
1E00
ENDCHAR
STARTCHAR Imacron
ENCODING 298
SWIDTH 495 0
DWIDTH 12 0
BBX 13 25 0 0
BITMAP
03F0
0FF0
07F0
0000
0000
1FF8
3FF8
0FF0
0380
0380
0380
0780
0780
0700
0700
0700
0700
0F00
0F00
0E00
0E00
0E00
3FC0
FFE0
FFC0
ENDCHAR
STARTCHAR imacron
ENCODING 299
SWIDTH 246 0
DWIDTH 6 0
BBX 9 16 0 0
BITMAP
7E00
FF00
FF00
0000
0000
3800
3800
3800
3800
7000
7000
7180
7380
7F00
3E00
3C00
ENDCHAR
STARTCHAR Ibreve
ENCODING 300
SWIDTH 495 0
DWIDTH 12 0
BBX 14 27 0 0
BITMAP
0408
0C1C
0FF8
0FF8
03E0
0000
0000
1FF8
3FF8
0FF0
0380
0380
0380
0780
0780
0700
0700
0700
0700
0F00
0F00
0E00
0E00
0E00
3FC0
FFE0
FFC0
ENDCHAR
STARTCHAR ibreve
ENCODING 301
SWIDTH 246 0
DWIDTH 6 0
BBX 10 19 -1 0
BITMAP
4040
E0C0
F1C0
7FC0
7F80
1F00
0000
0000
1C00
1C00
1C00
1C00
3800
3800
38C0
39C0
3F80
1F00
1E00
ENDCHAR
STARTCHAR Iogonek
ENCODING 302
SWIDTH 495 0
DWIDTH 12 0
BBX 13 26 0 -6
BITMAP
1FF8
3FF8
0FF0
0380
0380
0380
0780
0780
0700
0700
0700
0700
0F00
0F00
0E00
0E00
0E00
3FC0
FFE0
FFC0
1C00
1800
3800
1F80
1F80
0200
ENDCHAR
STARTCHAR iogonek
ENCODING 303
SWIDTH 246 0
DWIDTH 6 0
BBX 8 22 1 -6
BITMAP
38
78
78
38
00
30
70
70
70
E0
E0
E3
E7
FE
FC
78
F0
C0
C0
C0
FC
78
ENDCHAR
STARTCHAR Idotaccent
ENCODING 304
SWIDTH 495 0
DWIDTH 12 0
BBX 13 26 0 0
BITMAP
01C0
03E0
03E0
01C0
0000
0000
1FF8
3FF8
0FF0
0380
0380
0380
0780
0780
0700
0700
0700
0700
0F00
0F00
0E00
0E00
0E00
3FC0
FFE0
FFC0
ENDCHAR
STARTCHAR dotlessi
ENCODING 305
SWIDTH 246 0
DWIDTH 6 0
BBX 8 11 1 0
BITMAP
70
70
70
70
E0
E0
E3
E7
FE
7C
78
ENDCHAR
STARTCHAR Jcircumflex
ENCODING 308
SWIDTH 743 0
DWIDTH 18 0
BBX 16 31 2 -2
BITMAP
0040
01E0
01F0
03B0
0738
0738
0638
0000
0000
07FE
3FFF
7FFF
F00E
E00E
E01E
E01E
E01C
001C
003C
00FC
03FC
07B8
1E38
1C38
3878
3870
3870
78E0
3FC0
3F80
1F00
ENDCHAR
STARTCHAR jcircumflex
ENCODING 309
SWIDTH 254 0
DWIDTH 6 0
BBX 14 32 -5 -11
BITMAP
0020
00F0
00F0
01B0
03B0
0338
0738
0618
0000
0000
01C0
01C0
01C0
01C0
01C0
0380
038C
03BC
03F8
03E0
03C0
0780
0F00
1F00
3700
6700
E600
CE00
CC00
FC00
F800
7000
ENDCHAR
STARTCHAR uni0136
ENCODING 310
SWIDTH 937 0
DWIDTH 22 0
BBX 25 26 1 -6
BITMAP
07F01C00
1FF81C00
3FF83C00
70703800
70F07800
60F07000
70F0F000
70E1E000
20E3C000
01FF8000
03FE0000
03FE0000
01EF0000
01E78000
01C78000
C1C3C180
E3C3C300
FF81FF00
7F80FE00
3E007800
00000000
00300000
00380000
00300000
00300000
00700000
ENDCHAR
STARTCHAR uni0137
ENCODING 311
SWIDTH 525 0
DWIDTH 13 0
BBX 15 29 1 -7
BITMAP
0700
0F80
1F80
1980
3980
3980
3380
7300
7700
7600
7C00
79C0
73E0
F7E0
ECE0
ECE0
F9C0
FF86
F78E
F3FC
73F8
61F0
0000
1C00
1C00
1C00
1800
1800
1800
ENDCHAR
STARTCHAR kgreenlandic
ENCODING 312
SWIDTH 465 0
DWIDTH 11 0
BBX 13 11 1 0
BITMAP
33C0
77E0
7FE0
6E60
FCE0
FC00
FC18
FE38
FFF8
E7F0
63C0
ENDCHAR
STARTCHAR Lacute
ENCODING 313
SWIDTH 673 0
DWIDTH 16 0
BBX 20 28 -1 0
BITMAP
000040
0000F0
0001E0
0003E0
000780
000E00
000000
000000
003F00
00FF80
01FFC0
03C1E0
0381E0
0781E0
0781C0
0700C0
070000
070000
070000
070000
070000
070000
0F0010
3F0030
FFE070
FFFFE0
FCFFC0
781F80
ENDCHAR
STARTCHAR lacute
ENCODING 314
SWIDTH 326 0
DWIDTH 8 0
BBX 13 30 1 0
BITMAP
0010
0038
0078
00F0
03C0
0300
0000
0000
0700
0F80
1F80
1980
3980
3980
3180
7380
7300
7300
7700
6600
EE00
EC00
FC00
F800
F000
F0C0
71C0
7F80
3F00
1E00
ENDCHAR
STARTCHAR uni013B
ENCODING 315
SWIDTH 673 0
DWIDTH 16 0
BBX 20 26 -1 -6
BITMAP
003F00
00FF80
01FFC0
03C1E0
0381E0
0781E0
0781C0
0700C0
070000
070000
070000
070000
070000
070000
0F0010
3F0030
FFE070
FFFFE0
FCFFC0
781F80
000000
01C000
01C000
01C000
018000
018000
ENDCHAR
STARTCHAR uni013C
ENCODING 316
SWIDTH 326 0
DWIDTH 8 0
BBX 10 29 1 -7
BITMAP
0700
0F80
1F80
1980
3980
3980
3180
7380
7300
7300
7700
6600
EE00
EC00
FC00
F800
F000
F0C0
71C0
7F80
3F00
1E00
0000
3000
3800
3000
3000
3000
2000
ENDCHAR
STARTCHAR Lcaron
ENCODING 317
SWIDTH 673 0
DWIDTH 16 0
BBX 22 21 -1 0
BITMAP
000004
003F0C
00FF9C
01FFDC
03C1FC
0381F8
0781E0
0781C0
0700C0
070000
070000
070000
070000
070000
070000
0F0010
3F0030
FFE070
FFFFE0
FCFFC0
781F80
ENDCHAR
STARTCHAR lcaron
ENCODING 318
SWIDTH 237 0
DWIDTH 6 0
BBX 9 23 1 0
BITMAP
0080
0180
0180
1F80
1F80
3F00
3800
3800
3800
7800
7000
7000
7000
7000
7000
E000
E000
E000
E300
E700
FE00
FC00
7800
ENDCHAR
STARTCHAR Ldot
ENCODING 319
SWIDTH 673 0
DWIDTH 16 0
BBX 20 20 -1 0
BITMAP
003F00
00FF80
01FFC0
03C1E0
0381E0
0781E0
0781C0
0700C0
071C00
073E00
073E00
071C00
070000
070000
0F0010
3F0030
FFE070
FFFFE0
FCFFC0
781F80
ENDCHAR
STARTCHAR ldot
ENCODING 320
SWIDTH 363 0
DWIDTH 9 0
BBX 11 22 1 0
BITMAP
0C00
1E00
1C00
1C00
3C00
3800
3800
3800
3800
7300
7780
7780
7700
7000
E000
E000
E000
E060
F0E0
7FC0
7F80
3E00
ENDCHAR
STARTCHAR Lslash
ENCODING 321
SWIDTH 673 0
DWIDTH 16 0
BBX 20 24 -1 0
BITMAP
001FC0
00FFE0
01FFE0
018000
003F00
00FF80
01FFC0
03C1C0
0381E0
0781E0
0781C0
0701C0
070000
070000
070000
070000
070000
070000
0F0010
3F0030
FFE070
FFFFE0
FCFFC0
781F80
ENDCHAR
STARTCHAR lslash
ENCODING 322
SWIDTH 326 0
DWIDTH 8 0
BBX 13 24 1 0
BITMAP
03F0
1FF8
3FF8
3800
0700
0F80
1F80
3980
3980
3180
7180
7380
7300
7700
E600
EE00
FC00
F800
F000
F0C0
71C0
7F80
3F00
1E00
ENDCHAR
STARTCHAR Nacute
ENCODING 323
SWIDTH 884 0
DWIDTH 21 0
BBX 24 28 0 0
BITMAP
000020
0000F0
0001F0
0003E0
000780
000E00
000000
000000
0F07C0
3F8FE0
7F9FF0
E3B8F0
C3B0F0
83E0F0
03C0F0
07C0E0
0780E0
0781E0
0781E0
0701E0
0701C0
0F01C0
0F03C0
0F03C1
0E01C3
0E01FF
0E01FE
0E0078
ENDCHAR
STARTCHAR nacute
ENCODING 324
SWIDTH 496 0
DWIDTH 12 0
BBX 14 20 1 0
BITMAP
00E0
00E0
01E0
01C0
0380
0300
0200
0000
0000
31C0
73C0
77C0
6FC0
EDC0
F980
F38C
F39C
F3F8
E3F0
61E0
ENDCHAR
STARTCHAR uni0145
ENCODING 325
SWIDTH 884 0
DWIDTH 21 0
BBX 24 26 0 -6
BITMAP
0F07C0
3F8FE0
7F9FF0
E3B8F0
C3B0F0
83E0F0
03C0F0
07C0E0
0780E0
0781E0
0781E0
0701E0
0701C0
0F01C0
0F03C0
0F03C1
0E01C3
0E01FF
0E01FE
0E0078
000000
006000
007000
006000
006000
006000
ENDCHAR
STARTCHAR uni0146
ENCODING 326
SWIDTH 496 0
DWIDTH 12 0
BBX 14 18 1 -7
BITMAP
31C0
73C0
77C0
6FC0
EDC0
F980
F38C
F39C
F3F8
E3F0
61E0
0000
1C00
1C00
1C00
1800
1800
1800
ENDCHAR
STARTCHAR Ncaron
ENCODING 327
SWIDTH 884 0
DWIDTH 21 0
BBX 24 28 0 0
BITMAP
0030C0
0039C0
001980
001B80
000F00
000E00
000000
000000
0F07C0
3F8FE0
7F9FF0
E3B8F0
C3B0F0
83E0F0
03C0F0
07C0E0
0780E0
0781E0
0781E0
0701E0
0701C0
0F01C0
0F03C0
0F03C1
0E01C3
0E01FF
0E01FE
0E0078
ENDCHAR
STARTCHAR ncaron
ENCODING 328
SWIDTH 496 0
DWIDTH 12 0
BBX 14 21 1 0
BITMAP
0C70
0C70
0CE0
0EC0
0FC0
0780
0780
0700
0000
0000
31C0
73C0
77C0
6FC0
EDC0
F980
F38C
F39C
F3F8
E3F0
61E0
ENDCHAR
STARTCHAR napostrophe
ENCODING 329
SWIDTH 496 0
DWIDTH 12 0
BBX 15 19 0 0
BITMAP
E000
E000
E000
C000
C000
C000
0000
0000
18E0
39E0
3BE0
37E0
76E0
7CC0
79C6
79CE
79FC
71F8
30F0
ENDCHAR
STARTCHAR Eng
ENCODING 330
SWIDTH 884 0
DWIDTH 21 0
BBX 24 28 0 -8
BITMAP
0F07C0
3F8FE0
7F9FF0
E3B8F0
C3B0F0
83E0F0
03C0F0
07C0E0
0780E0
0781E0
0781E0
0701C0
0701C0
0F01C0
0F03C0
0F03C1
0E0383
0E03FF
0E07FE
0E0778
000700
000700
000E00
040E00
0E1C00
0FFC00
07F800
01E000
ENDCHAR
STARTCHAR eng
ENCODING 331
SWIDTH 495 0
DWIDTH 12 0
BBX 14 18 1 -7
BITMAP
31C0
73C0
77C0
6FC0
EDC0
F980
F38C
F39C
F3F8
E3F0
67E0
0700
0700
0600
CE00
DC00
F800
7000
ENDCHAR
STARTCHAR Omacron
ENCODING 332
SWIDTH 816 0
DWIDTH 20 0
BBX 17 25 2 0
BITMAP
01F800
03FC00
03F800
000000
000000
01F000
0FFC00
1FFE00
3C0F00
780780
780780
F00780
F00380
E00380
E00380
E00780
E00780
E00780
E00700
F00F00
F01E00
783C00
7FF800
3FF000
0FC000
ENDCHAR
STARTCHAR omacron
ENCODING 333
SWIDTH 451 0
DWIDTH 11 0
BBX 13 16 1 0
BITMAP
1F80
7F80
3F80
0000
0000
1E00
3F00
7F80
E780
E7F8
E3F8
E3C0
E380
FF00
7F00
3C00
ENDCHAR
STARTCHAR Obreve
ENCODING 334
SWIDTH 816 0
DWIDTH 20 0
BBX 17 27 2 0
BITMAP
020200
070E00
07FE00
03FC00
01F800
000000
000000
01F000
0FFC00
1FFE00
3C0F00
780780
780780
F00780
F00380
E00380
E00380
E00780
E00780
E00780
E00700
F00F00
F01E00
783C00
7FF800
3FF000
0FC000
ENDCHAR
STARTCHAR obreve
ENCODING 335
SWIDTH 451 0
DWIDTH 11 0
BBX 13 19 1 0
BITMAP
2040
60E0
71C0
7FC0
3F80
1F00
0000
0000
1E00
3F00
7F80
E780
E7F8
E3F8
E3C0
E380
FF00
7F00
3C00
ENDCHAR
STARTCHAR Ohungarumlaut
ENCODING 336
SWIDTH 816 0
DWIDTH 20 0
BBX 17 28 2 0
BITMAP
004400
00EE00
01CE00
01DC00
019C00
019800
000000
000000
01F000
0FFC00
1FFE00
3C0F00
780780
780780
F00780
F00380
E00380
E00380
E00780
E00780
E00780
E00700
F00F00
F01E00
783C00
7FF800
3FF000
0FC000
ENDCHAR
STARTCHAR ohungarumlaut
ENCODING 337
SWIDTH 451 0
DWIDTH 11 0
BBX 13 20 1 0
BITMAP
0C60
0EE0
1EE0
1DC0
19C0
3980
3100
0000
0000
1E00
3F00
7F80
E780
E7F8
E3F8
E3C0
E380
FF00
7F00
3C00
ENDCHAR
STARTCHAR OE
ENCODING 338
SWIDTH 1124 0
DWIDTH 27 0
BBX 28 20 2 0
BITMAP
01F87FC0
0FFCFFE0
1FFEFF80
3C0FE000
7807E000
7807C000
F007C000
F003C000
E003C000
E003FF80
E007FF80
E007FE00
E0078000
E0078000
F00F8000
F01F8000
783FC070
7FFBFFF0
3FF1FFE0
0FC07F00
ENDCHAR
STARTCHAR oe
ENCODING 339
SWIDTH 668 0
DWIDTH 16 0
BBX 18 11 1 0
BITMAP
1E3C00
3FFE00
7FFE00
E3CE00
E38E00
E3BC00
E3F0C0
E3C1C0
FFFF80
7EFF00
3C7C00
ENDCHAR
STARTCHAR Racute
ENCODING 340
SWIDTH 880 0
DWIDTH 21 0
BBX 23 28 1 0
BITMAP
000080
0003C0
0007C0
000F80
001E00
001800
000000
000000
00FE00
03FF80
0FFFC0
1E03C0
1C01C0
38E1C0
71E1C0
71E3C0
61C380
61CF80
E7FE00
E7F800
E3FE00
E3DE00
E38F00
638F02
738786
7F83FE
3F03FC
0F01F0
ENDCHAR
STARTCHAR racute
ENCODING 341
SWIDTH 455 0
DWIDTH 11 0
BBX 13 20 1 0
BITMAP
00C0
01C0
01C0
0380
0380
0700
0600
0000
0000
31C0
73C0
77C0
6FC0
EDD8
F9F8
F1F0
F0C0
F000
E000
6000
ENDCHAR
STARTCHAR uni0156
ENCODING 342
SWIDTH 880 0
DWIDTH 21 0
BBX 23 26 1 -6
BITMAP
00FE00
03FF80
0FFFC0
1E03C0
1C01C0
38E1C0
71E1C0
71E3C0
61C380
61CF80
E7FE00
E7F800
E3FE00
E3DE00
E38F00
638F02
738786
7F83FE
3F03FC
0F01F0
000000
003000
007000
007000
007000
006000
ENDCHAR
STARTCHAR uni0157
ENCODING 343
SWIDTH 455 0
DWIDTH 11 0
BBX 13 18 1 -7
BITMAP
31C0
73C0
77C0
6FC0
EDD8
F9F8
F1F0
F0C0
F000
E000
6000
0000
E000
E000
E000
C000
C000
C000
ENDCHAR
STARTCHAR Rcaron
ENCODING 344
SWIDTH 880 0
DWIDTH 21 0
BBX 23 28 1 0
BITMAP
00C300
00E700
006600
007E00
003C00
003800
000000
000000
00FE00
03FF80
0FFFC0
1E03C0
1C01C0
38E1C0
71E1C0
71E3C0
61C380
61CF80
E7FE00
E7F800
E3FE00
E3DE00
E38F00
638F02
738786
7F83FE
3F03FC
0F01F0
ENDCHAR
STARTCHAR rcaron
ENCODING 345
SWIDTH 455 0
DWIDTH 11 0
BBX 13 21 1 0
BITMAP
1860
1CE0
1CC0
0DC0
0D80
0F80
0F00
0600
0000
0000
31C0
73C0
77C0
6FC0
EDD8
F9F8
F1F0
F0C0
F000
E000
6000
ENDCHAR
STARTCHAR Sacute
ENCODING 346
SWIDTH 693 0
DWIDTH 17 0
BBX 16 28 1 0
BITMAP
0002
000F
001F
003E
0078
00E0
0000
0000
03F0
0FFC
1FFE
3C0F
3807
380F
380E
3C04
3F00
1FE0
07F8
01FC
003C
E01E
E01E
E01E
E01C
FFFC
7FF8
1FC0
ENDCHAR
STARTCHAR sacute
ENCODING 347
SWIDTH 427 0
DWIDTH 10 0
BBX 13 21 0 -1
BITMAP
00C0
00E0
01C0
01C0
0380
0300
0200
0000
0000
0700
0E00
0E00
1E00
1E00
3F00
3788
7398
E3B8
DFF0
1FE0
0E00
ENDCHAR
STARTCHAR Scircumflex
ENCODING 348
SWIDTH 693 0
DWIDTH 17 0
BBX 16 29 1 0
BITMAP
0020
00F0
01F0
01F8
03B8
071C
0718
0000
0000
03F0
0FFC
1FFE
3C0F
3807
380F
380E
3C04
3F00
1FE0
07F8
01FC
003C
E01E
E01E
E01E
E01C
FFFC
7FF8
1FC0
ENDCHAR
STARTCHAR scircumflex
ENCODING 349
SWIDTH 427 0
DWIDTH 10 0
BBX 13 22 0 -1
BITMAP
0100
0780
0780
0FC0
0DC0
1CC0
38C0
38C0
0000
0000
0700
0E00
0E00
1E00
1E00
3F00
3788
7398
E3B8
DFF0
1FE0
0E00
ENDCHAR
STARTCHAR Scedilla
ENCODING 350
SWIDTH 693 0
DWIDTH 17 0
BBX 16 26 1 -6
BITMAP
03F0
0FFC
1FFE
3C0E
380F
380F
380E
3C06
3F00
1FC0
0FF0
03FC
007C
E01E
E01E
E01E
E01C
F03C
7FF8
3FF0
0F80
0180
01C0
1F80
1F80
1F00
ENDCHAR
STARTCHAR scedilla
ENCODING 351
SWIDTH 427 0
DWIDTH 10 0
BBX 13 17 0 -6
BITMAP
0700
0E00
0E00
1E00
1F00
3700
7398
63B8
CFF8
9FF0
1FC0
1F00
0300
0300
0700
7E00
3C00
ENDCHAR
STARTCHAR Scaron
ENCODING 352
SWIDTH 693 0
DWIDTH 17 0
BBX 16 28 1 0
BITMAP
030C
039C
01B8
01B8
00F0
00E0
0000
0000
03F0
0FFC
1FFE
3C0F
3807
380F
380E
3C04
3F00
1FE0
07F8
01FC
003C
E01E
E01E
E01E
E01C
FFFC
7FF8
1FC0
ENDCHAR
STARTCHAR scaron
ENCODING 353
SWIDTH 427 0
DWIDTH 10 0
BBX 13 22 0 -1
BITMAP
0C60
1C60
0CE0
0CC0
0DC0
0F80
0780
0700
0000
0000
0700
0E00
0E00
1E00
1E00
3F00
3788
7398
E3B8
DFF0
1FE0
0E00
ENDCHAR
STARTCHAR uni0162
ENCODING 354
SWIDTH 697 0
DWIDTH 17 0
BBX 21 26 1 -6
BITMAP
03FFF0
3FFFF8
7FFFF0
F07000
E0F000
E0F000
E0F000
E0E000
00E000
01E000
01E000
01E000
01C000
01C000
01C000
01C000
03C000
03C000
03C000
078000
07C000
00E000
00E000
0FC000
0F8000
040000
ENDCHAR
STARTCHAR uni0163
ENCODING 355
SWIDTH 393 0
DWIDTH 9 0
BBX 13 28 0 -7
BITMAP
0080
03C0
07C0
0EC0
0EC0
0CC0
1CC0
1D80
1F80
1B00
FFE0
FFE0
7F00
3800
3800
3800
3810
3838
1C70
1FE0
0FC0
1F00
0700
0380
0300
3F00
3E00
1800
ENDCHAR
STARTCHAR Tcaron
ENCODING 356
SWIDTH 697 0
DWIDTH 17 0
BBX 21 28 1 0
BITMAP
00C300
00E700
00EE00
006C00
007C00
003800
000000
000000
03FFF0
3FFFF8
7FFFF0
F07000
E0F000
E0F000
E0F000
E0E000
00E000
01E000
01E000
01E000
01C000
01C000
01C000
01C000
03C000
03C000
03C000
018000
ENDCHAR
STARTCHAR tcaron
ENCODING 357
SWIDTH 343 0
DWIDTH 8 0
BBX 11 23 0 0
BITMAP
0040
00E0
00E0
00E0
00C0
0EC0
0E00
1E00
1C00
1C00
1C00
FFC0
FF80
3800
3800
3800
3800
3800
3860
3860
3FE0
1FC0
0F00
ENDCHAR
STARTCHAR Tbar
ENCODING 358
SWIDTH 697 0
DWIDTH 17 0
BBX 21 20 1 0
BITMAP
03FFF0
3FFFF8
7FFFF0
F07000
E0F000
E0F000
E0F000
E0E000
40E000
0FFE00
1FFE00
0FF800
01E000
01C000
01C000
01C000
03C000
03C000
03C000
018000
ENDCHAR
STARTCHAR tbar
ENCODING 359
SWIDTH 343 0
DWIDTH 8 0
BBX 11 18 0 0
BITMAP
0E00
0E00
1E00
1C00
1C00
1C00
FFC0
FF80
3800
3800
FF80
FF80
7E00
3820
3860
3FE0
3FC0
0F00
ENDCHAR
STARTCHAR Utilde
ENCODING 360
SWIDTH 890 0
DWIDTH 21 0
BBX 24 27 0 0
BITMAP
001040
007CE0
00FFC0
00E7C0
004380
000000
000000
0F0070
3F8070
7F8070
E3C0F0
C380F0
8380F0
0380E0
0780E0
0781E0
0781E0
0701E0
0703E0
0F03C0
0F07C0
0E07C0
0E0DC1
0F1DE7
0FF9FF
07F1FE
03C078
ENDCHAR
STARTCHAR utilde
ENCODING 361
SWIDTH 462 0
DWIDTH 11 0
BBX 13 18 1 0
BITMAP
0820
3E70
3FE0
73E0
21C0
0000
0000
31C0
7180
7380
7380
E380
E780
E708
EF18
FBF8
7BF0
73C0
ENDCHAR
STARTCHAR Umacron
ENCODING 362
SWIDTH 890 0
DWIDTH 21 0
BBX 24 25 0 0
BITMAP
003F00
007F80
007F80
000000
000000
0F0070
3F8070
7F8070
E3C0F0
C380F0
8380F0
0380E0
0780E0
0781E0
0781E0
0701E0
0703E0
0F03C0
0F07C0
0E07C0
0E0DC1
0F1DE7
0FF9FF
07F1FE
03C078
ENDCHAR
STARTCHAR umacron
ENCODING 363
SWIDTH 462 0
DWIDTH 11 0
BBX 13 16 1 0
BITMAP
1F80
3FC0
3FC0
0000
0000
31C0
7180
7380
7380
E380
E780
E708
EF18
FBF8
7BF0
73C0
ENDCHAR
STARTCHAR Ubreve
ENCODING 364
SWIDTH 890 0
DWIDTH 21 0
BBX 24 27 0 0
BITMAP
004040
00E0C0
007FC0
007F80
001F00
000000
000000
0F0070
3F8070
7F8070
E3C0F0
C380F0
8380F0
0380E0
0780E0
0781E0
0781E0
0701E0
0703E0
0F03C0
0F07C0
0E07C0
0E0DC1
0F1DE7
0FF9FF
07F1FE
03C078
ENDCHAR
STARTCHAR ubreve
ENCODING 365
SWIDTH 462 0
DWIDTH 11 0
BBX 13 19 1 0
BITMAP
2020
7060
38E0
3FE0
1FC0
0F80
0000
0000
31C0
7180
7380
7380
E380
E780
E708
EF18
FBF8
7BF0
73C0
ENDCHAR
STARTCHAR Uring
ENCODING 366
SWIDTH 890 0
DWIDTH 21 0
BBX 24 29 0 0
BITMAP
000E00
001F00
003F80
003380
003F00
001F00
000E00
000000
000000
0F0070
3F8070
7F8070
E3C0F0
C380F0
8380F0
0380E0
0780E0
0781E0
0781E0
0701E0
0703E0
0F03C0
0F07C0
0E07C0
0E0DC1
0F1DE7
0FF9FF
07F1FE
03C078
ENDCHAR
STARTCHAR uring
ENCODING 367
SWIDTH 462 0
DWIDTH 11 0
BBX 13 20 1 0
BITMAP
0700
0F80
1FC0
18C0
1FC0
0F80
0700
0000
0000
31C0
7180
7380
7380
E380
E780
E708
EF18
FBF8
7BF0
73C0
ENDCHAR
STARTCHAR Uhungarumlaut
ENCODING 368
SWIDTH 890 0
DWIDTH 21 0
BBX 24 28 0 0
BITMAP
000880
001DC0
001DC0
003980
003380
003300
000000
000000
0F0070
3F8070
7F8070
E3C0F0
C380F0
8380F0
0380E0
0780E0
0781E0
0781E0
0701E0
0703E0
0F03C0
0F07C0
0E07C0
0E0DC1
0F1DE7
0FF9FF
07F1FE
03C078
ENDCHAR
STARTCHAR uhungarumlaut
ENCODING 369
SWIDTH 462 0
DWIDTH 11 0
BBX 13 20 1 0
BITMAP
0670
0770
0E70
0EE0
0CC0
18C0
1980
0000
0000
31C0
7180
7380
7380
E380
E780
E708
EF18
FBF8
7BF0
73C0
ENDCHAR
STARTCHAR Uogonek
ENCODING 370
SWIDTH 890 0
DWIDTH 21 0
BBX 24 26 0 -6
BITMAP
0F0070
3F8070
7F8070
E3C0F0
C380F0
8380F0
0380E0
0780E0
0781E0
0781E0
0701E0
0703E0
0F03C0
0F03C0
0E07C0
0E0DC1
0E1DC3
0FF9FF
07F1FE
03C0FC
000070
000060
000060
000072
00007E
00003E
ENDCHAR
STARTCHAR uogonek
ENCODING 371
SWIDTH 462 0
DWIDTH 11 0
BBX 13 17 1 -6
BITMAP
31C0
7180
7380
7380
E380
E780
E708
EF18
FBB8
7BF0
73C0
0380
0700
0600
0700
07E0
03E0
ENDCHAR
STARTCHAR Wcircumflex
ENCODING 372
SWIDTH 1217 0
DWIDTH 29 0
BBX 30 29 3 0
BITMAP
00020000
00078000
000F8000
001D8000
001DC000
0039C000
0030C000
00000000
00000000
700E0780
700E0FC0
F00E0FE0
F01E1CE0
F01E1CE0
F01E1CE0
E01E1CE0
E03E1DC0
E03E0FC0
E03E07F8
E03E03FC
E07E03F8
E06E0700
E0EE0700
F0EE0E00
F1CE1E00
738F3C00
7F87F800
3F07F000
1E03C000
ENDCHAR
STARTCHAR wcircumflex
ENCODING 373
SWIDTH 700 0
DWIDTH 17 0
BBX 19 21 1 0
BITMAP
004000
01E000
01E000
03E000
077000
077000
0E7000
0C3000
000000
000000
E18600
E38F00
E39E00
E79E00
E78FE0
E79FE0
EDB800
EDB800
7DF000
79E000
70C000
ENDCHAR
STARTCHAR Ycircumflex
ENCODING 374
SWIDTH 851 0
DWIDTH 20 0
BBX 23 37 0 -8
BITMAP
000200
000F00
001F00
001B80
003B80
007180
007180
000000
000000
0F0070
3F8070
7F8070
E3C0F0
C380F0
8380F0
0380E0
0781E0
0781E0
0781E0
0703E0
0703E0
0707E0
070FC0
07FDC2
07F9FE
01E3FE
000FE0
003FC0
00F380
01C380
038380
038380
038700
038F00
03FE00
01FC00
006000
ENDCHAR
STARTCHAR ycircumflex
ENCODING 375
SWIDTH 479 0
DWIDTH 12 0
BBX 14 32 0 -11
BITMAP
0080
03C0
03C0
06C0
0EE0
0CE0
1CE0
1860
0000
0000
18E0
38C0
39C0
39C0
71C0
73C0
73CC
779C
7FB8
3DF0
3BC0
0380
0F80
1F00
3B00
7700
6700
C600
CE00
FC00
FC00
7000
ENDCHAR
STARTCHAR Ydieresis
ENCODING 376
SWIDTH 851 0
DWIDTH 20 0
BBX 23 34 0 -8
BITMAP
003180
007BC0
007BC0
003180
000000
000000
0F0070
3F8070
7F8070
E3C0F0
C380F0
8380F0
0380E0
0781E0
0781E0
0781E0
0703E0
0703E0
0707E0
070FC0
07FDC2
07F9FE
01E3FE
000FE0
003FC0
00F380
01C380
038380
038380
038700
038F00
03FE00
01FC00
006000
ENDCHAR
STARTCHAR Zacute
ENCODING 377
SWIDTH 721 0
DWIDTH 17 0
BBX 20 28 0 0
BITMAP
000100
000380
000780
000F00
003C00
003000
000000
000000
03FF00
1FFFC0
3FFFE0
380780
700780
700F00
380E00
381E00
003C00
007800
007800
00F000
01E000
01E000
03C010
3F8010
7FE030
FFFFF0
FEFFE0
781F80
ENDCHAR
STARTCHAR zacute
ENCODING 378
SWIDTH 445 0
DWIDTH 11 0
BBX 13 20 1 0
BITMAP
00C0
01C0
01C0
0380
0300
0700
0600
0000
0000
7FC0
FFC0
7FC0
0F00
3C00
7800
7018
F038
7FF0
7FE0
1F80
ENDCHAR
STARTCHAR Zdotaccent
ENCODING 379
SWIDTH 721 0
DWIDTH 17 0
BBX 20 26 0 0
BITMAP
003800
007800
007800
003800
000000
000000
03FF00
1FFFC0
3FFFE0
380780
700780
700F00
380E00
381E00
003C00
007800
007800
00F000
01E000
01E000
03C010
3F8010
7FE030
FFFFF0
FEFFE0
781F80
ENDCHAR
STARTCHAR zdotaccent
ENCODING 380
SWIDTH 445 0
DWIDTH 11 0
BBX 13 17 1 0
BITMAP
0700
0F00
0F00
0F00
0000
0000
7FC0
FFC0
7FC0
0F00
3C00
7800
7018
F038
7FF0
7FE0
1F80
ENDCHAR
STARTCHAR Zcaron
ENCODING 381
SWIDTH 721 0
DWIDTH 17 0
BBX 20 28 0 0
BITMAP
00C700
00C700
00EE00
007C00
007800
003800
000000
000000
03FF00
1FFFC0
3FFFE0
380780
700780
700F00
380E00
381E00
003C00
007800
007800
00F000
01E000
01E000
03C010
3F8010
7FE030
FFFFF0
FEFFE0
781F80
ENDCHAR
STARTCHAR zcaron
ENCODING 382
SWIDTH 445 0
DWIDTH 11 0
BBX 13 21 1 0
BITMAP
1860
1CE0
1CC0
1DC0
0D80
0F80
0F00
0600
0000
0000
7FC0
FFC0
7FC0
0F00
3C00
7800
7018
F038
7FF0
7FE0
1F80
ENDCHAR
STARTCHAR uni018F
ENCODING 399
SWIDTH 792 0
DWIDTH 19 0
BBX 18 20 1 0
BITMAP
03F800
0FFE00
1FFF00
3C0F00
300780
000380
000380
0003C0
0003C0
3FFFC0
7FFF80
FFFF80
F00780
F00780
700700
780F00
781E00
3FFC00
1FF800
07E000
ENDCHAR
STARTCHAR florin
ENCODING 402
SWIDTH 478 0
DWIDTH 11 0
BBX 15 25 -2 -7
BITMAP
003C
00FE
00FC
01E0
01C0
01C0
01C0
0FFC
1FFC
1FF8
0380
0380
0380
0380
0380
0380
0380
0780
0700
0700
0700
0700
3F00
FE00
7800
ENDCHAR
STARTCHAR Ohorn
ENCODING 416
SWIDTH 816 0
DWIDTH 20 0
BBX 19 24 2 0
BITMAP
000040
0000E0
0000E0
0001C0
01FFC0
0FFF80
1FFF00
3C0F00
780780
780780
F00780
F00380
E00380
E00380
E00780
E00780
E00780
E00700
F00F00
F01E00
783C00
7FFC00
3FF000
0FC000
ENDCHAR
STARTCHAR ohorn
ENCODING 417
SWIDTH 451 0
DWIDTH 11 0
BBX 13 14 1 0
BITMAP
0060
0060
00E0
1FC0
3FC0
7F80
E780
E7F8
E3F8
E3C0
E380
FF00
7F00
3C00
ENDCHAR
STARTCHAR Uhorn
ENCODING 431
SWIDTH 890 0
DWIDTH 21 0
BBX 24 24 0 0
BITMAP
000002
000007
000007
00000F
0F007E
3F807C
7F8078
E3C0F0
C380F0
8380F0
0380E0
0780E0
0781E0
0781E0
0701E0
0703E0
0F03C0
0F07C0
0E07C0
0E0DC1
0F1DE7
0FF9FF
07F1FE
03C078
ENDCHAR
STARTCHAR uhorn
ENCODING 432
SWIDTH 512 0
DWIDTH 12 0
BBX 14 14 1 0
BITMAP
0030
0038
0030
31F0
71E0
7380
7380
E380
E780
E704
EF0C
FBFC
7BF8
71E0
ENDCHAR
STARTCHAR uni01C4
ENCODING 452
SWIDTH 1531 0
DWIDTH 37 0
BBX 38 28 2 0
BITMAP
0000006180
0000007380
0000003300
0000003700
0000001E00
0000001C00
0000000000
0000000000
0FE001FF80
3FFC07FFF0
3FFE0FFFF0
201F1E01E0
000F1C03C0
1C079C0380
3C079C0780
38078C0F00
3807800E00
7807801E00
7807803C00
7007807800
7007007800
700F00F000
F00F01E004
F01E1FE00C
F07C3FF81C
FFF83FFFF8
FFF03F7FF0
7F801E0FC0
ENDCHAR
STARTCHAR uni01C5
ENCODING 453
SWIDTH 1191 0
DWIDTH 29 0
BBX 28 21 2 0
BITMAP
00000E30
0FE00E70
3FFC0E70
3FFE06E0
201F06C0
000F07C0
1C078780
3C078380
38078000
38078000
7807BFE0
7807BFE0
7007BFE0
70070780
700F0F00
F00F1C00
F01E3800
F07C7800
FFF87FC0
FFF07FE0
7F807FE0
ENDCHAR
STARTCHAR uni01C6
ENCODING 454
SWIDTH 895 0
DWIDTH 21 0
BBX 24 20 1 0
BITMAP
00631C
00E31C
00E3B8
00E3B0
00E3F0
01C1E0
01C1C0
01C000
01C000
0FDFF8
3F9FF8
7F8FF8
7383E0
F38780
E38E02
E39E03
E7BE0E
FFFFFE
FDEFF8
79C3F0
ENDCHAR
STARTCHAR uni01C7
ENCODING 455
SWIDTH 1276 0
DWIDTH 31 0
BBX 32 23 -1 -3
BITMAP
003E01FE
00FF87FF
01FF8FFF
03C3DE1E
0383DC1E
0783DC1E
07839C1C
07019C1C
0700081C
0700001C
0700007C
070001FC
070007B8
07000E38
0F001C38
3F003870
FFE03870
FFFFF070
FCFFF0E0
781FF9E0
00003FC0
00003F80
00000400
ENDCHAR
STARTCHAR uni01C8
ENCODING 456
SWIDTH 927 0
DWIDTH 22 0
BBX 26 31 -1 -11
BITMAP
003F0000
00FF8000
01FFC000
03C1C000
0381EE00
0781FE00
0781DE00
0701DC00
07000000
07000C00
07001C00
07001C00
07001C00
07001C00
0F001C00
3F0018C0
FFE039C0
FFFFFF80
FCFFFE00
781FBC00
00007800
0000F000
0001F000
00037000
00077000
000E6000
000CE000
000CE000
000FC000
000F8000
00070000
ENDCHAR
STARTCHAR uni01C9
ENCODING 457
SWIDTH 610 0
DWIDTH 15 0
BBX 16 33 1 -11
BITMAP
0700
0F80
1F80
1980
3980
3980
31B8
73FC
7378
7338
7700
6638
EE78
EC70
FC70
F870
F070
F0F3
71F7
7FFE
3F7C
1EF0
01E0
03E0
07E0
0EC0
1DC0
19C0
3980
3380
3F00
3F00
1E00
ENDCHAR
STARTCHAR uni01CA
ENCODING 458
SWIDTH 1497 0
DWIDTH 36 0
BBX 36 23 0 -3
BITMAP
0F07C03FE0
3F8FE0FFF0
7F9FF3FFF0
E3B8F380E0
C3B0F300E0
83E0F701E0
03C0F381E0
07C0E381E0
0780E101C0
0781E001C0
0781E00FC0
0701E01FC0
0701C07FC0
0F01C0F380
0F03C1E380
0F03C3C380
0E01C38700
0E01FF8700
0E01FF8E00
0E007B9E00
000003FC00
000001F800
0000004000
ENDCHAR
STARTCHAR uni01CB
ENCODING 459
SWIDTH 1138 0
DWIDTH 27 0
BBX 30 31 0 -11
BITMAP
0F03C000
3F8FE000
7F9FF000
63B8F000
C3B0F0E0
C3E0F1E0
03C0F1E0
07C0E1C0
0780E000
0781E0C0
0781E1C0
0701E1C0
0701C1C0
0F01C1C0
0F03C1C0
0F03C1CC
0E01C39C
0E01FFF8
0E01FFE0
0E007BC0
00000780
00000F80
00001F00
00003F00
00007700
00006600
0000CE00
0000CE00
0000FC00
0000F800
00007000
ENDCHAR
STARTCHAR uni01CC
ENCODING 460
SWIDTH 750 0
DWIDTH 18 0
BBX 20 27 1 -11
BITMAP
000700
000780
000780
000700
000000
31C700
73C700
77C700
6FC700
EDCE00
F98E00
F38E70
F39EE0
F3FFC0
E3FF80
61EF00
001C00
003C00
007C00
00DC00
019800
03B800
033800
073000
07F000
03E000
01C000
ENDCHAR
STARTCHAR Gcaron
ENCODING 486
SWIDTH 811 0
DWIDTH 19 0
BBX 20 39 2 -11
BITMAP
018E00
018E00
01DC00
00D800
00F000
007000
000000
000000
01F800
07FC00
1FFE00
3E0E00
780F00
780E00
F00E00
F00E00
E00000
E00000
E00000
E03E00
E07F00
E07F00
F00700
F00730
780770
3FFEE0
1FFFC0
07FF00
001E00
003E00
007C00
00FC00
01DC00
019C00
031800
033800
03F000
03F000
01C000
ENDCHAR
STARTCHAR gcaron
ENCODING 487
SWIDTH 479 0
DWIDTH 12 0
BBX 14 32 0 -11
BITMAP
0638
0E30
0670
0660
06E0
07C0
03C0
0380
0000
0000
0700
1FC0
3FC0
39C0
79C0
71C0
71CC
73BC
7FF8
7FF0
3FC0
0780
0F80
1F00
3B00
7700
6700
E600
CE00
FC00
FC00
7000
ENDCHAR
STARTCHAR uni01EA
ENCODING 490
SWIDTH 816 0
DWIDTH 20 0
BBX 17 26 2 -6
BITMAP
01F000
0FFC00
1FFE00
3C0F00
380780
780780
F00780
F00380
E00380
E00380
E00780
E00780
E00780
E00700
F00F00
F01E00
783E00
7FFC00
3FF000
0FE000
038000
030000
070000
039000
03F000
01E000
ENDCHAR
STARTCHAR uni01EB
ENCODING 491
SWIDTH 451 0
DWIDTH 11 0
BBX 13 17 1 -6
BITMAP
1E00
3F00
7F80
E780
E7F8
E3F8
E1F0
E380
F780
7F00
3E00
1C00
3800
3000
3800
3F00
1F00
ENDCHAR
STARTCHAR Aringacute
ENCODING 506
SWIDTH 786 0
DWIDTH 19 0
BBX 22 31 1 0
BITMAP
000004
00001C
00043C
000F70
001F80
001980
001980
001F80
001F00
000400
000000
003FC0
01FFE0
03FFE0
0F8000
1F0700
1E0780
3C0700
380700
780F00
700F00
700E00
F00E00
F01E00
F01E00
F03E00
703E18
787E38
7FEFF0
3FCFE0
0F87C0
ENDCHAR
STARTCHAR aringacute
ENCODING 507
SWIDTH 470 0
DWIDTH 11 0
BBX 15 22 1 0
BITMAP
0004
000E
011E
07B8
0FC0
0CC0
0CC0
0FC0
0F80
0200
0000
0E00
3F80
7F80
7380
F380
E380
E388
E798
FFF8
FFF0
79C0
ENDCHAR
STARTCHAR AEacute
ENCODING 508
SWIDTH 1015 0
DWIDTH 24 0
BBX 26 28 1 0
BITMAP
00000800
00001C00
00003C00
00007800
0001E000
00018000
00000000
00000000
0078FF80
01F9FF80
07FBFE00
0F838000
1F038000
1E078000
3C078000
78070000
78070000
700FFE00
700FFE00
F00FFC00
F01E0000
F01E0000
F03E0000
703F0000
787F00C0
7FE7FFC0
3FC3FF80
0F80FE00
ENDCHAR
STARTCHAR aeacute
ENCODING 509
SWIDTH 653 0
DWIDTH 16 0
BBX 18 20 1 0
BITMAP
001800
001C00
003C00
003800
007000
006000
004000
000000
000000
0F7800
3FFC00
7FFE00
71CC00
E38C00
E3BC00
E3F0C0
E781C0
FFFF80
FDFF00
787C00
ENDCHAR
STARTCHAR Oslashacute
ENCODING 510
SWIDTH 816 0
DWIDTH 20 0
BBX 17 30 2 -2
BITMAP
000800
001C00
007C00
00F800
01E000
018000
003800
003800
01F800
0FFC00
1FFE00
3C6F00
38E780
70E780
F0E780
F0C380
E1C380
E1C380
E1C780
E18780
E38780
E38700
E30F00
F30E00
7F3C00
7FF800
3FF000
0FC000
0E0000
0E0000
ENDCHAR
STARTCHAR oslashacute
ENCODING 511
SWIDTH 459 0
DWIDTH 11 0
BBX 13 23 1 -3
BITMAP
0600
0F00
0E00
1C00
1C00
1800
3600
0600
0600
1E00
7F80
7F80
ED80
EDF8
EDF8
E9E0
EB80
FF80
7F00
3E00
1800
1000
3000
ENDCHAR
STARTCHAR uni0200
ENCODING 512
SWIDTH 786 0
DWIDTH 19 0
BBX 21 28 1 0
BITMAP
004200
00E700
006700
007700
003380
003100
000000
000000
003FC0
01FFE0
03FFE0
0F8000
1F0700
1E0780
3C0700
380700
780F00
700F00
700E00
F00E00
F01E00
F01E00
F03E00
703E18
787E38
7FEFF0
3FCFE0
0F87C0
ENDCHAR
STARTCHAR uni0201
ENCODING 513
SWIDTH 470 0
DWIDTH 11 0
BBX 13 20 1 0
BITMAP
6700
7700
7700
3380
3980
1980
18C0
0000
0000
0E00
3F80
7F80
7380
F380
E380
E388
E798
FFF8
FFF0
79C0
ENDCHAR
STARTCHAR uni0202
ENCODING 514
SWIDTH 786 0
DWIDTH 19 0
BBX 21 27 1 0
BITMAP
000600
003F80
007FC0
0070E0
0060E0
000000
000000
003FC0
01FFE0
03FFE0
0F8000
1F0700
1E0780
3C0700
380700
780F00
700F00
700E00
F00E00
F01E00
F01E00
F03E00
703E18
787E38
7FEFF0
3FCFE0
0F87C0
ENDCHAR
STARTCHAR uni0203
ENCODING 515
SWIDTH 470 0
DWIDTH 11 0
BBX 13 19 1 0
BITMAP
0200
0FC0
1FE0
38E0
3070
3060
0000
0000
0E00
3F80
7F80
7380
F380
E380
E388
E798
FFF8
FFF0
79C0
ENDCHAR
STARTCHAR uni0204
ENCODING 516
SWIDTH 686 0
DWIDTH 16 0
BBX 18 28 1 0
BITMAP
021000
073800
033800
03B800
019C00
018800
000000
000000
01F800
07FE00
1FFF00
1E0700
3C0700
3C0700
3C0700
3C0600
1FC000
07E000
3FC000
7C0000
F00000
F00000
E00000
F00000
F001C0
7FFFC0
3FFF80
0FFC00
ENDCHAR
STARTCHAR uni0205
ENCODING 517
SWIDTH 393 0
DWIDTH 9 0
BBX 12 20 1 0
BITMAP
CE00
EE00
EE00
6700
7300
3300
3180
0000
0000
1E00
3F00
7F00
E300
E700
EE00
FC30
E0E0
FFE0
7FC0
3F00
ENDCHAR
STARTCHAR uni0206
ENCODING 518
SWIDTH 686 0
DWIDTH 16 0
BBX 18 27 1 0
BITMAP
003000
01FC00
03FE00
038F00
030600
000000
000000
01F800
07FE00
1FFF00
1E0700
3C0700
3C0700
3C0700
3C0600
1FC000
07E000
3FC000
7C0000
F00000
F00000
E00000
F00000
F001C0
7FFFC0
3FFF80
0FFC00
ENDCHAR
STARTCHAR uni0207
ENCODING 519
SWIDTH 393 0
DWIDTH 9 0
BBX 12 19 1 0
BITMAP
0400
1F80
3FC0
71C0
60E0
60C0
0000
0000
1E00
3F00
7F00
E300
E700
EE00
FC30
E0E0
FFE0
7FC0
3F00
ENDCHAR
STARTCHAR uni0208
ENCODING 520
SWIDTH 495 0
DWIDTH 12 0
BBX 13 28 0 0
BITMAP
0840
1CC0
1CE0
0EE0
0660
0620
0000
0000
1FF8
3FF8
0FF0
0380
0380
0380
0780
0780
0700
0700
0700
0700
0F00
0F00
0E00
0E00
0E00
3FC0
FFE0
FFC0
ENDCHAR
STARTCHAR uni0209
ENCODING 521
SWIDTH 246 0
DWIDTH 6 0
BBX 11 20 -2 0
BITMAP
6600
E700
7700
7300
3380
3980
1980
0000
0000
0E00
0E00
0E00
0E00
1C00
1C00
1C60
1CE0
1FC0
0F80
0F00
ENDCHAR
STARTCHAR uni020A
ENCODING 522
SWIDTH 495 0
DWIDTH 12 0
BBX 14 27 0 0
BITMAP
00C0
07F0
0FF8
0E3C
0C18
0000
0000
1FF8
3FF8
0FF0
0380
0380
0380
0780
0780
0700
0700
0700
0700
0F00
0F00
0E00
0E00
0E00
3FC0
FFE0
FFC0
ENDCHAR
STARTCHAR uni020B
ENCODING 523
SWIDTH 246 0
DWIDTH 6 0
BBX 10 19 -1 0
BITMAP
0400
3F80
7FC0
71C0
E1C0
60C0
0000
0000
1C00
1C00
1C00
1C00
3800
3800
38C0
39C0
3F80
1F00
1E00
ENDCHAR
STARTCHAR uni020C
ENCODING 524
SWIDTH 816 0
DWIDTH 20 0
BBX 17 28 2 0
BITMAP
022000
077000
077000
073000
03B800
011800
000000
000000
01F000
0FFC00
1FFE00
3C0F00
780780
780780
F00780
F00380
E00380
E00380
E00780
E00780
E00780
E00700
F00F00
F01E00
783C00
7FF800
3FF000
0FC000
ENDCHAR
STARTCHAR uni020D
ENCODING 525
SWIDTH 451 0
DWIDTH 11 0
BBX 13 20 1 0
BITMAP
CE00
EE00
EE00
E700
7700
3300
3100
0000
0000
1E00
3F00
7F80
E780
E7F8
E3F8
E3C0
E380
FF00
7F00
3C00
ENDCHAR
STARTCHAR uni020E
ENCODING 526
SWIDTH 816 0
DWIDTH 20 0
BBX 17 27 2 0
BITMAP
006000
01FC00
03FE00
070E00
060600
000000
000000
01F000
0FFC00
1FFE00
3C0F00
780780
780780
F00780
F00380
E00380
E00380
E00780
E00780
E00780
E00700
F00F00
F01E00
783C00
7FF800
3FF000
0FC000
ENDCHAR
STARTCHAR uni020F
ENCODING 527
SWIDTH 451 0
DWIDTH 11 0
BBX 13 19 1 0
BITMAP
0400
1F80
3FC0
71C0
60E0
60C0
0000
0000
1E00
3F00
7F80
E780
E7F8
E3F8
E3C0
E380
FF00
7F00
3C00
ENDCHAR
STARTCHAR uni0210
ENCODING 528
SWIDTH 880 0
DWIDTH 21 0
BBX 23 28 1 0
BITMAP
010800
039C00
01DC00
01CC00
00CE00
00C600
000000
000000
00FE00
03FF80
0FFFC0
1E03C0
1C01C0
38E1C0
71E1C0
71E3C0
61C380
61CF80
E7FE00
E7F800
E3FE00
E3DE00
E38F00
638F02
738786
7F83FE
3F03FC
0F01F0
ENDCHAR
STARTCHAR uni0211
ENCODING 529
SWIDTH 455 0
DWIDTH 11 0
BBX 13 20 1 0
BITMAP
6600
E700
7700
7300
3380
3980
1980
0000
0000
31C0
73C0
77C0
6FC0
EDD8
F9F8
F1F0
F0C0
F000
E000
6000
ENDCHAR
STARTCHAR uni0212
ENCODING 530
SWIDTH 880 0
DWIDTH 21 0
BBX 23 27 1 0
BITMAP
001800
00FF00
01FF00
01C380
018380
000000
000000
00FE00
03FF80
0FFFC0
1E03C0
1C01C0
38E1C0
71E1C0
71E3C0
61C380
61CF80
E7FE00
E7F800
E3FE00
E3DE00
E38F00
638F02
738786
7F83FE
3F03FC
0F01F0
ENDCHAR
STARTCHAR uni0213
ENCODING 531
SWIDTH 455 0
DWIDTH 11 0
BBX 13 19 1 0
BITMAP
0200
1FC0
3FE0
38E0
70E0
3060
0000
0000
31C0
73C0
77C0
6FC0
EDD8
F9F8
F1F0
F0C0
F000
E000
6000
ENDCHAR
STARTCHAR uni0214
ENCODING 532
SWIDTH 890 0
DWIDTH 21 0
BBX 24 28 0 0
BITMAP
004400
00EE00
00EE00
006700
007300
003300
000000
000000
0F0070
3F8070
7F8070
E3C0F0
C380F0
8380F0
0380E0
0780E0
0781E0
0781E0
0701E0
0703E0
0F03C0
0F07C0
0E07C0
0E0DC1
0F1DE7
0FF9FF
07F1FE
03C078
ENDCHAR
STARTCHAR uni0215
ENCODING 533
SWIDTH 462 0
DWIDTH 11 0
BBX 13 20 1 0
BITMAP
6600
E700
7700
7300
3380
3980
1980
0000
0000
31C0
7180
7380
7380
E380
E780
E708
EF18
FBF8
7BF0
73C0
ENDCHAR
STARTCHAR uni0216
ENCODING 534
SWIDTH 890 0
DWIDTH 21 0
BBX 24 27 0 0
BITMAP
000600
003F80
007FC0
00F1C0
00E0C0
000000
000000
0F0070
3F8070
7F8070
E3C0F0
C380F0
8380F0
0380E0
0780E0
0781E0
0781E0
0701E0
0703E0
0F03C0
0F07C0
0E07C0
0E0DC1
0F1DE7
0FF9FF
07F1FE
03C078
ENDCHAR
STARTCHAR uni0217
ENCODING 535
SWIDTH 462 0
DWIDTH 11 0
BBX 13 19 1 0
BITMAP
0300
1FC0
3FE0
38E0
7060
3060
0000
0000
31C0
7180
7380
7380
E380
E780
E708
EF18
FBF8
7BF0
73C0
ENDCHAR
STARTCHAR uni0218
ENCODING 536
SWIDTH 693 0
DWIDTH 17 0
BBX 16 26 1 -6
BITMAP
03F0
0FFC
1FFE
3C0F
3807
380F
380E
3C04
3F00
1FE0
07F8
01FC
003C
E01E
E01E
E01E
E01C
FFFC
7FF8
1FC0
0000
0700
0700
0700
0600
0600
ENDCHAR
STARTCHAR uni0219
ENCODING 537
SWIDTH 427 0
DWIDTH 10 0
BBX 13 18 0 -7
BITMAP
0700
0E00
0E00
1E00
1E00
3F00
3788
7398
E3B8
DFF0
1FE0
0E00
0E00
0E00
0E00
0C00
0C00
0C00
ENDCHAR
STARTCHAR uni021A
ENCODING 538
SWIDTH 697 0
DWIDTH 17 0
BBX 21 26 1 -6
BITMAP
03FFF0
3FFFF8
7FFFF0
F07000
E0F000
E0F000
E0F000
E0E000
00E000
01E000
01E000
01E000
01C000
01C000
01C000
01C000
03C000
03C000
03C000
018000
000000
038000
038000
038000
030000
030000
ENDCHAR
STARTCHAR uni021B
ENCODING 539
SWIDTH 393 0
DWIDTH 9 0
BBX 13 28 0 -7
BITMAP
01C0
03C0
07C0
0EC0
0CC0
0CC0
1CC0
1D80
1F80
1F00
FFE0
FFE0
7F00
3800
3800
3800
3818
3C30
1FF0
1FE0
0780
0000
0600
0E00
0E00
0E00
0C00
0C00
ENDCHAR
STARTCHAR uni022A
ENCODING 554
SWIDTH 816 0
DWIDTH 20 0
BBX 17 31 2 0
BITMAP
00F800
01FC00
01FC00
000000
000000
039C00
039C00
039C00
039C00
000000
000000
01F000
0FFC00
1FFE00
3C0F00
780780
780780
F00780
F00380
E00380
E00380
E00780
E00780
E00780
E00700
F00F00
F01E00
783C00
7FF800
3FF000
0FC000
ENDCHAR
STARTCHAR uni022B
ENCODING 555
SWIDTH 451 0
DWIDTH 11 0
BBX 13 22 1 0
BITMAP
1F80
3FC0
3FC0
0000
0000
3180
7BC0
7BC0
3180
0000
0000
1E00
3F00
7F80
E780
E7F8
E3F8
E3C0
E380
FF00
7F00
3C00
ENDCHAR
STARTCHAR uni022C
ENCODING 556
SWIDTH 816 0
DWIDTH 20 0
BBX 17 32 2 0
BITMAP
00FC00
01FC00
01FC00
000000
000000
010200
03C600
07FE00
067C00
041C00
000000
000000
01F000
0FFC00
1FFE00
3C0F00
780780
780780
F00780
F00380
E00380
E00380
E00780
E00780
E00780
E00700
F00F00
F01E00
783C00
7FF800
3FF000
0FC000
ENDCHAR
STARTCHAR uni022D
ENCODING 557
SWIDTH 451 0
DWIDTH 11 0
BBX 13 22 1 0
BITMAP
1F80
3FC0
3FC0
0000
1040
3CE0
7FE0
E7C0
4380
0000
0000
1E00
3F00
7F80
E780
E7F8
E3F8
E3C0
E380
FF00
7F00
3C00
ENDCHAR
STARTCHAR uni0230
ENCODING 560
SWIDTH 816 0
DWIDTH 20 0
BBX 17 31 2 0
BITMAP
00F800
01FC00
01FC00
000000
000000
007000
00F000
00F000
00E000
000000
000000
01F000
0FFC00
1FFE00
3C0F00
780780
780780
F00780
F00380
E00380
E00380
E00780
E00780
E00780
E00700
F00F00
F01E00
783C00
7FF800
3FF000
0FC000
ENDCHAR
STARTCHAR uni0231
ENCODING 561
SWIDTH 451 0
DWIDTH 11 0
BBX 13 21 1 0
BITMAP
1F80
3FC0
3FC0
0000
0E00
1F00
1F00
0E00
0000
0000
1E00
3F00
7F80
E780
E7F8
E3F8
E3C0
E380
FF00
7F00
3C00
ENDCHAR
STARTCHAR uni0232
ENCODING 562
SWIDTH 851 0
DWIDTH 20 0
BBX 23 33 0 -8
BITMAP
001F80
007F80
003F80
000000
000000
0F0070
3F8070
7F8070
E3C0F0
C380F0
8380F0
0380E0
0781E0
0781E0
0781E0
0703E0
0703E0
0707E0
070FC0
07FDC2
07F9FE
01E3FE
000FE0
003FC0
00F380
01C380
038380
038380
038700
038F00
03FE00
01FC00
006000
ENDCHAR
STARTCHAR uni0233
ENCODING 563
SWIDTH 479 0
DWIDTH 12 0
BBX 14 27 0 -11
BITMAP
0FC0
1FE0
1FE0
0000
0000
18E0
38C0
39C0
39C0
71C0
73C0
73CC
779C
7FB8
3DF0
3BC0
0380
0F80
1F00
3B00
7700
6700
C600
CE00
FC00
FC00
7000
ENDCHAR
STARTCHAR uni0237
ENCODING 567
SWIDTH 254 0
DWIDTH 6 0
BBX 14 22 -5 -11
BITMAP
01C0
01C0
01C0
01C0
01C0
0380
038C
03BC
03F8
03E0
03C0
0780
0F00
1F00
3700
6700
E600
CE00
CC00
FC00
F800
7000
ENDCHAR
STARTCHAR uni0259
ENCODING 601
SWIDTH 458 0
DWIDTH 11 0
BBX 9 11 1 0
BITMAP
3E00
7F00
FF80
0380
0380
FF80
FF80
E380
FF80
7F00
3E00
ENDCHAR
STARTCHAR uni02BC
ENCODING 700
SWIDTH 600 0
DWIDTH 14 0
BBX 3 6 6 13
BITMAP
60
60
E0
E0
E0
C0
ENDCHAR
STARTCHAR circumflex
ENCODING 710
SWIDTH 600 0
DWIDTH 14 0
BBX 8 8 3 13
BITMAP
04
1E
1E
3E
37
77
E3
E3
ENDCHAR
STARTCHAR caron
ENCODING 711
SWIDTH 600 0
DWIDTH 14 0
BBX 8 8 4 13
BITMAP
E3
E7
67
6E
6E
6C
78
38
ENDCHAR
STARTCHAR uni02C9
ENCODING 713
SWIDTH 600 0
DWIDTH 14 0
BBX 8 3 3 13
BITMAP
3F
FF
7F
ENDCHAR
STARTCHAR breve
ENCODING 728
SWIDTH 600 0
DWIDTH 14 0
BBX 10 6 3 13
BITMAP
4080
C1C0
E380
FF80
7F00
3E00
ENDCHAR
STARTCHAR dotaccent
ENCODING 729
SWIDTH 600 0
DWIDTH 14 0
BBX 5 4 5 13
BITMAP
70
F8
F8
70
ENDCHAR
STARTCHAR ring
ENCODING 730
SWIDTH 600 0
DWIDTH 14 0
BBX 7 7 4 13
BITMAP
3C
7C
7E
E6
FE
7C
38
ENDCHAR
STARTCHAR ogonek
ENCODING 731
SWIDTH 600 0
DWIDTH 14 0
BBX 7 8 3 -6
BITMAP
10
30
60
E0
E0
FC
7E
3C
ENDCHAR
STARTCHAR tilde
ENCODING 732
SWIDTH 600 0
DWIDTH 14 0
BBX 11 5 2 13
BITMAP
1040
3CE0
7FC0
E7C0
4380
ENDCHAR
STARTCHAR hungarumlaut
ENCODING 733
SWIDTH 600 0
DWIDTH 14 0
BBX 9 7 4 13
BITMAP
3380
3B80
7380
7700
6700
E600
C400
ENDCHAR
STARTCHAR gravecomb
ENCODING 768
SWIDTH 0 0
DWIDTH 0 0
BBX 6 7 -12 13
BITMAP
60
F0
70
38
38
1C
0C
ENDCHAR
STARTCHAR acutecomb
ENCODING 769
SWIDTH 0 0
DWIDTH 0 0
BBX 5 7 -8 13
BITMAP
18
38
38
70
60
E0
C0
ENDCHAR
STARTCHAR uni0302
ENCODING 770
SWIDTH 0 0
DWIDTH 0 0
BBX 8 8 -11 13
BITMAP
08
1E
3E
36
76
67
E7
C7
ENDCHAR
STARTCHAR tildecomb
ENCODING 771
SWIDTH 0 0
DWIDTH 0 0
BBX 10 5 -12 13
BITMAP
1040
78C0
FFC0
C780
8380
ENDCHAR
STARTCHAR uni0304
ENCODING 772
SWIDTH 0 0
DWIDTH 0 0
BBX 8 3 -11 13
BITMAP
7E
FF
FE
ENDCHAR
STARTCHAR uni0306
ENCODING 774
SWIDTH 0 0
DWIDTH 0 0
BBX 10 6 -12 13
BITMAP
4040
E0C0
E1C0
7FC0
7F80
1E00
ENDCHAR
STARTCHAR uni0307
ENCODING 775
SWIDTH 0 0
DWIDTH 0 0
BBX 4 4 -9 13
BITMAP
70
F0
F0
E0
ENDCHAR
STARTCHAR uni0308
ENCODING 776
SWIDTH 0 0
DWIDTH 0 0
BBX 8 4 -11 13
BITMAP
E7
E7
E7
E7
ENDCHAR
STARTCHAR hookabovecomb
ENCODING 777
SWIDTH 0 0
DWIDTH 0 0
BBX 5 7 -9 13
BITMAP
F0
F8
18
18
18
78
70
ENDCHAR
STARTCHAR uni030A
ENCODING 778
SWIDTH 0 0
DWIDTH 0 0
BBX 7 7 -10 13
BITMAP
38
7C
FC
CE
FC
FC
78
ENDCHAR
STARTCHAR uni030B
ENCODING 779
SWIDTH 0 0
DWIDTH 0 0
BBX 9 7 -10 13
BITMAP
3300
7380
7700
6700
E600
CE00
CC00
ENDCHAR
STARTCHAR uni030C
ENCODING 780
SWIDTH 0 0
DWIDTH 0 0
BBX 8 8 -10 13
BITMAP
C3
E7
E6
EE
6C
7C
78
30
ENDCHAR
STARTCHAR uni030F
ENCODING 783
SWIDTH 0 0
DWIDTH 0 0
BBX 9 7 -13 13
BITMAP
E600
EF00
E700
7700
3300
3180
1980
ENDCHAR
STARTCHAR uni0311
ENCODING 785
SWIDTH 0 0
DWIDTH 0 0
BBX 10 6 -12 13
BITMAP
0400
3F80
7F80
F1C0
E1C0
C0C0
ENDCHAR
STARTCHAR uni0312
ENCODING 786
SWIDTH 0 0
DWIDTH 0 0
BBX 3 6 -8 13
BITMAP
60
E0
E0
E0
C0
C0
ENDCHAR
STARTCHAR uni031B
ENCODING 795
SWIDTH 0 0
DWIDTH 0 0
BBX 5 6 -8 9
BITMAP
10
38
38
70
F0
E0
ENDCHAR
STARTCHAR dotbelowcomb
ENCODING 803
SWIDTH 0 0
DWIDTH 0 0
BBX 4 4 -11 -5
BITMAP
60
F0
F0
E0
ENDCHAR
STARTCHAR uni0324
ENCODING 804
SWIDTH 0 0
DWIDTH 0 0
BBX 8 4 -13 -5
BITMAP
E7
E7
E7
E7
ENDCHAR
STARTCHAR uni0326
ENCODING 806
SWIDTH 0 0
DWIDTH 0 0
BBX 3 6 -11 -7
BITMAP
60
60
E0
E0
E0
C0
ENDCHAR
STARTCHAR uni0327
ENCODING 807
SWIDTH 0 0
DWIDTH 0 0
BBX 7 7 -13 -6
BITMAP
38
7C
0E
0E
7E
FC
F8
ENDCHAR
STARTCHAR uni0328
ENCODING 808
SWIDTH 0 0
DWIDTH 0 0
BBX 6 8 -11 -6
BITMAP
20
70
E0
C0
C0
FC
FC
7C
ENDCHAR
STARTCHAR uni032E
ENCODING 814
SWIDTH 0 0
DWIDTH 0 0
BBX 10 6 -14 -7
BITMAP
4080
C1C0
E1C0
FF80
7F00
3E00
ENDCHAR
STARTCHAR uni0331
ENCODING 817
SWIDTH 0 0
DWIDTH 0 0
BBX 8 3 -13 -4
BITMAP
7E
FF
FF
ENDCHAR
STARTCHAR uni0394
ENCODING 916
SWIDTH 700 0
DWIDTH 17 0
BBX 14 21 1 0
BITMAP
00C0
01E0
01E0
01E0
03E0
03E0
0770
0770
0E70
0E70
0C30
1C38
1C38
3838
3838
7038
7018
701C
FFFC
FFFC
FFFC
ENDCHAR
STARTCHAR uni03A9
ENCODING 937
SWIDTH 816 0
DWIDTH 20 0
BBX 20 21 -1 0
BITMAP
003E00
00FF80
03FFC0
07C3E0
0781E0
0F00F0
0E00F0
1E0070
1C0070
1C0070
1C0070
1C00F0
1C00F0
1C00E0
1C01E0
1E01E0
1E03C0
0F0780
7F8FF0
FF8FF0
7F8FF0
ENDCHAR
STARTCHAR uni03BC
ENCODING 956
SWIDTH 462 0
DWIDTH 11 0
BBX 13 18 1 -6
BITMAP
31C0
7180
7380
7380
E380
E380
E708
E718
FF38
FBF0
FBE0
F3C0
E000
E000
E000
E000
E000
C000
ENDCHAR
STARTCHAR pi
ENCODING 960
SWIDTH 496 0
DWIDTH 12 0
BBX 14 12 1 0
BITMAP
FFF0
FFF0
71C0
71C0
71C0
F380
E384
E38C
E39C
E3F8
E1F0
E1E0
ENDCHAR
STARTCHAR uni0400
ENCODING 1024
SWIDTH 686 0
DWIDTH 16 0
BBX 18 28 1 0
BITMAP
040000
0E0000
0F0000
07C000
01E000
006000
000000
000000
01F800
07FE00
1FFF00
1E0700
3C0700
3C0700
3C0700
3C0600
1FC000
07E000
3FC000
7C0000
F00000
F00000
E00000
F00000
F001C0
7FFFC0
3FFF80
0FFC00
ENDCHAR
STARTCHAR uni0401
ENCODING 1025
SWIDTH 686 0
DWIDTH 16 0
BBX 18 26 1 0
BITMAP
01CE00
03DE00
03DE00
018C00
000000
000000
01F800
07FE00
1FFF00
1E0700
3C0700
3C0700
3C0700
3C0600
1FC000
07E000
3FC000
7C0000
F00000
F00000
E00000
F00000
F001C0
7FFFC0
3FFF80
0FFC00
ENDCHAR
STARTCHAR uni0402
ENCODING 1026
SWIDTH 974 0
DWIDTH 23 0
BBX 25 31 1 -11
BITMAP
03FFF000
3FFFF800
7FF1F000
F0700000
E0F00000
E0F00000
E0F00000
E0E00000
60E00000
01E3E000
01EFF000
01FEF800
01F07800
01E07800
01E07980
01C07B80
03C07F80
03C07F00
03C07C00
0180F800
0001F000
0003F000
0007E000
000EE000
001CE000
001DC000
0039C000
003BC000
003F8000
003F0000
001E0000
ENDCHAR
STARTCHAR uni0403
ENCODING 1027
SWIDTH 635 0
DWIDTH 15 0
BBX 20 28 1 0
BITMAP
000400
000E00
001E00
003C00
00F000
00C000
000000
000000
07FFF0
3FFFE0
7FC000
F1C000
E3C000
E3C000
E38000
E38000
038000
078000
078000
070000
070000
070000
070000
0F0000
0F0000
0F0000
0F0000
0E0000
ENDCHAR
STARTCHAR uni0404
ENCODING 1028
SWIDTH 687 0
DWIDTH 16 0
BBX 18 20 2 0
BITMAP
01F000
0FFC00
1FFC00
3C0E00
380E00
781E00
F01C00
F00000
E00000
FFE000
FFE000
E00000
E00000
E00000
F00000
F00000
7801C0
3FBF80
1FFF00
07F800
ENDCHAR
STARTCHAR uni0405
ENCODING 1029
SWIDTH 693 0
DWIDTH 17 0
BBX 16 20 1 0
BITMAP
03F0
0FFC
1FFE
3C0F
3807
380F
380E
3C04
3F00
1FE0
07F8
01FC
003C
E01E
E01E
E01E
E01C
FFFC
7FF8
1FC0
ENDCHAR
STARTCHAR uni0406
ENCODING 1030
SWIDTH 495 0
DWIDTH 12 0
BBX 13 20 0 0
BITMAP
1FF8
3FF8
0FF0
0380
0380
0380
0780
0780
0700
0700
0700
0700
0F00
0F00
0E00
0E00
0E00
3FC0
FFE0
FFC0
ENDCHAR
STARTCHAR uni0407
ENCODING 1031
SWIDTH 495 0
DWIDTH 12 0
BBX 13 26 0 0
BITMAP
0630
0F78
0F78
0630
0000
0000
1FF8
3FF8
0FF0
0380
0380
0380
0780
0780
0700
0700
0700
0700
0F00
0F00
0E00
0E00
0E00
3FC0
FFE0
FFC0
ENDCHAR
STARTCHAR uni0408
ENCODING 1032
SWIDTH 743 0
DWIDTH 18 0
BBX 16 22 2 -2
BITMAP
07FE
3FFF
7FFF
F00E
E00E
E01E
E01E
E01C
001C
003C
00FC
03FC
07B8
1E38
1C38
3878
3870
3870
78E0
3FC0
3F80
1F00
ENDCHAR
STARTCHAR uni0409
ENCODING 1033
SWIDTH 1158 0
DWIDTH 28 0
BBX 27 20 0 0
BITMAP
00038000
00078000
00078000
000F8000
000F8000
000F8000
001F8000
001F8000
001BFFC0
003BFFE0
003BC1E0
007380E0
007380E0
007380E0
00E380E0
E1E381E0
E1C3C1C0
7F81FFC0
7F80FF80
1E007E00
ENDCHAR
STARTCHAR uni040A
ENCODING 1034
SWIDTH 1182 0
DWIDTH 28 0
BBX 28 20 0 0
BITMAP
0F00E000
3F80E000
7F81E000
E381E000
C381C000
8381C000
0381C000
0383BF80
0383FFE0
0383FFF0
1FFF80F0
3FFF80F0
07838070
070380F0
0F0380F0
0F0380E0
0E03C1E0
0E03FFC0
0E01FF80
0C007E00
ENDCHAR
STARTCHAR uni040B
ENCODING 1035
SWIDTH 979 0
DWIDTH 24 0
BBX 26 20 1 0
BITMAP
03FFF000
3FFFF800
7FF1F000
F0700000
E0F00000
E0F00000
E0F00000
E0E00000
60E00000
01E3E000
01EFF000
01FEF800
01F87800
01E07800
01E07800
01C078C0
03C071C0
03C07F80
03C07F00
01803C00
ENDCHAR
STARTCHAR uni040C
ENCODING 1036
SWIDTH 937 0
DWIDTH 22 0
BBX 25 28 1 0
BITMAP
00001000
00003800
0000F800
0001F000
0003C000
00030000
00000000
00000000
07F01C00
1FF81C00
3FF83C00
70703800
70F07800
60F07000
70F0F000
70E1E000
20E3C000
01FF8000
03FE0000
03FE0000
01EF0000
01E78000
01C78000
C1C3C180
E3C3C300
FF81FF00
7F80FE00
3E007800
ENDCHAR
STARTCHAR uni040D
ENCODING 1037
SWIDTH 890 0
DWIDTH 21 0
BBX 24 28 0 0
BITMAP
010000
03C000
03E000
01F000
007800
001800
000000
000000
0F0070
3F8070
7F8070
E3C0F0
C380F0
8380F0
0380E0
0780E0
0781E0
0781E0
0701E0
0703E0
0F03C0
0F07C0
0E07C0
0E0DC1
0F1DE7
0FF9FF
07F1FE
03C078
ENDCHAR
STARTCHAR uni040E
ENCODING 1038
SWIDTH 824 0
DWIDTH 20 0
BBX 22 32 1 -5
BITMAP
004180
00C380
00E700
00FF00
007C00
000000
000000
1E00E0
7F00E0
FF01E0
C701E0
8701E0
0701C0
0F03C0
0F03C0
0E07C0
0E0FC0
0E1FC0
0FFB80
07F380
03E3BC
0003FC
001FF8
007F80
01E700
03C700
070700
070F00
070E00
071C00
07FC00
03F000
ENDCHAR
STARTCHAR uni040F
ENCODING 1039
SWIDTH 890 0
DWIDTH 21 0
BBX 24 24 0 -4
BITMAP
0F0070
3F8070
7F8070
E3C0F0
C380F0
8380F0
0380E0
0780E0
0781E0
0781E0
0701E0
0703E0
0F03C0
0F03C0
0E07C0
0E0DC1
0E1DC3
0FF9FF
07F1FE
03E078
03C000
038000
038000
038000
ENDCHAR
STARTCHAR uni0410
ENCODING 1040
SWIDTH 786 0
DWIDTH 19 0
BBX 21 20 1 0
BITMAP
003FC0
01FFE0
03FFE0
0F8000
1F0700
1E0780
3C0700
380700
780F00
700F00
700E00
F00E00
F01E00
F01E00
F03E00
703E18
787E38
7FEFF0
3FCFE0
0F87C0
ENDCHAR
STARTCHAR uni0411
ENCODING 1041
SWIDTH 917 0
DWIDTH 22 0
BBX 21 21 1 -1
BITMAP
07FFF0
3FFFE0
7EE000
E1E000
E1E000
E1C000
E1C000
E1C000
63C000
03FF80
07FFE0
0FFFF0
0F80F0
038078
038078
078070
078070
0780F0
0783E0
071FC0
073F00
ENDCHAR
STARTCHAR uni0412
ENCODING 1042
SWIDTH 827 0
DWIDTH 20 0
BBX 21 21 0 -1
BITMAP
01FF80
0FFFE0
3FFFF0
7C00F8
E00078
078078
070078
0700F0
0F03E0
0F3FC0
0E3E00
0E1F80
0E03C0
1E01C0
1E01C0
1C03C0
1C07C0
1FFF80
1FFE00
1FF800
1C0000
ENDCHAR
STARTCHAR uni0413
ENCODING 1043
SWIDTH 635 0
DWIDTH 15 0
BBX 20 20 1 0
BITMAP
07FFF0
3FFFE0
7FC000
F1C000
E3C000
E3C000
E38000
E38000
038000
078000
078000
070000
070000
070000
070000
0F0000
0F0000
0F0000
0F0000
0E0000
ENDCHAR
STARTCHAR uni0414
ENCODING 1044
SWIDTH 964 0
DWIDTH 23 0
BBX 23 20 0 0
BITMAP
007F80
03FFE0
0FFFF0
0F0078
0C003C
00703C
00E01C
00E01C
01E01E
01C01E
01C01E
01C01C
03C01C
03803C
3F803C
7F8078
FFC078
FFFFF0
7F3FE0
3C1F80
ENDCHAR
STARTCHAR uni0415
ENCODING 1045
SWIDTH 686 0
DWIDTH 16 0
BBX 18 20 1 0
BITMAP
01F800
07FE00
1FFF00
1E0700
3C0700
3C0700
3C0700
3C0600
1FC000
07E000
3FC000
7C0000
F00000
F00000
E00000
F00000
F001C0
7FFFC0
3FFF80
0FFC00
ENDCHAR
STARTCHAR uni0416
ENCODING 1046
SWIDTH 1234 0
DWIDTH 30 0
BBX 31 20 1 0
BITMAP
0781C078
1FC1C1FC
1FE1C1FC
10E1C38C
00E1C780
0071C700
0073CF00
007BDE00
003FFC00
001FE000
007FF800
00F3BC00
01E79C00
01C79E00
03C70E00
43870F06
C787070E
FF0707FC
FE0703F8
7C0701F0
ENDCHAR
STARTCHAR uni0417
ENCODING 1047
SWIDTH 725 0
DWIDTH 17 0
BBX 16 20 1 0
BITMAP
03F0
0FFC
1FFC
3C1E
381E
381E
181C
001C
0038
03F8
07FE
000E
000F
600F
F00E
F01E
703E
7FFC
3FF0
0FC0
ENDCHAR
STARTCHAR uni0418
ENCODING 1048
SWIDTH 890 0
DWIDTH 21 0
BBX 24 20 0 0
BITMAP
0F0070
3F8070
7F8070
E3C0F0
C380F0
8380F0
0380E0
0780E0
0781E0
0781E0
0701E0
0703E0
0F03C0
0F07C0
0E07C0
0E0DC1
0F1DE7
0FF9FF
07F1FE
03C078
ENDCHAR
STARTCHAR uni0419
ENCODING 1049
SWIDTH 890 0
DWIDTH 21 0
BBX 24 27 0 0
BITMAP
0020C0
0070C0
0073C0
007F80
001E00
000000
000000
0F0070
3F8070
7F8070
E3C0F0
C380F0
8380F0
0380E0
0780E0
0781E0
0781E0
0701E0
0703E0
0F03C0
0F07C0
0E07C0
0E0DC1
0F1DE7
0FF9FF
07F1FE
03C078
ENDCHAR
STARTCHAR uni041A
ENCODING 1050
SWIDTH 937 0
DWIDTH 22 0
BBX 25 20 1 0
BITMAP
07F01C00
1FF81C00
3FF83C00
70703800
70F07800
60F07000
70F0F000
70E1E000
20E3C000
01FF8000
03FE0000
03FE0000
01EF0000
01E78000
01C78000
C1C3C180
E3C3C300
FF81FF00
7F80FE00
3E007800
ENDCHAR
STARTCHAR uni041B
ENCODING 1051
SWIDTH 861 0
DWIDTH 21 0
BBX 24 20 0 0
BITMAP
000380
000780
000780
000F80
000F80
000F80
001F80
001F80
001F80
003B80
003B80
007B80
007380
007380
00E380
E1E383
E3C3C7
7F81FE
7F81FC
3E00F8
ENDCHAR
STARTCHAR uni041C
ENCODING 1052
SWIDTH 1133 0
DWIDTH 27 0
BBX 30 20 0 0
BITMAP
001C0700
003E0F00
003E0F00
003E1F00
003E1F00
003E3F00
007E3F00
007E7700
007E7700
006E7700
00EEE700
00EEEF00
00EEEF00
01CFC700
01CFC700
E1CF870C
E387871C
FF8787FC
7F0703F8
3E0301E0
ENDCHAR
STARTCHAR uni041D
ENCODING 1053
SWIDTH 873 0
DWIDTH 21 0
BBX 24 21 0 0
BITMAP
00003C
0F007C
3F807E
7F80E6
E381C6
C381C6
8381CC
03838C
038398
0383F8
0383E0
1FFF80
3FFF80
0F0780
070780
0F0780
0F0383
0E0387
0E03FE
0E01FC
0C00F8
ENDCHAR
STARTCHAR uni041E
ENCODING 1054
SWIDTH 816 0
DWIDTH 20 0
BBX 17 20 2 0
BITMAP
01F000
0FFC00
1FFE00
3C0F00
780780
780780
F00780
F00380
E00380
E00380
E00780
E00780
E00780
E00700
F00F00
F01E00
783C00
7FF800
3FF000
0FC000
ENDCHAR
STARTCHAR uni041F
ENCODING 1055
SWIDTH 892 0
DWIDTH 21 0
BBX 24 20 1 0
BITMAP
03FFF8
1FFFFF
7FC0FE
F1C0E0
E1C0E0
E3C1E0
E3C1E0
E381E0
4381C0
0381C0
0783C0
0783C0
078380
070380
070380
070383
0F0386
0F03FE
0F01FC
0600F0
ENDCHAR
STARTCHAR uni0420
ENCODING 1056
SWIDTH 805 0
DWIDTH 19 0
BBX 19 22 1 -2
BITMAP
00FE00
03FF80
07FFC0
0E03C0
1C01E0
38E1E0
38E1E0
70E1E0
71E1C0
61E3C0
E1C780
E5DF80
EFFE00
E7F800
E3C000
E3C000
E38000
E38000
778000
7F8000
3F0000
1E0000
ENDCHAR
STARTCHAR uni0421
ENCODING 1057
SWIDTH 686 0
DWIDTH 16 0
BBX 17 20 2 0
BITMAP
01F000
0FFC00
1FFC00
3C1E00
780E00
780E00
F01E00
F00C00
E00000
E00000
E00000
E00000
E00000
E00000
F00000
F00000
780380
3FFF80
1FFF00
07F800
ENDCHAR
STARTCHAR uni0422
ENCODING 1058
SWIDTH 697 0
DWIDTH 17 0
BBX 21 20 1 0
BITMAP
03FFF0
3FFFF8
7FFFF0
F07000
E0F000
E0F000
E0F000
E0E000
00E000
01E000
01E000
01E000
01C000
01C000
01C000
01C000
03C000
03C000
03C000
018000
ENDCHAR
STARTCHAR uni0423
ENCODING 1059
SWIDTH 824 0
DWIDTH 20 0
BBX 22 25 1 -5
BITMAP
1E00E0
7F00E0
FF01E0
C701E0
8701E0
0701C0
0F03C0
0F03C0
0E07C0
0E0FC0
0E1FC0
0FFB80
07F380
03E3BC
0003FC
001FF8
007F80
01E700
03C700
070700
070F00
070E00
071C00
07FC00
03F000
ENDCHAR
STARTCHAR uni0424
ENCODING 1060
SWIDTH 977 0
DWIDTH 23 0
BBX 22 29 1 -6
BITMAP
080000
1F8000
1FFF00
07FF00
001C00
001C00
011C20
0FDDF8
1FFBF8
3C7F3C
383E1C
783C1C
70381C
70383C
F0383C
F0703C
F0F038
F1F078
73F8F0
7F7FE0
3E7FC0
08F300
00E000
00E000
30E000
39C000
3FC000
1F8000
0F0000
ENDCHAR
STARTCHAR uni0425
ENCODING 1061
SWIDTH 712 0
DWIDTH 17 0
BBX 20 20 0 0
BITMAP
1F01E0
3F83C0
7FC3C0
E3C780
81CF00
01FE00
01FC00
00F800
00F000
00F000
01F000
03F000
07F800
0F7800
1E3800
3C3810
7C3C70
781FE0
F01FC0
E00780
ENDCHAR
STARTCHAR uni0426
ENCODING 1062
SWIDTH 890 0
DWIDTH 21 0
BBX 24 28 0 -8
BITMAP
0F0070
3F8070
7F8070
E3C0F0
C380F0
8380F0
0380E0
0780E0
0781E0
0781E0
0701E0
0703E0
0F03C0
0F03C0
0E07C0
0E0DC0
0E1DE1
0FF9FF
07F0FF
03C03C
0000F0
0003F0
000770
000E70
000E60
000FE0
000FC0
000780
ENDCHAR
STARTCHAR uni0427
ENCODING 1063
SWIDTH 773 0
DWIDTH 19 0
BBX 15 20 3 0
BITMAP
700C
701E
701E
701E
701C
F01C
F01C
E03C
E03C
E07C
E0FC
FFDC
7FB8
3F38
0038
0038
0038
0078
0078
0030
ENDCHAR
STARTCHAR uni0428
ENCODING 1064
SWIDTH 1272 0
DWIDTH 31 0
BBX 34 20 0 0
BITMAP
0F00603800
3F80E03800
7F80F03800
E3C0E03800
C380E07800
8380E07800
0381E07800
0781E07000
0781C07000
0781C0F000
0703C0F000
0703C0F000
0F0381F000
0F0781F000
0E0783E000
0E0F82E0C0
0E1B86E1C0
0FFBFCFF80
07F1F87F00
03C0F03C00
ENDCHAR
STARTCHAR uni0429
ENCODING 1065
SWIDTH 1272 0
DWIDTH 31 0
BBX 34 28 0 -8
BITMAP
0F00603800
3F80E03800
7F80F03800
E3C0E03800
C380E07800
8380E07800
0381E07800
0781E07000
0781C07000
0781C0F000
0703C0F000
0703C0F000
0F0381F000
0F0781F000
0E0583E000
0E0F82E000
0E1B86F080
0FFBFCFFC0
07F1F87F80
03C1F01E00
0000007C00
000001F800
000003B800
0000073800
0000073800
000007F000
000007E000
000003C000
ENDCHAR
STARTCHAR uni042A
ENCODING 1066
SWIDTH 863 0
DWIDTH 21 0
BBX 17 20 3 0
BITMAP
008000
FFC000
FFC000
078000
070000
070000
0F0000
0EFC00
0FFF00
3FDF80
7C0780
7C0380
1C0380
1C0380
1C0380
1C0780
1E0F00
0FFE00
07FC00
03F000
ENDCHAR
STARTCHAR uni042B
ENCODING 1067
SWIDTH 1078 0
DWIDTH 26 0
BBX 24 20 1 0
BITMAP
0E0007
0E0007
1E0007
1E000F
1C000F
1C000F
3C000E
3FF80E
3FFE0E
FFFE0E
F80F1E
F80F1E
38071C
380F1C
380F1C
380E3C
381E3C
3FFC3C
1FF83C
07E038
ENDCHAR
STARTCHAR uni042C
ENCODING 1068
SWIDTH 721 0
DWIDTH 17 0
BBX 16 20 1 0
BITMAP
0E00
0E00
1E00
1E00
1C00
1C00
3C00
3FF8
3FFE
FFFE
F80F
F80F
3807
380F
380F
380E
381E
3FFC
1FF8
07E0
ENDCHAR
STARTCHAR uni042D
ENCODING 1069
SWIDTH 755 0
DWIDTH 18 0
BBX 17 20 1 0
BITMAP
07F000
1FFC00
3FFE00
781E00
600F00
000700
000780
000780
000780
0FFF80
0FFF80
000700
000700
600F00
E00E00
E01E00
E03C00
FFF800
7FF000
1FC000
ENDCHAR
STARTCHAR uni042E
ENCODING 1070
SWIDTH 1246 0
DWIDTH 30 0
BBX 29 20 0 0
BITMAP
0F000380
3F80F7E0
7F81F3F0
E383B0F0
C383F078
83876038
0387E038
0387C038
038F8038
03BF0038
1FFE0038
3FFE0038
070E0078
070F0078
0F0F00F0
0F0F00E0
0E0783E0
0E03FFC0
0E01FF80
0C00FC00
ENDCHAR
STARTCHAR uni042F
ENCODING 1071
SWIDTH 850 0
DWIDTH 20 0
BBX 24 20 0 0
BITMAP
00FEE0
01FFE0
03FFE0
0780E0
0701E0
0F01E0
0F01C0
0F03C0
0703C0
0787C0
03FFC0
01FFC0
000F80
001F80
003B80
C07383
E0E3C6
FFC3FE
7F81FC
3E00F0
ENDCHAR
STARTCHAR uni0430
ENCODING 1072
SWIDTH 470 0
DWIDTH 11 0
BBX 13 11 1 0
BITMAP
0E00
3F80
7F80
7380
F380
E380
E388
E798
FFF8
FFF0
79C0
ENDCHAR
STARTCHAR uni0431
ENCODING 1073
SWIDTH 473 0
DWIDTH 11 0
BBX 14 22 1 0
BITMAP
0040
03C0
1FC0
3F80
3800
3800
3800
1C00
0E00
0700
0380
1F80
3FC0
7BC0
F3C0
E3FC
E3F8
E380
E380
FF00
7F00
3C00
ENDCHAR
STARTCHAR uni0432
ENCODING 1074
SWIDTH 473 0
DWIDTH 11 0
BBX 14 22 1 0
BITMAP
0700
0F80
1F80
1980
3980
3980
3380
7300
7300
7600
7400
7F00
FF80
FB80
F3C0
E3FC
E3F8
E1C0
7180
7F80
3F00
1E00
ENDCHAR
STARTCHAR uni0433
ENCODING 1075
SWIDTH 380 0
DWIDTH 9 0
BBX 11 11 1 0
BITMAP
3E00
FF00
FF00
0700
1E00
3C00
F020
E0E0
FFC0
FF80
7E00
ENDCHAR
STARTCHAR uni0434
ENCODING 1076
SWIDTH 479 0
DWIDTH 12 0
BBX 14 22 0 -11
BITMAP
0700
1FC0
3FC0
39C0
79C0
71C0
71CC
73BC
7FF8
7FF0
3FC0
0780
0F80
1F00
3B00
7700
6700
E600
CE00
FC00
FC00
7000
ENDCHAR
STARTCHAR uni0435
ENCODING 1077
SWIDTH 393 0
DWIDTH 9 0
BBX 12 11 1 0
BITMAP
1E00
3F00
7F00
E300
E700
EE00
FC30
E0E0
FFE0
7FC0
3F00
ENDCHAR
STARTCHAR uni0436
ENCODING 1078
SWIDTH 717 0
DWIDTH 17 0
BBX 20 11 0 0
BITMAP
1C6780
3EEFC0
3FEFC0
33FCC0
03D980
03F800
67F830
E7FC70
FEFFE0
7CCFE0
78C780
ENDCHAR
STARTCHAR uni0437
ENCODING 1079
SWIDTH 435 0
DWIDTH 10 0
BBX 14 22 -1 -11
BITMAP
0F80
1FC0
1FE0
00E0
00C0
01C0
0784
1E1C
383C
1EF0
07C0
0780
0F80
1F80
3B80
7300
6700
E700
CE00
FE00
FC00
7800
ENDCHAR
STARTCHAR uni0438
ENCODING 1080
SWIDTH 462 0
DWIDTH 11 0
BBX 13 11 1 0
BITMAP
31C0
7180
7380
7380
E380
E780
E708
EF18
FBF8
7BF0
73C0
ENDCHAR
STARTCHAR uni0439
ENCODING 1081
SWIDTH 462 0
DWIDTH 11 0
BBX 13 19 1 0
BITMAP
0040
2060
70C0
3BC0
3F80
1F00
0000
0000
31C0
7180
7380
7380
E380
E780
E708
EF18
FBF8
7BF0
73C0
ENDCHAR
STARTCHAR uni043A
ENCODING 1082
SWIDTH 465 0
DWIDTH 11 0
BBX 13 11 1 0
BITMAP
33C0
77E0
7FE0
6E60
FCE0
FC00
FC18
FE38
FFF8
E7F0
63C0
ENDCHAR
STARTCHAR uni043B
ENCODING 1083
SWIDTH 549 0
DWIDTH 13 0
BBX 16 11 0 0
BITMAP
00E0
01E0
01E0
03E0
03E0
67E0
E6E3
EEE7
FCFE
FC7C
7078
ENDCHAR
STARTCHAR uni043C
ENCODING 1084
SWIDTH 734 0
DWIDTH 18 0
BBX 21 11 0 0
BITMAP
01C700
03CF00
03CF00
03DF00
07DB00
66FB00
E6F718
EEF738
FCF7F0
FCE3E0
7863C0
ENDCHAR
STARTCHAR uni043D
ENCODING 1085
SWIDTH 475 0
DWIDTH 11 0
BBX 14 11 1 0
BITMAP
31C0
71C0
71C0
6380
FF80
FF80
E38C
E398
E3F8
E3F0
61C0
ENDCHAR
STARTCHAR uni043E
ENCODING 1086
SWIDTH 451 0
DWIDTH 11 0
BBX 13 11 1 0
BITMAP
1E00
3F00
7F80
E780
E7F8
E3F8
E3C0
E380
FF00
7F00
3C00
ENDCHAR
STARTCHAR uni043F
ENCODING 1087
SWIDTH 496 0
DWIDTH 12 0
BBX 14 11 1 0
BITMAP
31C0
73C0
77C0
6FC0
EDC0
F980
F38C
F39C
F3F8
E3F0
61E0
ENDCHAR
STARTCHAR uni0440
ENCODING 1088
SWIDTH 481 0
DWIDTH 12 0
BBX 18 22 -3 -11
BITMAP
067000
0EF800
07FC00
071C00
071C00
063800
0E38C0
0E79C0
1EFF80
1FFF00
3F9C00
3E0000
6E0000
6E0000
6E0000
EE0000
CE0000
CC0000
CC0000
FC0000
F80000
700000
ENDCHAR
STARTCHAR uni0441
ENCODING 1089
SWIDTH 368 0
DWIDTH 9 0
BBX 11 11 1 0
BITMAP
1E00
3F00
7F00
E700
E600
E000
E060
E0E0
FFC0
7F80
3E00
ENDCHAR
STARTCHAR uni0442
ENCODING 1090
SWIDTH 744 0
DWIDTH 18 0
BBX 20 11 1 0
BITMAP
318700
77CF00
77DF00
6FBF00
F9E700
FBE600
F3CE30
F3CE70
F3CFE0
E38FC0
618780
ENDCHAR
STARTCHAR uni0443
ENCODING 1091
SWIDTH 479 0
DWIDTH 12 0
BBX 14 22 0 -11
BITMAP
18E0
38C0
39C0
39C0
71C0
73C0
73CC
779C
7FB8
3DF0
3BC0
0380
0F80
1F00
3B00
7700
6700
C600
CE00
FC00
FC00
7000
ENDCHAR
STARTCHAR uni0444
ENCODING 1092
SWIDTH 721 0
DWIDTH 17 0
BBX 19 27 1 -8
BITMAP
004000
00E000
00E000
00E000
01C000
01C000
01C000
01C000
0F9C00
3FBE00
7BEE00
73CE00
E3CE00
E38E00
E38E20
E79C60
FFBFE0
FFFFC0
7BEF00
030000
030000
030000
030000
030000
030000
030000
030000
ENDCHAR
STARTCHAR uni0445
ENCODING 1093
SWIDTH 529 0
DWIDTH 13 0
BBX 16 11 0 0
BITMAP
1E78
3FF8
3FF8
3398
0380
0380
6783
E787
FFFE
7DFC
78F0
ENDCHAR
STARTCHAR uni0446
ENCODING 1094
SWIDTH 501 0
DWIDTH 12 0
BBX 14 18 1 -7
BITMAP
31C0
7180
7380
7380
E380
E780
E700
EF08
FBBC
7BF8
71E0
0780
0F80
1980
3380
3F00
3E00
1C00
ENDCHAR
STARTCHAR uni0447
ENCODING 1095
SWIDTH 555 0
DWIDTH 13 0
BBX 16 13 0 0
BITMAP
0700
0F00
0FFC
0DFC
1C78
1CF0
39C0
3381
7383
E387
C3FF
83FC
01F0
ENDCHAR
STARTCHAR uni0448
ENCODING 1096
SWIDTH 693 0
DWIDTH 17 0
BBX 19 11 1 0
BITMAP
318600
718E00
738E00
738E00
E39C00
E79C00
E7BC60
EFBCE0
FFFDC0
7BDF80
71CF00
ENDCHAR
STARTCHAR uni0449
ENCODING 1097
SWIDTH 732 0
DWIDTH 18 0
BBX 19 18 1 -7
BITMAP
318600
718E00
738E00
738E00
E39C00
E79C00
E7BC00
EFBC20
FFFEE0
7BDFC0
71CF00
001E00
007E00
00EC00
00CC00
01FC00
00F800
00F000
ENDCHAR
STARTCHAR uni044A
ENCODING 1098
SWIDTH 542 0
DWIDTH 13 0
BBX 15 12 1 0
BITMAP
4000
FE00
FE00
3800
7F80
7FC0
7FE0
70E6
71CE
7FFC
3FF8
1FF0
ENDCHAR
STARTCHAR uni044B
ENCODING 1099
SWIDTH 702 0
DWIDTH 17 0
BBX 19 11 1 0
BITMAP
300E00
700E00
700E00
771E00
FFBC00
FFFC00
F1FC60
E1FCE0
7FDFC0
7F8F80
3E0F00
ENDCHAR
STARTCHAR uni044C
ENCODING 1100
SWIDTH 517 0
DWIDTH 12 0
BBX 15 11 1 0
BITMAP
3000
7000
7000
7780
FFC0
FFC0
F1C6
E1CC
7FFC
7FF8
1FE0
ENDCHAR
STARTCHAR uni044D
ENCODING 1101
SWIDTH 466 0
DWIDTH 11 0
BBX 13 11 1 0
BITMAP
3F00
7F80
7F80
01C8
0FF8
1FF8
C1C0
C3C0
FF80
FF00
3E00
ENDCHAR
STARTCHAR uni044E
ENCODING 1102
SWIDTH 676 0
DWIDTH 16 0
BBX 18 11 1 0
BITMAP
30F800
71FC00
73DC00
63BE00
FF1FC0
FF1FC0
FF0F00
E70C00
E3FC00
E3F800
60F000
ENDCHAR
STARTCHAR uni044F
ENCODING 1103
SWIDTH 543 0
DWIDTH 13 0
BBX 16 11 0 0
BITMAP
07F0
0FF0
0FF0
0C70
0C70
6FE0
E7E3
E1E7
FF7E
FE7C
7C38
ENDCHAR
STARTCHAR uni0450
ENCODING 1104
SWIDTH 393 0
DWIDTH 9 0
BBX 12 20 1 0
BITMAP
7000
7000
7800
3800
1C00
0C00
0400
0000
0000
1E00
3F00
7F00
E300
E700
EE00
FC30
E0E0
FFE0
7FC0
3F00
ENDCHAR
STARTCHAR uni0451
ENCODING 1105
SWIDTH 393 0
DWIDTH 9 0
BBX 12 17 1 0
BITMAP
39C0
7BC0
7BC0
3180
0000
0000
1E00
3F00
7F00
E300
E700
EE00
FC30
E0E0
FFE0
7FC0
3F00
ENDCHAR
STARTCHAR uni0452
ENCODING 1106
SWIDTH 514 0
DWIDTH 12 0
BBX 14 31 1 -11
BITMAP
1C00
1C00
1C00
3C00
FFC0
FFC0
3800
7800
7000
71C0
73C0
77C0
7FC0
6DC0
F9C0
F9CC
F1BC
F3F8
73E0
63C0
0780
0F80
1F00
3F00
7700
6600
CE00
CE00
FC00
F800
7000
ENDCHAR
STARTCHAR uni0453
ENCODING 1107
SWIDTH 380 0
DWIDTH 9 0
BBX 11 20 1 0
BITMAP
0300
0780
0700
0600
0E00
0C00
1800
0000
0000
3E00
FF00
FF00
0700
1E00
3C00
F020
E0E0
FFC0
FF80
7E00
ENDCHAR
STARTCHAR uni0454
ENCODING 1108
SWIDTH 379 0
DWIDTH 9 0
BBX 11 11 1 0
BITMAP
1F00
7F00
7F80
E000
FC00
FC00
E060
E0E0
FBC0
7F80
3E00
ENDCHAR
STARTCHAR uni0455
ENCODING 1109
SWIDTH 427 0
DWIDTH 10 0
BBX 13 12 0 -1
BITMAP
0700
0E00
0E00
1E00
1E00
3F00
3788
7398
E3B8
DFF0
1FE0
0E00
ENDCHAR
STARTCHAR uni0456
ENCODING 1110
SWIDTH 246 0
DWIDTH 6 0
BBX 8 16 1 0
BITMAP
38
7C
78
38
00
70
70
70
70
E0
E0
E3
E7
FE
7C
78
ENDCHAR
STARTCHAR uni0457
ENCODING 1111
SWIDTH 246 0
DWIDTH 6 0
BBX 9 17 0 0
BITMAP
6300
F780
E700
E700
0000
0000
3800
3800
3800
3800
7000
7000
7180
7380
7F00
3E00
3C00
ENDCHAR
STARTCHAR uni0458
ENCODING 1112
SWIDTH 254 0
DWIDTH 6 0
BBX 14 27 -5 -11
BITMAP
00C0
01E0
01E0
01C0
0000
01C0
01C0
01C0
01C0
01C0
0380
038C
03BC
03F8
03E0
03C0
0780
0F00
1F00
3700
6700
E600
CE00
CC00
FC00
F800
7000
ENDCHAR
STARTCHAR uni0459
ENCODING 1113
SWIDTH 794 0
DWIDTH 19 0
BBX 22 11 0 0
BITMAP
00E000
01E000
01E000
03E700
03FF80
27FFC0
E7E1CC
EEE3DC
FCFFF8
FC7FF0
783FE0
ENDCHAR
STARTCHAR uni045A
ENCODING 1114
SWIDTH 751 0
DWIDTH 18 0
BBX 20 11 1 0
BITMAP
31C000
71C000
71C000
63BC00
FFFE00
FFFF00
E38730
E38E70
E3FEE0
E1FFC0
60FF80
ENDCHAR
STARTCHAR uni045B
ENCODING 1115
SWIDTH 502 0
DWIDTH 12 0
BBX 14 20 1 0
BITMAP
1C00
1C00
1C00
3C00
FFC0
FFC0
3800
7800
7000
71C0
73C0
77C0
7FC0
6DC0
F9C0
FB8C
F39C
F3F8
73F0
61E0
ENDCHAR
STARTCHAR uni045C
ENCODING 1116
SWIDTH 465 0
DWIDTH 11 0
BBX 13 20 1 0
BITMAP
00C0
01C0
01C0
0380
0300
0700
0600
0000
0000
33C0
77E0
7FE0
6E60
FCE0
FC00
FC18
FE38
FFF8
E7F0
63C0
ENDCHAR
STARTCHAR uni045D
ENCODING 1117
SWIDTH 462 0
DWIDTH 11 0
BBX 13 20 1 0
BITMAP
3000
3800
3800
1C00
0C00
0E00
0600
0000
0000
31C0
7180
7380
7380
E380
E780
E708
EF18
FBF8
7BF0
73C0
ENDCHAR
STARTCHAR uni045E
ENCODING 1118
SWIDTH 479 0
DWIDTH 12 0
BBX 14 30 0 -11
BITMAP
0020
1030
3860
1DE0
1FC0
0F80
0000
0000
18E0
38C0
39C0
39C0
71C0
73C0
73CC
779C
7FB8
3DF0
3BC0
0380
0F80
1F00
3B00
7700
6700
C600
CE00
FC00
FC00
7000
ENDCHAR
STARTCHAR uni045F
ENCODING 1119
SWIDTH 600 0
DWIDTH 14 0
BBX 13 14 1 -3
BITMAP
31C0
7180
7380
7380
E380
E780
E718
EF38
FBF0
7BE0
73C0
7000
7000
2000
ENDCHAR
STARTCHAR uni0462
ENCODING 1122
SWIDTH 721 0
DWIDTH 17 0
BBX 16 20 1 0
BITMAP
0E00
1E00
7FC0
FFC0
1C00
1C00
3C00
3FF8
3FFE
FFFE
F80F
F80F
3807
380F
380F
380E
381E
3FFC
1FF8
07E0
ENDCHAR
STARTCHAR uni0463
ENCODING 1123
SWIDTH 517 0
DWIDTH 12 0
BBX 16 16 0 0
BITMAP
0800
1C00
1C00
3C00
FF00
FF80
3800
3800
7BC0
7FE0
7FE0
78E3
70E6
3FFE
3FFC
1FF0
ENDCHAR
STARTCHAR uni046A
ENCODING 1130
SWIDTH 1234 0
DWIDTH 30 0
BBX 31 20 1 0
BITMAP
0FFFFFF8
0FFFFFF8
03E001E0
00E00380
00F00780
00700700
00700F00
00783E00
003FFC00
001FE000
007FF800
00F3BC00
01E79C00
01C79E00
03C70E00
43870F06
C787070E
FF0707FC
FE0703F8
7C0701F0
ENDCHAR
STARTCHAR uni046B
ENCODING 1131
SWIDTH 788 0
DWIDTH 19 0
BBX 22 20 0 0
BITMAP
000E00
000F00
001E00
001E00
001E00
003E00
003E00
003600
007600
03F6E0
07EFE0
03EFC0
00EF00
01EE00
01EE00
63FE0C
E7FF1C
FF7FF8
7E73F0
7871E0
ENDCHAR
STARTCHAR uni0472
ENCODING 1138
SWIDTH 816 0
DWIDTH 20 0
BBX 17 20 2 0
BITMAP
01F000
0FFC00
1FFE00
3C0F00
780780
780780
F00780
F00380
FF0380
FFFF80
FFFF80
E00780
E00780
E00700
E00F00
F01E00
783C00
7FF800
3FF000
0FC000
ENDCHAR
STARTCHAR uni0473
ENCODING 1139
SWIDTH 451 0
DWIDTH 11 0
BBX 13 11 1 0
BITMAP
1E00
3F00
7F80
E380
E1F8
FFF8
FFF0
E380
FF80
7F00
3C00
ENDCHAR
STARTCHAR uni0474
ENCODING 1140
SWIDTH 797 0
DWIDTH 19 0
BBX 21 20 3 0
BITMAP
7007F0
7007F8
F007F8
F00700
F00F00
F00F00
F00E00
E00E00
E01E00
E01C00
E01C00
E03C00
F03800
F07800
F07000
70E000
79E000
7FC000
3F8000
1E0000
ENDCHAR
STARTCHAR uni0475
ENCODING 1141
SWIDTH 420 0
DWIDTH 10 0
BBX 12 11 1 0
BITMAP
E1F0
E1F0
E380
E380
E700
E700
EE00
EE00
7C00
7C00
7000
ENDCHAR
STARTCHAR uni048A
ENCODING 1162
SWIDTH 890 0
DWIDTH 21 0
BBX 24 32 0 -5
BITMAP
0000C0
0060C0
0071C0
007F80
003F00
000000
000000
0F0070
3F8070
7F8070
E3C0F0
C380F0
8380F0
0380E0
0780E0
0781E0
0781E0
0701E0
0703E0
0F03C0
0F03C0
0E07C0
0E0DC1
0E1DC3
0FF9FF
07F1FE
03C07C
000038
000070
0000F0
0000E0
0000C0
ENDCHAR
STARTCHAR uni048B
ENCODING 1163
SWIDTH 462 0
DWIDTH 11 0
BBX 13 22 1 -4
BITMAP
0040
30E0
71C0
3FC0
3F00
0000
0000
31C0
7180
7380
7380
E380
E780
E708
EF18
FBB8
7BF0
73E0
01C0
0380
0700
0600
ENDCHAR
STARTCHAR uni048C
ENCODING 1164
SWIDTH 721 0
DWIDTH 17 0
BBX 16 20 1 0
BITMAP
0E00
1E00
7FC0
FFC0
1C00
1C00
3C00
3FF8
3FFE
FFFE
F80F
F80F
3807
380F
380F
380E
381E
3FFC
1FF8
07E0
ENDCHAR
STARTCHAR uni048D
ENCODING 1165
SWIDTH 517 0
DWIDTH 12 0
BBX 16 16 0 0
BITMAP
0800
1C00
1C00
3C00
FF00
FF80
3800
3800
7BC0
7FE0
7FE0
78E3
70E6
3FFE
3FFC
1FF0
ENDCHAR
STARTCHAR uni048E
ENCODING 1166
SWIDTH 805 0
DWIDTH 19 0
BBX 20 22 1 -2
BITMAP
00FE00
03FF80
07FFC0
0E03C0
1C01E0
38E1E0
38E1E0
70EFE0
71E7C0
61E3F0
E1C7F0
E5DF80
EFFE00
E7F800
E3C000
E3C000
E38000
E38000
778000
7F8000
3F0000
1E0000
ENDCHAR
STARTCHAR uni048F
ENCODING 1167
SWIDTH 481 0
DWIDTH 12 0
BBX 18 22 -3 -11
BITMAP
067000
0EF800
07FC00
071C00
071C00
063800
0EF8C0
0EF9C0
1EFF80
1FFF00
3FDE00
3E0000
6E0000
6E0000
6E0000
6E0000
CE0000
CC0000
CC0000
FC0000
F80000
700000
ENDCHAR
STARTCHAR uni0490
ENCODING 1168
SWIDTH 645 0
DWIDTH 15 0
BBX 20 26 1 0
BITMAP
000020
000030
000030
000070
000070
000070
07FFF0
3FFFE0
7FC000
F1C000
E3C000
E3C000
E38000
E38000
038000
078000
078000
070000
070000
070000
070000
0F0000
0F0000
0F0000
0F0000
0E0000
ENDCHAR
STARTCHAR uni0491
ENCODING 1169
SWIDTH 394 0
DWIDTH 9 0
BBX 9 15 1 0
BITMAP
0100
0180
0180
0380
3F80
7F00
7000
E000
E000
E000
E000
E000
E000
E000
6000
ENDCHAR
STARTCHAR uni0492
ENCODING 1170
SWIDTH 635 0
DWIDTH 15 0
BBX 20 20 1 0
BITMAP
07FFF0
3FFFE0
7FC000
F1C000
E3C000
E3C000
E38000
E38000
038000
1FF000
1FF000
078000
070000
070000
070000
0F0000
0F0000
0F0000
0F0000
0E0000
ENDCHAR
STARTCHAR uni0493
ENCODING 1171
SWIDTH 380 0
DWIDTH 9 0
BBX 12 11 0 0
BITMAP
1F00
7F80
7F80
0380
0F00
FE00
7F10
7070
7BE0
7FC0
3F00
ENDCHAR
STARTCHAR uni0494
ENCODING 1172
SWIDTH 884 0
DWIDTH 21 0
BBX 23 31 1 -11
BITMAP
07FFF0
3FFFE0
7FC000
F1C000
E3C000
E3C000
E38000
E38000
638000
078F80
07BFC0
07FFC0
07C1E0
0781E0
0701E6
0F01EE
0F01FE
0F01F8
0F01F0
0E03E0
0007C0
000F80
001F80
003B80
007780
006700
00E700
00EE00
00FE00
00FC00
007800
ENDCHAR
STARTCHAR uni0495
ENCODING 1173
SWIDTH 441 0
DWIDTH 11 0
BBX 12 18 1 -7
BITMAP
3E00
FF00
FF00
0700
0E00
3C00
7000
E030
FFF0
FFE0
7F80
0F00
3F00
7600
6600
7E00
7C00
7800
ENDCHAR
STARTCHAR uni0496
ENCODING 1174
SWIDTH 1234 0
DWIDTH 30 0
BBX 32 28 1 -8
BITMAP
0781C078
1FC1C1FC
1FE1C1FC
10E1C38C
00E1C780
0071C700
0073CF00
007BDE00
003FFC00
001FF000
007FF800
00F3BC00
01E79C00
01C79E00
03C70E00
C3870F00
E7870787
FF0707FE
FE0703FC
7C0700F8
000001F0
000007E0
00000F60
00001CE0
00001CE0
00001FC0
00001FC0
00000F00
ENDCHAR
STARTCHAR uni0497
ENCODING 1175
SWIDTH 803 0
DWIDTH 19 0
BBX 22 18 0 -7
BITMAP
1C6780
3EEFC0
3FEFC0
33FCC0
03D980
03F800
67F800
E7FC0C
FEFFFC
7CCFF0
78C7E0
0003C0
000F80
001D80
003B80
003F00
003F00
001C00
ENDCHAR
STARTCHAR uni0498
ENCODING 1176
SWIDTH 725 0
DWIDTH 17 0
BBX 16 28 1 -8
BITMAP
03F0
0FFC
1FFC
3C1E
381E
381E
181C
001C
0038
03F8
07FE
000E
000F
600F
F00E
F01E
703E
7FFC
3FF8
1FF0
03F0
0760
0EE0
1CE0
1CE0
1FC0
1F80
0F00
ENDCHAR
STARTCHAR uni0499
ENCODING 1177
SWIDTH 445 0
DWIDTH 11 0
BBX 12 18 1 -7
BITMAP
3F00
7F80
FF80
E380
0700
1C00
0F10
C3B0
FFF0
FFE0
7F80
0F00
3E00
7600
6600
7E00
7C00
3800
ENDCHAR
STARTCHAR uni049A
ENCODING 1178
SWIDTH 937 0
DWIDTH 22 0
BBX 24 28 1 -8
BITMAP
07F01C
1FF81C
3EF83C
707038
70F078
60F070
70F0F0
70E1E0
20E3C0
00FF80
03FE00
03FE00
01EF00
01E780
81C780
C1C3C0
E3C3E3
F781FF
7F80FE
3E007C
0001F0
0003F0
000770
000E70
000E70
000FE0
000FC0
000780
ENDCHAR
STARTCHAR uni049B
ENCODING 1179
SWIDTH 531 0
DWIDTH 13 0
BBX 14 18 1 -7
BITMAP
33C0
77E0
7FE0
6E60
FCE0
FC00
FC00
FC0C
FF5C
F7F8
63E0
03C0
07C0
0DC0
1980
1B80
1F00
1E00
ENDCHAR
STARTCHAR uni049C
ENCODING 1180
SWIDTH 937 0
DWIDTH 22 0
BBX 25 20 1 0
BITMAP
07F01C00
1FF81C00
3EF83C00
70703800
70F07800
60F47000
70FCF000
70EDE000
20EFC000
00FF8000
03FE0000
03FE0000
01EF0000
01FF8000
01DF8000
C1DBC180
E3DBE300
F781FF00
7F80FE00
3E007800
ENDCHAR
STARTCHAR uni049D
ENCODING 1181
SWIDTH 485 0
DWIDTH 12 0
BBX 14 11 1 0
BITMAP
31C0
73E0
77F0
6E60
FE60
F600
FE0C
FE1C
FFF8
F7F0
63E0
ENDCHAR
STARTCHAR uni049E
ENCODING 1182
SWIDTH 937 0
DWIDTH 22 0
BBX 25 20 1 0
BITMAP
07F01C00
1FF81C00
3EF83C00
70703800
70F07800
63FC7000
77FCF000
70F1E000
20E3C000
00FF8000
03FE0000
03FE0000
01EF0000
01E78000
01C78000
C1C3C180
E3C3E300
F781FF00
7F80FE00
3E007800
ENDCHAR
STARTCHAR uni049F
ENCODING 1183
SWIDTH 473 0
DWIDTH 11 0
BBX 13 20 1 0
BITMAP
1C00
1C00
1C00
3C00
FFC0
FFC0
3800
7800
7000
71C0
77E0
77E0
7E60
6C60
FC00
FC08
FE18
FFF8
77F0
63C0
ENDCHAR
STARTCHAR uni04A0
ENCODING 1184
SWIDTH 937 0
DWIDTH 22 0
BBX 25 20 1 0
BITMAP
00001C00
7FF81C00
7FF83C00
00703800
00F07800
00F07000
00F0F000
00E1E000
00E3C000
00FF8000
03FE0000
03FE0000
01EF0000
01E78000
01C78000
C1C3C180
E3C3E300
F781FF00
7F80FE00
3E007800
ENDCHAR
STARTCHAR uni04A1
ENCODING 1185
SWIDTH 555 0
DWIDTH 13 0
BBX 15 12 1 0
BITMAP
4000
FC70
FDF8
1DF8
1F98
1B18
3F00
3F02
3F86
3FFE
1DFC
18F0
ENDCHAR
STARTCHAR uni04A2
ENCODING 1186
SWIDTH 907 0
DWIDTH 22 0
BBX 25 29 0 -8
BITMAP
00003C00
0F007C00
3F80FE00
7F80E600
E381C600
C381C600
8381CC00
03838C00
0383B800
0383F000
03FFE000
3FFF8000
3FF78000
07078000
07078000
0F078000
0F038000
0E03C380
0E03FF80
0E01FE00
0C007C00
0000F800
0003F800
0007B000
000F7000
000E7000
000FE000
000FE000
00078000
ENDCHAR
STARTCHAR uni04A3
ENCODING 1187
SWIDTH 515 0
DWIDTH 12 0
BBX 14 18 1 -7
BITMAP
31C0
71C0
71C0
6380
FF80
FF80
E380
E38C
E3FC
E3F0
61E0
07C0
0F80
1D80
3B80
3F00
3F00
1C00
ENDCHAR
STARTCHAR uni04A4
ENCODING 1188
SWIDTH 873 0
DWIDTH 21 0
BBX 27 20 0 0
BITMAP
0F003FE0
3F807FE0
7F80F000
E380E000
C381E000
8381C000
0383C000
03838000
03838000
03838000
1FFF8000
3FFF8000
07078000
07078000
0F078000
0F038300
0E038700
0E03FE00
0E01FC00
0C00F800
ENDCHAR
STARTCHAR uni04A5
ENCODING 1189
SWIDTH 475 0
DWIDTH 11 0
BBX 14 12 1 0
BITMAP
0030
31F0
71C0
71C0
6380
FF80
FF80
E38C
E398
E3F8
E3F0
61C0
ENDCHAR
STARTCHAR uni04A8
ENCODING 1192
SWIDTH 997 0
DWIDTH 24 0
BBX 25 20 2 0
BITMAP
03C00000
0FC00000
1F87C000
3E1FF000
783FF800
78787800
F0703C00
F0F03C00
E0F01C00
E0E01C00
E0E01C00
E0E03C00
E0E03800
E0F07800
F0F07000
F079E000
783FC780
3FFFFF80
1FFFFE00
07FBF800
ENDCHAR
STARTCHAR uni04A9
ENCODING 1193
SWIDTH 574 0
DWIDTH 14 0
BBX 16 11 1 0
BITMAP
1C00
3DE0
73F0
E370
E730
E730
E773
E7E7
F7DE
7FFC
3FF0
ENDCHAR
STARTCHAR uni04AA
ENCODING 1194
SWIDTH 781 0
DWIDTH 19 0
BBX 19 31 2 -11
BITMAP
01F000
07FC00
1FFC00
3C1E00
380E00
780E00
F01E00
F00C00
E00000
E00000
E00000
E00000
E00000
E00000
F00000
F00620
781EE0
7FFFE0
3FFF80
0FEF00
001C00
007C00
00FC00
01D800
01B800
033800
073000
077000
07F000
07E000
03C000
ENDCHAR
STARTCHAR uni04AB
ENCODING 1195
SWIDTH 431 0
DWIDTH 10 0
BBX 12 18 1 -7
BITMAP
1E00
3F00
7F00
E700
E600
E000
E000
E030
FFF0
7FE0
3F80
0F00
3E00
7600
6600
EE00
FC00
7800
ENDCHAR
STARTCHAR uni04AC
ENCODING 1196
SWIDTH 697 0
DWIDTH 17 0
BBX 21 27 1 -7
BITMAP
03FFF0
3FFFF8
7FF1F0
E07000
E0F000
E0F000
E0E000
E0E000
00E000
01E000
01E000
01E000
01C000
01C000
01C000
01C000
03C000
03F000
03F000
01F000
03F000
076000
0E6000
1CE000
1CE000
1FC000
0F8000
ENDCHAR
STARTCHAR uni04AD
ENCODING 1197
SWIDTH 784 0
DWIDTH 19 0
BBX 20 18 1 -7
BITMAP
318700
77CF00
77DF00
6FBF00
F9E700
FBE600
F3CE00
F3CE30
F3CF70
E387E0
618780
000F00
001F00
003700
006600
007E00
007C00
003800
ENDCHAR
STARTCHAR uni04AE
ENCODING 1198
SWIDTH 677 0
DWIDTH 16 0
BBX 15 20 3 0
BITMAP
600E
F01E
703C
7838
3878
3CF0
3CE0
1DE0
1FC0
0FC0
0F80
0F00
0700
0700
0700
0700
0700
0F00
0F00
0600
ENDCHAR
STARTCHAR uni04AF
ENCODING 1199
SWIDTH 472 0
DWIDTH 11 0
BBX 14 19 1 -8
BITMAP
E1C0
E3C0
E3C0
63C0
73FC
73FC
77F8
7700
7E00
7C00
7800
7800
7800
3800
3800
3800
3800
3800
3800
ENDCHAR
STARTCHAR uni04B0
ENCODING 1200
SWIDTH 677 0
DWIDTH 16 0
BBX 15 20 3 0
BITMAP
600E
F01E
703C
7838
3878
3CF0
3CE0
1DE0
1FC0
0F80
0F80
0700
3FE0
3FE0
0700
0700
0700
0F00
0F00
0600
ENDCHAR
STARTCHAR uni04B1
ENCODING 1201
SWIDTH 472 0
DWIDTH 11 0
BBX 15 19 0 -8
BITMAP
70E0
71E0
71E0
31E0
39FE
39FE
3BFC
3B80
3F00
3E00
3C00
FF80
7F00
1C00
1C00
1C00
1C00
1C00
1C00
ENDCHAR
STARTCHAR uni04B2
ENCODING 1202
SWIDTH 716 0
DWIDTH 17 0
BBX 20 28 0 -8
BITMAP
1F01E0
3F83C0
7FC3C0
C3C780
81CF00
01FE00
01FC00
00F800
00F000
00F000
01F000
03F000
07F800
0F7800
1E3800
3C3C00
783C30
781FF0
F01FE0
E00780
001F00
003F00
00F700
00E700
01EE00
01FE00
00FC00
007800
ENDCHAR
STARTCHAR uni04B3
ENCODING 1203
SWIDTH 601 0
DWIDTH 14 0
BBX 17 18 0 -7
BITMAP
1E7800
3FF800
3FF800
339800
038000
038000
678000
E78180
FFDB80
7FFF00
79FC00
007800
01F800
03B000
033000
077000
07E000
03C000
ENDCHAR
STARTCHAR uni04B4
ENCODING 1204
SWIDTH 1040 0
DWIDTH 25 0
BBX 27 28 1 -8
BITMAP
07FF0C00
3FFF9E00
7FFF9E00
F0781C00
E0701C00
E0F01C00
E0F03C00
E0F03C00
40E03C00
00E03800
01E07800
01E07800
01C07800
01C0F800
01C0B800
03C1B800
01C37C20
01FE3EE0
01FE3FC0
00F80F80
00003E00
00007E00
0001EE00
0001CC00
00039C00
0003FC00
0003F800
0001F000
ENDCHAR
STARTCHAR uni04B5
ENCODING 1205
SWIDTH 501 0
DWIDTH 12 0
BBX 14 22 1 -7
BITMAP
1FC0
1FC0
0000
0000
31C0
7180
7380
7380
E380
E780
E700
EF08
FBBC
7BF8
71E0
0780
0F80
1980
3380
3F00
3E00
1C00
ENDCHAR
STARTCHAR uni04B6
ENCODING 1206
SWIDTH 804 0
DWIDTH 19 0
BBX 19 28 3 -8
BITMAP
700C00
701E00
701E00
701E00
701C00
F01C00
F01C00
F03C00
E03C00
E07C00
E07C00
F1DC00
FFF800
7F3800
003800
003800
003E60
003FE0
001FC0
000F80
001E00
007E00
00EE00
01CE00
01CC00
01FC00
01F800
00F000
ENDCHAR
STARTCHAR uni04B7
ENCODING 1207
SWIDTH 631 0
DWIDTH 15 0
BBX 18 20 0 -7
BITMAP
020000
070000
0FFC00
0DFC00
0DF800
1C7000
19C000
3B8000
738000
E380C0
C3FFC0
83FF00
01FE00
007800
00F800
019800
03B800
03F000
03E000
01C000
ENDCHAR
STARTCHAR uni04B8
ENCODING 1208
SWIDTH 773 0
DWIDTH 19 0
BBX 15 20 3 0
BITMAP
700C
701E
701E
701E
701C
F01C
F21C
F73C
E73C
E67C
E67C
F7DC
FFF8
7FB8
3E38
0E38
0C38
0038
0078
0030
ENDCHAR
STARTCHAR uni04B9
ENCODING 1209
SWIDTH 575 0
DWIDTH 14 0
BBX 17 14 0 0
BITMAP
004000
064000
0FC000
0FFC00
0DFC00
1D3800
1CF000
39E000
39C080
738180
E38780
C3FF00
01FE00
00F800
ENDCHAR
STARTCHAR uni04BA
ENCODING 1210
SWIDTH 755 0
DWIDTH 18 0
BBX 19 20 2 0
BITMAP
1C0000
3C0000
3C0000
3C0000
380000
380000
380000
380000
780000
79F800
77FC00
7FFC00
7C1E00
781E00
F01C00
F01C20
F01C60
E01FC0
E01F80
E01F00
ENDCHAR
STARTCHAR uni04BB
ENCODING 1211
SWIDTH 502 0
DWIDTH 12 0
BBX 14 22 1 0
BITMAP
0700
0F80
1F80
1980
3980
3980
3380
7300
7700
7600
7C00
7DC0
7BC0
F7C0
EFC0
EDC0
F9C0
FB8C
F39C
F3F8
F3F0
E1E0
ENDCHAR
STARTCHAR uni04BC
ENCODING 1212
SWIDTH 808 0
DWIDTH 19 0
BBX 21 20 1 0
BITMAP
003F00
00FF80
01FFC0
03C1C0
0781E0
0780E0
0F00E0
4F01E0
EE01C0
FFFFC0
7FFFC0
1E0000
1E0000
0E0000
0F0000
0F0000
078018
03FFF8
01FFF0
007F80
ENDCHAR
STARTCHAR uni04BD
ENCODING 1213
SWIDTH 483 0
DWIDTH 12 0
BBX 15 11 0 0
BITMAP
03C0
07E0
0FE0
1C60
1CE0
FDC0
FF86
3C0E
1FFC
0FF8
03E0
ENDCHAR
STARTCHAR uni04BE
ENCODING 1214
SWIDTH 808 0
DWIDTH 19 0
BBX 21 26 1 -6
BITMAP
003F00
00FF80
01FFC0
03C1C0
0781E0
0780E0
0F00E0
4F01E0
EE01C0
FFFFC0
7FFFC0
1E0000
1E0000
0E0000
0F0000
0F0000
078018
03FFF8
01FFF0
00FF80
01C000
018000
018000
01F800
01F800
00F000
ENDCHAR
STARTCHAR uni04BF
ENCODING 1215
SWIDTH 483 0
DWIDTH 12 0
BBX 15 17 0 -6
BITMAP
03C0
07E0
0FE0
1C60
1C60
DDE0
FFC6
7F0E
1E3C
0FF8
07F0
0180
0380
0300
0380
03F0
01F0
ENDCHAR
STARTCHAR uni04C0
ENCODING 1216
SWIDTH 495 0
DWIDTH 12 0
BBX 13 20 0 0
BITMAP
1FF8
3FF8
0FF0
0380
0380
0380
0780
0780
0700
0700
0700
0700
0F00
0F00
0E00
0E00
0E00
3FC0
FFE0
FFC0
ENDCHAR
STARTCHAR uni04C1
ENCODING 1217
SWIDTH 1234 0
DWIDTH 30 0
BBX 31 27 1 0
BITMAP
00020C00
00070C00
00071C00
0003F800
0001F000
00000000
00000000
0781C078
1FC1C1FC
1FE1C1FC
10E1C38C
00E1C780
0071C700
0073CF00
007BDE00
003FFC00
001FE000
007FF800
00F3BC00
01E79C00
01C79E00
03C70E00
43870F06
C787070E
FF0707FC
FE0703F8
7C0701F0
ENDCHAR
STARTCHAR uni04C2
ENCODING 1218
SWIDTH 717 0
DWIDTH 17 0
BBX 20 19 0 0
BITMAP
000200
010600
038E00
03FC00
03F800
01F000
000000
000000
1C6780
3EEFC0
3FEFC0
33FCC0
03D980
03F800
67F830
E7FC70
FEFFE0
7CCFE0
78C780
ENDCHAR
STARTCHAR uni04C3
ENCODING 1219
SWIDTH 937 0
DWIDTH 22 0
BBX 24 28 1 -8
BITMAP
07F01C
1FF81C
3EF83C
707038
70F078
60F070
70F0F0
70E1E0
20E3C0
00FF80
03FE00
03FE00
01EF00
01E780
81C780
C1C3C0
E3C3E3
F781FF
7F80FE
3E007C
0001F0
0003F0
000770
000E70
000E70
000FE0
000FC0
000780
ENDCHAR
STARTCHAR uni04C4
ENCODING 1220
SWIDTH 531 0
DWIDTH 13 0
BBX 14 18 1 -7
BITMAP
33C0
77E0
7FE0
6E60
FCE0
FC00
FC00
FC0C
FF5C
F7F8
63E0
03C0
07C0
0DC0
1980
1B80
1F00
1E00
ENDCHAR
STARTCHAR uni04C5
ENCODING 1221
SWIDTH 861 0
DWIDTH 21 0
BBX 24 25 0 -5
BITMAP
000380
000780
000780
000F80
000F80
000F80
001F80
001F80
001F80
003B80
003B80
007B80
007380
007380
00E380
E1E383
E3C3C7
7F81FE
7F81FC
3E0078
000070
0000E0
0000E0
0001C0
000180
ENDCHAR
STARTCHAR uni04C6
ENCODING 1222
SWIDTH 549 0
DWIDTH 13 0
BBX 16 15 0 -4
BITMAP
00E0
01E0
01E0
03E0
03E0
67E0
E6E3
EEE7
FCFE
FC7C
7078
0070
0070
00E0
00C0
ENDCHAR
STARTCHAR uni04C7
ENCODING 1223
SWIDTH 907 0
DWIDTH 22 0
BBX 25 29 0 -8
BITMAP
00003C00
0F007C00
3F80FE00
7F80E600
E381C600
C381C600
8381CC00
03838C00
0383B800
0383F000
03FFE000
3FFF8000
3FF78000
07078000
07078000
0F078000
0F038000
0E03C380
0E03FF80
0E01FE00
0C007C00
0000F800
0003F800
0007B000
000F7000
000E7000
000FE000
000FE000
00078000
ENDCHAR
STARTCHAR uni04C8
ENCODING 1224
SWIDTH 515 0
DWIDTH 12 0
BBX 14 18 1 -7
BITMAP
31C0
71C0
71C0
6380
FF80
FF80
E380
E38C
E3FC
E3F0
61E0
07C0
0F80
1D80
3B80
3F00
3F00
1C00
ENDCHAR
STARTCHAR uni04C9
ENCODING 1225
SWIDTH 873 0
DWIDTH 21 0
BBX 24 26 0 -5
BITMAP
00003C
0F007C
3F80FE
7F80E6
E381C6
C381C6
8381CC
03838C
0383B8
0383F0
03FFE0
3FFF80
3FF780
070780
070780
0F0781
0F0383
0E03C7
0E03FE
0E01FC
0C00F8
000070
0000F0
0000E0
0001C0
0001C0
ENDCHAR
STARTCHAR uni04CA
ENCODING 1226
SWIDTH 475 0
DWIDTH 11 0
BBX 14 15 1 -4
BITMAP
31C0
71C0
71C0
6380
FF80
FF80
E38C
E398
E3F8
E3F0
61E0
01C0
0380
0700
0300
ENDCHAR
STARTCHAR uni04CB
ENCODING 1227
SWIDTH 773 0
DWIDTH 19 0
BBX 15 28 3 -8
BITMAP
700C
701E
701E
701E
701C
F01C
F01C
E03C
E03C
E07C
E0FC
FFDC
7FB8
3F38
0038
0038
0038
00F8
00F8
03F0
07C0
1FC0
3DC0
3980
7B80
7F80
3F00
1E00
ENDCHAR
STARTCHAR uni04CC
ENCODING 1228
SWIDTH 555 0
DWIDTH 13 0
BBX 16 15 0 -2
BITMAP
0700
0F00
0FFC
0DFC
1C78
1CF0
39C0
3381
7383
E387
C3FF
83FC
01F8
0018
0018
ENDCHAR
STARTCHAR uni04CD
ENCODING 1229
SWIDTH 1133 0
DWIDTH 27 0
BBX 30 25 0 -5
BITMAP
001C0700
003E0F00
003E0F00
003E1F00
003E1F00
003E3F00
007E3F00
007E3700
007E7700
006E7700
00EEE700
00EEEF00
00EEEF00
00CFC700
01CFC700
E1CF8704
E387870C
FF8787FC
7F0703F8
3E0301F0
000001E0
000001C0
00000380
00000780
00000300
ENDCHAR
STARTCHAR uni04CE
ENCODING 1230
SWIDTH 734 0
DWIDTH 18 0
BBX 21 15 0 -4
BITMAP
01C700
03CF00
03CF00
03DF00
07DB00
66FB00
E6F718
EEF738
FCF7F0
FCE3E0
7863C0
000380
000700
000700
000600
ENDCHAR
STARTCHAR uni04CF
ENCODING 1231
SWIDTH 222 0
DWIDTH 5 0
BBX 6 19 1 0
BITMAP
1C
1C
38
38
38
38
38
70
70
70
70
70
F0
E0
E0
E0
E0
E0
E0
ENDCHAR
STARTCHAR uni04D0
ENCODING 1232
SWIDTH 786 0
DWIDTH 19 0
BBX 21 27 1 0
BITMAP
002060
0070E0
0039C0
003F80
001F00
000000
000000
003FC0
01FFE0
03FFE0
0F8000
1F0700
1E0780
3C0700
380700
780F00
700F00
700E00
F00E00
F01E00
F01E00
F03E00
703E18
787E38
7FEFF0
3FCFE0
0F87C0
ENDCHAR
STARTCHAR uni04D1
ENCODING 1233
SWIDTH 470 0
DWIDTH 11 0
BBX 13 19 1 0
BITMAP
0020
1060
38E0
3FC0
3F80
1F00
0000
0000
0E00
3F80
7F80
7380
F380
E380
E388
E798
FFF8
FFF0
79C0
ENDCHAR
STARTCHAR uni04D2
ENCODING 1234
SWIDTH 786 0
DWIDTH 19 0
BBX 21 26 1 0
BITMAP
0039C0
007BC0
007BC0
003180
000000
000000
003FC0
01FFE0
03FFE0
0F8000
1F0700
1E0780
3C0700
380700
780F00
700F00
700E00
F00E00
F01E00
F01E00
F03E00
703E18
787E38
7FEFF0
3FCFE0
0F87C0
ENDCHAR
STARTCHAR uni04D3
ENCODING 1235
SWIDTH 470 0
DWIDTH 11 0
BBX 13 17 1 0
BITMAP
1CE0
3DE0
3DE0
18C0
0000
0000
0E00
3F80
7F80
7380
F380
E380
E388
E798
FFF8
FFF0
79C0
ENDCHAR
STARTCHAR uni04D4
ENCODING 1236
SWIDTH 1015 0
DWIDTH 24 0
BBX 26 20 1 0
BITMAP
0078FF80
01F9FF80
07FBFE00
0F838000
1F038000
1E078000
3C078000
78070000
78070000
700FFE00
700FFE00
F00FFC00
F01E0000
F01E0000
F03E0000
703F0000
787F00C0
7FE7FFC0
3FC3FF80
0F80FE00
ENDCHAR
STARTCHAR uni04D5
ENCODING 1237
SWIDTH 653 0
DWIDTH 16 0
BBX 18 11 1 0
BITMAP
0F7800
3FFC00
7FFE00
71CC00
E38C00
E3BC00
E3F0C0
E781C0
FFFF80
FDFF00
787C00
ENDCHAR
STARTCHAR uni04D6
ENCODING 1238
SWIDTH 686 0
DWIDTH 16 0
BBX 18 27 1 0
BITMAP
010300
038700
01CE00
01FC00
00F800
000000
000000
01F800
07FE00
1FFF00
1E0700
3C0700
3C0700
3C0700
3C0600
1FC000
07E000
3FC000
7C0000
F00000
F00000
E00000
F00000
F001C0
7FFFC0
3FFF80
0FFC00
ENDCHAR
STARTCHAR uni04D7
ENCODING 1239
SWIDTH 393 0
DWIDTH 9 0
BBX 12 19 1 0
BITMAP
0040
20C0
71C0
7F80
7F00
3E00
0000
0000
1E00
3F00
7F00
E300
E700
EE00
FC30
E0E0
FFE0
7FC0
3F00
ENDCHAR
STARTCHAR uni04D8
ENCODING 1240
SWIDTH 792 0
DWIDTH 19 0
BBX 18 20 1 0
BITMAP
03F800
0FFE00
1FFF00
3C0F00
300780
000380
000380
0003C0
0003C0
3FFFC0
7FFF80
FFFF80
F00780
F00780
700700
780F00
781E00
3FFC00
1FF800
07E000
ENDCHAR
STARTCHAR uni04D9
ENCODING 1241
SWIDTH 455 0
DWIDTH 11 0
BBX 13 11 1 0
BITMAP
3E00
7F80
7F80
03C8
FFF8
FFF8
C1C0
C380
FF80
FF00
7E00
ENDCHAR
STARTCHAR uni04DA
ENCODING 1242
SWIDTH 792 0
DWIDTH 19 0
BBX 18 26 1 0
BITMAP
039C00
03DC00
039C00
039C00
000000
000000
03F800
0FFE00
1FFF00
3C0F00
300780
000380
000380
0003C0
0003C0
3FFFC0
7FFF80
FFFF80
F00780
F00780
700700
780F00
781E00
3FFC00
1FF800
07E000
ENDCHAR
STARTCHAR uni04DB
ENCODING 1243
SWIDTH 455 0
DWIDTH 11 0
BBX 13 17 1 0
BITMAP
3180
7BC0
7BC0
3180
0000
0000
3E00
7F80
7F80
03C8
FFF8
FFF8
C1C0
C380
FF80
FF00
7E00
ENDCHAR
STARTCHAR uni04DC
ENCODING 1244
SWIDTH 1234 0
DWIDTH 30 0
BBX 31 26 1 0
BITMAP
00031800
0007BC00
0007B800
00073800
00000000
00000000
0781C078
1FC1C1FC
1FE1C1FC
10E1C38C
00E1C780
0071C700
0073CF00
007BDE00
003FFC00
001FE000
007FF800
00F3BC00
01E79C00
01C79E00
03C70E00
43870F06
C787070E
FF0707FC
FE0703F8
7C0701F0
ENDCHAR
STARTCHAR uni04DD
ENCODING 1245
SWIDTH 717 0
DWIDTH 17 0
BBX 20 17 0 0
BITMAP
01CE00
03DE00
03DE00
018C00
000000
000000
1C6780
3EEFC0
3FEFC0
33FCC0
03D980
03F800
67F830
E7FC70
FEFFE0
7CCFE0
78C780
ENDCHAR
STARTCHAR uni04DE
ENCODING 1246
SWIDTH 725 0
DWIDTH 17 0
BBX 16 26 1 0
BITMAP
039C
039C
039C
039C
0000
0000
03F0
0FFC
1FFC
3C1E
381E
381E
181C
001C
0038
03F8
07FE
000E
000F
600F
F00E
F01E
703E
7FFC
3FF0
0FC0
ENDCHAR
STARTCHAR uni04DF
ENCODING 1247
SWIDTH 435 0
DWIDTH 10 0
BBX 14 28 -1 -11
BITMAP
1CE0
1CE0
1CE0
1CC0
0000
0000
0F80
1FC0
1FE0
00E0
00C0
01C0
0784
1E1C
383C
1EF0
07C0
0780
0F80
1F80
3B80
7300
6700
E700
CE00
FE00
FC00
7800
ENDCHAR
STARTCHAR uni04E0
ENCODING 1248
SWIDTH 744 0
DWIDTH 18 0
BBX 17 20 1 0
BITMAP
07FE00
1FFF80
1FFF80
380F00
380E00
381E00
1C1C00
003C00
007800
03F800
07FE00
000E00
000F00
600F00
F00E00
F01E00
703E00
7FFC00
3FF000
0FC000
ENDCHAR
STARTCHAR uni04E1
ENCODING 1249
SWIDTH 435 0
DWIDTH 10 0
BBX 14 22 -1 -11
BITMAP
3FF0
3FF0
01F0
03C0
0F00
0E00
1C0C
383C
3E78
1FE0
07C0
0780
0F80
1F80
3380
7300
6700
E700
CE00
FE00
FC00
7800
ENDCHAR
STARTCHAR uni04E2
ENCODING 1250
SWIDTH 890 0
DWIDTH 21 0
BBX 24 25 0 0
BITMAP
003F00
007F80
007F00
000000
000000
0F0070
3F8070
7F8070
E3C0F0
C380F0
8380F0
0380E0
0780E0
0781E0
0781E0
0701E0
0703E0
0F03C0
0F07C0
0E07C0
0E0DC1
0F1DE7
0FF9FF
07F1FE
03C078
ENDCHAR
STARTCHAR uni04E3
ENCODING 1251
SWIDTH 462 0
DWIDTH 11 0
BBX 13 16 1 0
BITMAP
1F80
3FC0
3FC0
0000
0000
31C0
7180
7380
7380
E380
E780
E708
EF18
FBF8
7BF0
73C0
ENDCHAR
STARTCHAR uni04E4
ENCODING 1252
SWIDTH 890 0
DWIDTH 21 0
BBX 24 26 0 0
BITMAP
007380
007380
007380
007380
000000
000000
0F0070
3F8070
7F8070
E3C0F0
C380F0
8380F0
0380E0
0780E0
0781E0
0781E0
0701E0
0703E0
0F03C0
0F07C0
0E07C0
0E0DC1
0F1DE7
0FF9FF
07F1FE
03C078
ENDCHAR
STARTCHAR uni04E5
ENCODING 1253
SWIDTH 462 0
DWIDTH 11 0
BBX 13 17 1 0
BITMAP
18C0
3DE0
3DE0
39C0
0000
0000
31C0
7180
7380
7380
E380
E780
E708
EF18
FBF8
7BF0
73C0
ENDCHAR
STARTCHAR uni04E6
ENCODING 1254
SWIDTH 816 0
DWIDTH 20 0
BBX 17 26 2 0
BITMAP
039C00
039C00
039C00
039C00
000000
000000
01F000
0FFC00
1FFE00
3C0F00
780780
780780
F00780
F00380
E00380
E00380
E00780
E00780
E00780
E00700
F00F00
F01E00
783C00
7FF800
3FF000
0FC000
ENDCHAR
STARTCHAR uni04E7
ENCODING 1255
SWIDTH 451 0
DWIDTH 11 0
BBX 13 17 1 0
BITMAP
3180
7BC0
7BC0
3180
0000
0000
1E00
3F00
7F80
E780
E7F8
E3F8
E3C0
E380
FF00
7F00
3C00
ENDCHAR
STARTCHAR uni04E8
ENCODING 1256
SWIDTH 816 0
DWIDTH 20 0
BBX 17 20 2 0
BITMAP
01F000
0FFC00
1FFE00
3C0F00
780780
780780
F00780
F00380
E00380
FFFF80
FFFF80
E00780
E00780
E00700
E00F00
F00E00
781C00
7FF800
3FF000
0FC000
ENDCHAR
STARTCHAR uni04E9
ENCODING 1257
SWIDTH 451 0
DWIDTH 11 0
BBX 13 11 1 0
BITMAP
1E00
3F00
7F80
E388
FFF8
FFF8
E380
E380
FF00
7F00
3C00
ENDCHAR
STARTCHAR uni04EA
ENCODING 1258
SWIDTH 816 0
DWIDTH 20 0
BBX 17 26 2 0
BITMAP
039C00
039C00
039C00
039C00
000000
000000
01F000
0FFC00
1FFE00
3C0F00
780780
780780
F00780
F00380
E00380
FFFF80
FFFF80
E00780
E00780
E00700
E00F00
F00E00
781C00
7FF800
3FF000
0FC000
ENDCHAR
STARTCHAR uni04EB
ENCODING 1259
SWIDTH 451 0
DWIDTH 11 0
BBX 13 17 1 0
BITMAP
3180
7BC0
7BC0
3180
0000
0000
1E00
3F00
7F80
E388
FFF8
FFF8
E380
E380
FF00
7F00
3C00
ENDCHAR
STARTCHAR uni04EC
ENCODING 1260
SWIDTH 755 0
DWIDTH 18 0
BBX 17 26 1 0
BITMAP
039C00
039C00
039C00
039C00
000000
000000
07F000
1FFC00
3FFE00
781E00
600F00
000700
000780
000780
000780
0FFF80
0FFF80
000700
000700
600F00
E00E00
E01E00
E03C00
FFF800
7FF000
1FC000
ENDCHAR
STARTCHAR uni04ED
ENCODING 1261
SWIDTH 466 0
DWIDTH 11 0
BBX 13 17 1 0
BITMAP
39C0
39C0
39C0
39C0
0000
0000
3F00
7F80
7F80
01C8
0FF8
1FF8
C1C0
C3C0
FF80
FF00
3E00
ENDCHAR
STARTCHAR uni04EE
ENCODING 1262
SWIDTH 824 0
DWIDTH 20 0
BBX 22 30 1 -5
BITMAP
007E00
00FF00
00FE00
000000
000000
1E00E0
7F00E0
FF01E0
C701E0
8701E0
0701C0
0F03C0
0F03C0
0E07C0
0E0FC0
0E1FC0
0FFB80
07F380
03E3BC
0003FC
001FF8
007F80
01E700
03C700
070700
070F00
070E00
071C00
07FC00
03F000
ENDCHAR
STARTCHAR uni04EF
ENCODING 1263
SWIDTH 479 0
DWIDTH 12 0
BBX 14 27 0 -11
BITMAP
0FC0
1FE0
1FE0
0000
0000
18E0
38C0
39C0
39C0
71C0
73C0
73CC
779C
7FB8
3DF0
3BC0
0380
0F80
1F00
3B00
7700
6700
C600
CE00
FC00
FC00
7000
ENDCHAR
STARTCHAR uni04F0
ENCODING 1264
SWIDTH 824 0
DWIDTH 20 0
BBX 22 31 1 -5
BITMAP
00E700
00E700
00E700
00E700
000000
000000
1E00E0
7F00E0
FF01E0
C701E0
8701E0
0701C0
0F03C0
0F03C0
0E07C0
0E0FC0
0E1FC0
0FFB80
07F380
03E3BC
0003FC
001FF8
007F80
01E700
03C700
070700
070F00
070E00
071C00
07FC00
03F000
ENDCHAR
STARTCHAR uni04F1
ENCODING 1265
SWIDTH 479 0
DWIDTH 12 0
BBX 14 28 0 -11
BITMAP
0C60
1EF0
1EF0
1CE0
0000
0000
18E0
38C0
39C0
39C0
71C0
73C0
73CC
779C
7FB8
3DF0
3BC0
0380
0F80
1F00
3B00
7700
6700
C600
CE00
FC00
FC00
7000
ENDCHAR
STARTCHAR uni04F2
ENCODING 1266
SWIDTH 824 0
DWIDTH 20 0
BBX 22 33 1 -5
BITMAP
002100
003380
007380
007700
006600
004600
000000
000000
1E00E0
7F00E0
FF01E0
C701E0
8701E0
0701C0
0F03C0
0F03C0
0E07C0
0E0FC0
0E1FC0
0FFB80
07F380
03E3BC
0003FC
001FF8
007F80
01E700
03C700
070700
070F00
070E00
071C00
07FC00
03F000
ENDCHAR
STARTCHAR uni04F3
ENCODING 1267
SWIDTH 479 0
DWIDTH 12 0
BBX 14 31 0 -11
BITMAP
0338
03B8
0738
0770
0660
0C60
0CC0
0000
0000
18E0
38C0
39C0
39C0
71C0
73C0
73CC
779C
7FB8
3DF0
3BC0
0380
0F80
1F00
3B00
7700
6700
C600
CE00
FC00
FC00
7000
ENDCHAR
STARTCHAR uni04F4
ENCODING 1268
SWIDTH 773 0
DWIDTH 19 0
BBX 15 26 3 0
BITMAP
0E70
0E70
0E70
0E70
0000
0000
700C
701E
701E
701E
701C
F01C
F01C
E03C
E03C
E07C
E0FC
FFDC
7FB8
3F38
0038
0038
0038
0078
0078
0030
ENDCHAR
STARTCHAR uni04F5
ENCODING 1269
SWIDTH 555 0
DWIDTH 13 0
BBX 16 17 0 0
BITMAP
018C
03DE
03DE
018C
0700
0F00
0FFC
0DFC
1C78
1CF0
39C0
3381
7383
E387
C3FF
83FC
01F0
ENDCHAR
STARTCHAR uni04F6
ENCODING 1270
SWIDTH 600 0
DWIDTH 14 0
BBX 20 27 1 -7
BITMAP
07FFF0
3FFFE0
7FC000
F1C000
E3C000
E3C000
E38000
E38000
078000
078000
078000
070000
070000
070000
0F0000
0F0000
0F0000
0FC000
0FC000
07C000
0F8000
3D8000
3B8000
738000
770000
7F0000
7E0000
ENDCHAR
STARTCHAR uni04F7
ENCODING 1271
SWIDTH 441 0
DWIDTH 11 0
BBX 12 18 1 -7
BITMAP
3E00
FF00
FF00
0700
0E00
3C00
7000
E030
FFF0
FFE0
7F80
0F00
3F00
7600
6600
7E00
7C00
7800
ENDCHAR
STARTCHAR uni04F8
ENCODING 1272
SWIDTH 1078 0
DWIDTH 26 0
BBX 24 26 1 0
BITMAP
001CE0
003DE0
003DE0
0018C0
000000
000000
0E0007
0E0007
1E0007
1E000F
1C000F
1C000F
3C000E
3FF80E
3FFE0E
FFFE0E
F80F1E
F80F1E
38071C
380F1C
380F1C
380E3C
381E3C
3FFC3C
1FF83C
07E038
ENDCHAR
STARTCHAR uni04F9
ENCODING 1273
SWIDTH 702 0
DWIDTH 17 0
BBX 19 17 1 0
BITMAP
031800
07BC00
073800
073800
000000
000000
300E00
700E00
700E00
771E00
FFBC00
FFFC00
F1FC60
E1FCE0
7FDFC0
7F8F80
3E0F00
ENDCHAR
STARTCHAR uni04FA
ENCODING 1274
SWIDTH 635 0
DWIDTH 15 0
BBX 23 29 -2 -9
BITMAP
00FFFE
07FFFC
0FF800
1E3800
1C7800
1C7800
1C7000
1C7000
007000
03FE00
03FE00
00F000
00E000
00E000
00E000
00E000
01E000
01E000
01E000
01C000
01C000
03C000
03C000
038000
638000
F70000
7F0000
7E0000
180000
ENDCHAR
STARTCHAR uni04FB
ENCODING 1275
SWIDTH 441 0
DWIDTH 11 0
BBX 13 18 0 -7
BITMAP
1F00
7F80
7F80
0380
0F00
FE00
7F00
7018
7BF8
7FF0
3FC0
0780
1F80
3B00
3300
3F00
3E00
3C00
ENDCHAR
STARTCHAR uni04FC
ENCODING 1276
SWIDTH 716 0
DWIDTH 17 0
BBX 20 28 0 -8
BITMAP
1F01E0
3F83C0
7FC3C0
C3C780
81CF00
01FE00
01FC00
00F800
00F000
00F000
01F000
03F000
07F800
0F7800
1E3800
3C3C00
783C30
781FF0
F01FE0
E00780
001F00
003F00
00F700
00E700
01EE00
01FE00
00FC00
007800
ENDCHAR
STARTCHAR uni04FD
ENCODING 1277
SWIDTH 601 0
DWIDTH 14 0
BBX 17 18 0 -7
BITMAP
1E7800
3FF800
3FF800
339800
038000
038000
678000
E78180
FFDB80
7FFF00
79FC00
007800
01F800
03B000
033000
077000
07E000
03C000
ENDCHAR
STARTCHAR uni04FE
ENCODING 1278
SWIDTH 712 0
DWIDTH 17 0
BBX 20 20 0 0
BITMAP
1F01E0
3F83C0
7FC380
C3C780
81CF00
01FE00
00FC00
00F800
0FFE00
0FFF00
01F000
03F000
07F000
0F7800
1E3800
3C3810
7C3C30
781EF0
F01FC0
E00780
ENDCHAR
STARTCHAR uni04FF
ENCODING 1279
SWIDTH 529 0
DWIDTH 13 0
BBX 16 11 0 0
BITMAP
1E78
3FF8
3FF8
3398
0FE0
2FE1
6783
E787
FFFE
7DFC
78F0
ENDCHAR
STARTCHAR uni0510
ENCODING 1296
SWIDTH 706 0
DWIDTH 17 0
BBX 15 20 1 0
BITMAP
03F0
0FFC
1FFE
1C1E
1C0E
1C0E
1C0C
1C00
0E00
1FE0
3FE0
7000
F000
F00E
F00E
F00E
781E
7FFC
3FF8
0FE0
ENDCHAR
STARTCHAR uni0511
ENCODING 1297
SWIDTH 392 0
DWIDTH 9 0
BBX 12 11 0 0
BITMAP
1F00
3F80
3F80
3000
3E00
3E00
7C30
F070
7FF0
7FC0
3F00
ENDCHAR
STARTCHAR uni0512
ENCODING 1298
SWIDTH 884 0
DWIDTH 21 0
BBX 24 28 0 -8
BITMAP
000380
000780
000780
000F80
000F80
000F80
001F80
001F80
001F80
003B80
003B80
007B80
007380
007380
00E380
E1E380
E3C3C3
7F81FF
7F81FE
3E007C
0001F0
0003F0
000770
000E70
000E60
000FE0
000FC0
000780
ENDCHAR
STARTCHAR uni0513
ENCODING 1299
SWIDTH 631 0
DWIDTH 15 0
BBX 18 18 0 -7
BITMAP
00E000
01E000
01E000
03E000
03E000
27E000
E7E000
EEE0C0
FCFFC0
FCFF80
787E00
003800
00F800
01D800
03B800
033000
03F000
03E000
ENDCHAR
STARTCHAR uni051A
ENCODING 1306
SWIDTH 816 0
DWIDTH 20 0
BBX 19 28 2 -8
BITMAP
01F000
0FFC00
1FFE00
3C0F00
380780
780780
F00780
F00380
E00380
E00380
E00780
E00780
E00780
E00700
E00F00
F01E00
783E00
7FFC00
3FF000
0FC000
01E000
00F000
00F020
007060
0078E0
003FC0
003F80
000400
ENDCHAR
STARTCHAR uni051B
ENCODING 1307
SWIDTH 500 0
DWIDTH 12 0
BBX 14 22 1 -10
BITMAP
00C0
0FC0
3FC0
7FC0
7380
F380
E380
E3BC
E77C
FF7C
FF60
7760
0760
0760
0E60
0E60
0E60
0E60
07C0
07C0
07C0
0300
ENDCHAR
STARTCHAR uni051C
ENCODING 1308
SWIDTH 1217 0
DWIDTH 29 0
BBX 30 20 3 0
BITMAP
700E0780
700E0FC0
F00E0FE0
F01E1CE0
F01E1CE0
F01E1CE0
E01E1CE0
E03E1DC0
E03E0FC0
E03E07F8
E03E03FC
E07E03F8
E06E0700
E0EE0700
F0EE0E00
F1CE1E00
738F3C00
7F87F800
3F07F000
1E03C000
ENDCHAR
STARTCHAR uni051D
ENCODING 1309
SWIDTH 700 0
DWIDTH 17 0
BBX 19 11 1 0
BITMAP
E18600
E38F00
E39E00
E79E00
E78FE0
E79FE0
EDB800
EDB800
7DF000
79E000
70C000
ENDCHAR
STARTCHAR uni0524
ENCODING 1316
SWIDTH 892 0
DWIDTH 21 0
BBX 24 28 1 -8
BITMAP
03FFF8
3FFFFF
7FC0FE
F1C0E0
E1C0E0
E3C1E0
E3C1E0
E381E0
0381C0
0381C0
0783C0
0783C0
078380
070380
070380
070380
0F03F6
0F03FE
0F00FC
0600F8
0003E0
0007E0
000EE0
001CE0
001CE0
001FC0
001F80
000F00
ENDCHAR
STARTCHAR uni0525
ENCODING 1317
SWIDTH 536 0
DWIDTH 13 0
BBX 14 18 1 -7
BITMAP
31C0
73C0
77C0
6FC0
EDC0
F980
F380
F38C
F3DC
E1F8
60E0
03C0
07C0
0DC0
1980
1F80
1F00
0E00
ENDCHAR
STARTCHAR uni0526
ENCODING 1318
SWIDTH 818 0
DWIDTH 20 0
BBX 21 28 2 -8
BITMAP
1C0000
1C0000
1C0000
3C0000
3C0000
380000
380000
380000
780000
79F800
7BFC00
77FC00
7C1E00
781E00
F01C00
F01C00
F01FB8
E01FF0
E01FE0
E007C0
001F80
003F00
007B00
00E700
00E700
00FE00
00FE00
007800
ENDCHAR
STARTCHAR uni0527
ENCODING 1319
SWIDTH 542 0
DWIDTH 13 0
BBX 14 29 1 -7
BITMAP
0780
0F80
1D80
1980
3980
3980
3380
7300
7700
7600
7C00
79C0
7BC0
F7C0
EFC0
EDC0
F9C0
FB80
F384
F3DC
F1F8
E0F0
03C0
07C0
0DC0
1980
1F80
1F00
0E00
ENDCHAR
STARTCHAR uni0528
ENCODING 1320
SWIDTH 873 0
DWIDTH 21 0
BBX 27 29 -3 -8
BITMAP
00000780
01E00F80
07F00FC0
0FF01CC0
1C7038C0
187038C0
10703980
00707180
00707300
00707F00
00707C00
03FFF800
07FFF000
00E0F000
00E0F000
00E0F000
01E07060
01E070E0
01C07FC0
01C03F80
01C01F00
03C00000
03800000
03800000
07800000
E7000000
FF000000
7E000000
7C000000
ENDCHAR
STARTCHAR uni0529
ENCODING 1321
SWIDTH 475 0
DWIDTH 11 0
BBX 18 18 -3 -7
BITMAP
031C00
071C00
071C00
063800
0FF800
0FF800
0E38C0
0E3980
0E3F80
0E3F00
0E1C00
0E0000
0E0000
0E0000
6E0000
FE0000
7C0000
380000
ENDCHAR
STARTCHAR uni052E
ENCODING 1326
SWIDTH 884 0
DWIDTH 21 0
BBX 24 28 0 -8
BITMAP
000380
000780
000780
000F80
000F80
000F80
001F80
001F80
001F80
003B80
003B80
007B80
007380
007380
00E380
E1E380
E3C3C3
7F81FF
7F81FE
3E007C
0001F0
0003F0
000770
000E70
000E60
000FE0
000FC0
000780
ENDCHAR
STARTCHAR uni052F
ENCODING 1327
SWIDTH 631 0
DWIDTH 15 0
BBX 18 18 0 -7
BITMAP
00E000
01E000
01E000
03E000
03E000
27E000
E7E000
EEE0C0
FCFFC0
FCFF80
787E00
003800
00F800
01D800
03B800
033000
03F000
03E000
ENDCHAR
STARTCHAR Wgrave
ENCODING 7808
SWIDTH 1217 0
DWIDTH 29 0
BBX 30 28 3 0
BITMAP
00800000
01E00000
01F00000
00F80000
003C0000
000E0000
00000000
00000000
700E0780
700E0FC0
F00E0FE0
F01E1CE0
F01E1CE0
F01E1CE0
E01E1CE0
E03E1DC0
E03E0FC0
E03E07F8
E03E03FC
E07E03F8
E06E0700
E0EE0700
F0EE0E00
F1CE1E00
738F3C00
7F87F800
3F07F000
1E03C000
ENDCHAR
STARTCHAR wgrave
ENCODING 7809
SWIDTH 700 0
DWIDTH 17 0
BBX 19 20 1 0
BITMAP
0C0000
0E0000
0E0000
070000
030000
038000
018000
000000
000000
E18600
E38F00
E39E00
E79E00
E78FE0
E79FE0
EDB800
EDB800
7DF000
79E000
70C000
ENDCHAR
STARTCHAR Wacute
ENCODING 7810
SWIDTH 1217 0
DWIDTH 29 0
BBX 30 28 3 0
BITMAP
00002000
00007000
0000F000
0003E000
00078000
00060000
00000000
00000000
700E0780
700E0FC0
F00E0FE0
F01E1CE0
F01E1CE0
F01E1CE0
E01E1CE0
E03E1DC0
E03E0FC0
E03E07F8
E03E03FC
E07E03F8
E06E0700
E0EE0700
F0EE0E00
F1CE1E00
738F3C00
7F87F800
3F07F000
1E03C000
ENDCHAR
STARTCHAR wacute
ENCODING 7811
SWIDTH 700 0
DWIDTH 17 0
BBX 19 20 1 0
BITMAP
003000
007800
007000
00E000
00E000
00C000
018000
000000
000000
E18600
E38F00
E39E00
E79E00
E78FE0
E79FE0
EDB800
EDB800
7DF000
79E000
70C000
ENDCHAR
STARTCHAR Wdieresis
ENCODING 7812
SWIDTH 1217 0
DWIDTH 29 0
BBX 30 26 3 0
BITMAP
0018C000
003DE000
0039C000
0039C000
00000000
00000000
700E0780
700E0FC0
F00E0FE0
F01E1CE0
F01E1CE0
F01E1CE0
E01E1CE0
E03E1DC0
E03E0FC0
E03E07F8
E03E03FC
E07E03F8
E06E0700
E0EE0700
F0EE0E00
F1CE1E00
738F3C00
7F87F800
3F07F000
1E03C000
ENDCHAR
STARTCHAR wdieresis
ENCODING 7813
SWIDTH 700 0
DWIDTH 17 0
BBX 19 17 1 0
BITMAP
063000
0F7800
0F7800
0E7000
000000
000000
E18600
E38F00
E39E00
E79E00
E78FE0
E79FE0
EDB800
EDB800
7DF000
79E000
70C000
ENDCHAR
STARTCHAR uni1E9E
ENCODING 7838
SWIDTH 843 0
DWIDTH 20 0
BBX 17 21 2 -1
BITMAP
1C3E00
3CFF80
3DFF80
3B8380
3B0380
3E0380
7E0780
7C1F00
7CFC00
78F800
78FE00
780F00
700780
F00780
F00780
F00780
F00F00
F01F00
E07E00
E1FC00
01E000
ENDCHAR
STARTCHAR uni1EA0
ENCODING 7840
SWIDTH 786 0
DWIDTH 19 0
BBX 21 25 1 -5
BITMAP
003FC0
01FFE0
03FFE0
0F8000
1F0700
1E0780
3C0700
380700
780F00
700F00
700E00
F00E00
F01E00
F01E00
F03E00
703E18
787E38
7FEFF0
3FCFE0
0F87C0
000000
038000
03C000
03C000
038000
ENDCHAR
STARTCHAR uni1EA1
ENCODING 7841
SWIDTH 470 0
DWIDTH 11 0
BBX 13 16 1 -5
BITMAP
0E00
3F80
7F80
7380
F380
E380
E388
E798
FFF8
FFF0
79C0
0000
3800
7C00
7C00
3800
ENDCHAR
STARTCHAR uni1EA2
ENCODING 7842
SWIDTH 786 0
DWIDTH 19 0
BBX 21 28 1 0
BITMAP
000F00
001F80
000F80
000780
000F80
000F00
000000
000000
003FC0
01FFE0
03FFE0
0F8000
1F0700
1E0780
3C0700
380700
780F00
700F00
700E00
F00E00
F01E00
F01E00
F03E00
703E18
787E38
7FEFF0
3FCFE0
0F87C0
ENDCHAR
STARTCHAR uni1EA3
ENCODING 7843
SWIDTH 470 0
DWIDTH 11 0
BBX 13 20 1 0
BITMAP
0700
0FC0
00C0
00C0
00C0
0780
0700
0000
0000
0E00
3F80
7F80
7380
F380
E380
E388
E798
FFF8
FFF0
79C0
ENDCHAR
STARTCHAR uni1EA4
ENCODING 7844
SWIDTH 786 0
DWIDTH 19 0
BBX 21 36 1 0
BITMAP
000010
000078
0000F8
0001F0
0003C0
000700
000000
000200
000F00
001F00
001F80
003B80
0071C0
007180
000000
000000
003FC0
01FFE0
03FFE0
0F8000
1F0700
1E0780
3C0700
380700
780F00
700F00
700E00
F00E00
F01E00
F01E00
F03E00
703E18
787E38
7FEFF0
3FCFE0
0F87C0
ENDCHAR
STARTCHAR uni1EA5
ENCODING 7845
SWIDTH 470 0
DWIDTH 11 0
BBX 14 21 1 0
BITMAP
000C
003C
0078
07A0
0F80
0FC0
1CC0
38C0
0000
0000
0E00
3F80
7F80
7380
F380
E380
E388
E798
FFF8
FFF0
79C0
ENDCHAR
STARTCHAR uni1EA6
ENCODING 7846
SWIDTH 786 0
DWIDTH 19 0
BBX 21 36 1 0
BITMAP
004000
00E000
00F000
007C00
001E00
000600
000000
000200
000F00
001F00
001F80
003B80
0071C0
007180
000000
000000
003FC0
01FFE0
03FFE0
0F8000
1F0700
1E0780
3C0700
380700
780F00
700F00
700E00
F00E00
F01E00
F01E00
F03E00
703E18
787E38
7FEFF0
3FCFE0
0F87C0
ENDCHAR
STARTCHAR uni1EA7
ENCODING 7847
SWIDTH 470 0
DWIDTH 11 0
BBX 13 21 1 0
BITMAP
6000
F000
7800
1780
0F80
0FC0
1CC0
38C0
0000
0000
0E00
3F80
7F80
7380
F380
E380
E388
E798
FFF8
FFF0
79C0
ENDCHAR
STARTCHAR uni1EA8
ENCODING 7848
SWIDTH 786 0
DWIDTH 19 0
BBX 21 36 1 0
BITMAP
000780
000FC0
0007C0
0003C0
0007C0
000700
000000
000200
000F00
001F00
001F80
003B80
0071C0
007180
000000
000000
003FC0
01FFE0
03FFE0
0F8000
1F0700
1E0780
3C0700
380700
780F00
700F00
700E00
F00E00
F01E00
F01E00
F03E00
703E18
787E38
7FEFF0
3FCFE0
0F87C0
ENDCHAR
STARTCHAR uni1EA9
ENCODING 7849
SWIDTH 470 0
DWIDTH 11 0
BBX 14 21 1 0
BITMAP
0078
007C
000C
03BC
0FB8
0FC0
1CC0
38C0
0000
0000
0E00
3F80
7F80
7380
F380
E380
E388
E798
FFF8
FFF0
79C0
ENDCHAR
STARTCHAR uni1EAA
ENCODING 7850
SWIDTH 786 0
DWIDTH 19 0
BBX 21 35 1 0
BITMAP
000820
001E70
003FF0
0073E0
0021C0
000000
000200
000F00
001F00
001F80
003B80
0071C0
007180
000000
000000
003FC0
01FFE0
03FFE0
0F8000
1F0700
1E0780
3C0700
380700
780F00
700F00
700E00
F00E00
F01E00
F01E00
F03E00
703E18
787E38
7FEFF0
3FCFE0
0F87C0
ENDCHAR
STARTCHAR uni1EAB
ENCODING 7851
SWIDTH 470 0
DWIDTH 11 0
BBX 13 22 1 0
BITMAP
0E30
1F70
1BE0
10C0
0780
0F80
0DC0
1CC0
38C0
0000
0000
0E00
3F80
7F80
7380
F380
E380
E388
E798
FFF8
FFF0
79C0
ENDCHAR
STARTCHAR uni1EAC
ENCODING 7852
SWIDTH 786 0
DWIDTH 19 0
BBX 21 34 1 -5
BITMAP
000200
000F00
001F00
001F80
003B80
0071C0
007180
000000
000000
003FC0
01FFE0
03FFE0
0F8000
1F0700
1E0780
3C0700
380700
780F00
700F00
700E00
F00E00
F01E00
F01E00
F03E00
703E18
787E38
7FEFF0
3FCFE0
0F87C0
000000
038000
03C000
03C000
038000
ENDCHAR
STARTCHAR uni1EAD
ENCODING 7853
SWIDTH 470 0
DWIDTH 11 0
BBX 13 26 1 -5
BITMAP
0100
0380
0780
0FC0
0DC0
1CC0
18C0
38C0
0000
0000
0E00
3F80
7F80
7380
F380
E380
E388
E798
FFF8
FFF0
79C0
0000
3800
7C00
7C00
3800
ENDCHAR
STARTCHAR uni1EAE
ENCODING 7854
SWIDTH 786 0
DWIDTH 19 0
BBX 21 29 1 0
BITMAP
000180
0003C0
000780
002440
0070E0
007FC0
003FC0
001F00
000000
003FC0
01FFE0
03FFE0
0F8000
1F0700
1E0780
3C0700
380700
780F00
700F00
700E00
F00E00
F01E00
F01E00
F03E00
703E18
787E38
7FEFF0
3FCFE0
0F87C0
ENDCHAR
STARTCHAR uni1EAF
ENCODING 7855
SWIDTH 470 0
DWIDTH 11 0
BBX 13 20 1 0
BITMAP
00C0
01E0
03C0
1220
3870
3FE0
1FE0
0F80
0000
0E00
3F80
7F80
7380
F380
E380
E388
E798
FFF8
FFF0
79C0
ENDCHAR
STARTCHAR uni1EB0
ENCODING 7856
SWIDTH 786 0
DWIDTH 19 0
BBX 21 29 1 0
BITMAP
001800
003C00
001E00
000600
0060E0
0079C0
003FC0
001F00
000000
003FC0
01FFE0
03FFE0
0F8000
1F0700
1E0780
3C0700
380700
780F00
700F00
700E00
F00E00
F01E00
F01E00
F03E00
703E18
787E38
7FEFF0
3FCFE0
0F87C0
ENDCHAR
STARTCHAR uni1EB1
ENCODING 7857
SWIDTH 470 0
DWIDTH 11 0
BBX 13 20 1 0
BITMAP
0C00
1E00
0F00
0300
3070
3CE0
1FE0
0F80
0000
0E00
3F80
7F80
7380
F380
E380
E388
E798
FFF8
FFF0
79C0
ENDCHAR
STARTCHAR uni1EB2
ENCODING 7858
SWIDTH 786 0
DWIDTH 19 0
BBX 21 31 1 0
BITMAP
000E00
000F00
000300
000F00
002E40
0070E0
007FC0
003FC0
001F00
000000
000000
003FC0
01FFE0
03FFE0
0F8000
1F0700
1E0780
3C0700
380700
780F00
700F00
700E00
F00E00
F01E00
F01E00
F03E00
703E18
787E38
7FEFF0
3FCFE0
0F87C0
ENDCHAR
STARTCHAR uni1EB3
ENCODING 7859
SWIDTH 470 0
DWIDTH 11 0
BBX 13 22 1 0
BITMAP
0700
0780
0180
0780
1720
3870
3FE0
1FE0
0F80
0000
0000
0E00
3F80
7F80
7380
F380
E380
E388
E798
FFF8
FFF0
79C0
ENDCHAR
STARTCHAR uni1EB4
ENCODING 7860
SWIDTH 786 0
DWIDTH 19 0
BBX 21 31 1 0
BITMAP
001C20
003E60
0037E0
0063C0
0020C0
0060E0
0079C0
003FC0
001F00
000000
000000
003FC0
01FFE0
03FFE0
0F8000
1F0700
1E0780
3C0700
380700
780F00
700F00
700E00
F00E00
F01E00
F01E00
F03E00
703E18
787E38
7FEFF0
3FCFE0
0F87C0
ENDCHAR
STARTCHAR uni1EB5
ENCODING 7861
SWIDTH 470 0
DWIDTH 11 0
BBX 13 22 1 0
BITMAP
0E10
1F30
1BF0
31E0
1060
3070
3CE0
1FE0
0F80
0000
0000
0E00
3F80
7F80
7380
F380
E380
E388
E798
FFF8
FFF0
79C0
ENDCHAR
STARTCHAR uni1EB6
ENCODING 7862
SWIDTH 786 0
DWIDTH 19 0
BBX 21 32 1 -5
BITMAP
002040
0070E0
007FC0
003FC0
001F00
000000
000000
003FC0
01FFE0
03FFE0
0F8000
1F0700
1E0780
3C0700
380700
780F00
700F00
700E00
F00E00
F01E00
F01E00
F03E00
703E18
787E38
7FEFF0
3FCFE0
0F87C0
000000
038000
03C000
03C000
038000
ENDCHAR
STARTCHAR uni1EB7
ENCODING 7863
SWIDTH 470 0
DWIDTH 11 0
BBX 13 24 1 -5
BITMAP
1020
3070
3870
3FE0
1FC0
0F80
0000
0000
0E00
3F80
7F80
7380
F380
E380
E388
E798
FFF8
FFF0
79C0
0000
3800
7C00
7C00
3800
ENDCHAR
STARTCHAR uni1EB8
ENCODING 7864
SWIDTH 686 0
DWIDTH 16 0
BBX 18 25 1 -5
BITMAP
01F800
07FE00
1FFF00
1E0700
3C0700
3C0700
3C0700
3C0600
1FC000
07E000
3FC000
7C0000
F00000
F00000
E00000
F00000
F001C0
7FFFC0
3FFF80
0FFC00
000000
038000
07C000
07C000
038000
ENDCHAR
STARTCHAR uni1EB9
ENCODING 7865
SWIDTH 393 0
DWIDTH 9 0
BBX 12 16 1 -5
BITMAP
1E00
3F00
7F00
E300
E700
EE00
FC30
E0E0
FFE0
7FC0
3F00
0000
1C00
3C00
3C00
1C00
ENDCHAR
STARTCHAR uni1EBA
ENCODING 7866
SWIDTH 686 0
DWIDTH 16 0
BBX 18 28 1 0
BITMAP
007800
00FC00
007C00
003C00
007C00
007000
000000
000000
01F800
07FE00
1FFF00
1E0700
3C0700
3C0700
3C0700
3C0600
1FC000
07E000
3FC000
7C0000
F00000
F00000
E00000
F00000
F001C0
7FFFC0
3FFF80
0FFC00
ENDCHAR
STARTCHAR uni1EBB
ENCODING 7867
SWIDTH 393 0
DWIDTH 9 0
BBX 12 20 1 0
BITMAP
0E00
1F80
0180
0180
0380
0F00
0E00
0000
0000
1E00
3F00
7F00
E300
E700
EE00
FC30
E0E0
FFE0
7FC0
3F00
ENDCHAR
STARTCHAR uni1EBC
ENCODING 7868
SWIDTH 686 0
DWIDTH 16 0
BBX 18 27 1 0
BITMAP
008200
01E700
03FF00
073E00
021C00
000000
000000
01F800
07FE00
1FFF00
1E0700
3C0700
3C0700
3C0700
3C0600
1FC000
07E000
3FC000
7C0000
F00000
F00000
E00000
F00000
F001C0
7FFFC0
3FFF80
0FFC00
ENDCHAR
STARTCHAR uni1EBD
ENCODING 7869
SWIDTH 393 0
DWIDTH 9 0
BBX 12 18 1 0
BITMAP
1040
3CE0
7FE0
67C0
4380
0000
0000
1E00
3F00
7F00
E300
E700
EE00
FC30
E0E0
FFE0
7FC0
3F00
ENDCHAR
STARTCHAR uni1EBE
ENCODING 7870
SWIDTH 686 0
DWIDTH 16 0
BBX 18 30 1 0
BITMAP
0000C0
0003C0
000780
007A00
00F800
00DC00
01CC00
038C00
000000
000000
01F800
07FE00
1FFF00
1E0700
3C0700
3C0700
3C0700
3C0600
1FC000
07E000
3FC000
7C0000
F00000
F00000
E00000
F00000
F001C0
7FFFC0
3FFF80
0FFC00
ENDCHAR
STARTCHAR uni1EBF
ENCODING 7871
SWIDTH 393 0
DWIDTH 9 0
BBX 13 21 1 0
BITMAP
0018
0078
00F0
0F40
1F00
1F80
3980
7180
0000
0000
1E00
3F00
7F00
E300
E700
EE00
FC30
E0E0
FFE0
7FC0
3F00
ENDCHAR
STARTCHAR uni1EC0
ENCODING 7872
SWIDTH 686 0
DWIDTH 16 0
BBX 18 30 1 0
BITMAP
0E0000
0F0000
078000
017800
00F800
00DC00
01CC00
038C00
000000
000000
01F800
07FE00
1FFF00
1E0700
3C0700
3C0700
3C0700
3C0600
1FC000
07E000
3FC000
7C0000
F00000
F00000
E00000
F00000
F001C0
7FFFC0
3FFF80
0FFC00
ENDCHAR
STARTCHAR uni1EC1
ENCODING 7873
SWIDTH 393 0
DWIDTH 9 0
BBX 13 21 0 0
BITMAP
6000
F000
7800
1780
0F80
0FC0
1CC0
38C0
0000
0000
0F00
1F80
3F80
7180
7380
7700
7E18
7070
7FF0
3FE0
1F80
ENDCHAR
STARTCHAR uni1EC2
ENCODING 7874
SWIDTH 686 0
DWIDTH 16 0
BBX 18 30 1 0
BITMAP
000780
0007C0
0000C0
003BC0
00FB80
00FC00
01CC00
038C00
000000
000000
01F800
07FE00
1FFF00
1E0700
3C0700
3C0700
3C0700
3C0600
1FC000
07E000
3FC000
7C0000
F00000
F00000
E00000
F00000
F001C0
7FFFC0
3FFF80
0FFC00
ENDCHAR
STARTCHAR uni1EC3
ENCODING 7875
SWIDTH 393 0
DWIDTH 9 0
BBX 13 21 1 0
BITMAP
00F0
00F8
0018
0778
1F70
1F80
3980
7180
0000
0000
1E00
3F00
7F00
E300
E700
EE00
FC30
E0E0
FFE0
7FC0
3F00
ENDCHAR
STARTCHAR uni1EC4
ENCODING 7876
SWIDTH 686 0
DWIDTH 16 0
BBX 18 31 1 0
BITMAP
00E300
01F700
01BE00
010C00
007800
00F800
00DC00
01CC00
038C00
000000
000000
01F800
07FE00
1FFF00
1E0700
3C0700
3C0700
3C0700
3C0600
1FC000
07E000
3FC000
7C0000
F00000
F00000
E00000
F00000
F001C0
7FFFC0
3FFF80
0FFC00
ENDCHAR
STARTCHAR uni1EC5
ENCODING 7877
SWIDTH 393 0
DWIDTH 9 0
BBX 12 22 1 0
BITMAP
1C60
3EE0
37C0
2180
0F00
1F00
1B80
3980
7180
0000
0000
1E00
3F00
7F00
E300
E700
EE00
FC30
E0E0
FFE0
7FC0
3F00
ENDCHAR
STARTCHAR uni1EC6
ENCODING 7878
SWIDTH 686 0
DWIDTH 16 0
BBX 18 34 1 -5
BITMAP
001000
007800
00F800
00DC00
01DC00
038E00
038C00
000000
000000
01F800
07FE00
1FFF00
1E0700
3C0700
3C0700
3C0700
3C0600
1FC000
07E000
3FC000
7C0000
F00000
F00000
E00000
F00000
F001C0
7FFFC0
3FFF80
0FFC00
000000
038000
07C000
07C000
038000
ENDCHAR
STARTCHAR uni1EC7
ENCODING 7879
SWIDTH 393 0
DWIDTH 9 0
BBX 12 26 1 -5
BITMAP
0200
0700
0F00
1F80
1B80
3980
7180
7180
0000
0000
1E00
3F00
7F00
E300
E700
EE00
FC30
E0E0
FFE0
7FC0
3F00
0000
1C00
3C00
3C00
1C00
ENDCHAR
STARTCHAR uni1EC8
ENCODING 7880
SWIDTH 495 0
DWIDTH 12 0
BBX 13 28 0 0
BITMAP
01E0
03F0
01F0
00F0
01E0
01C0
0000
0000
1FF8
3FF8
0FF0
0380
0380
0380
0780
0780
0700
0700
0700
0700
0F00
0F00
0E00
0E00
0E00
3FC0
FFE0
FFC0
ENDCHAR
STARTCHAR uni1EC9
ENCODING 7881
SWIDTH 246 0
DWIDTH 6 0
BBX 8 20 1 0
BITMAP
78
7C
0E
0E
0C
3C
38
00
00
70
70
70
70
E0
E0
E3
E7
FE
7C
78
ENDCHAR
STARTCHAR uni1ECA
ENCODING 7882
SWIDTH 495 0
DWIDTH 12 0
BBX 13 25 0 -5
BITMAP
1FF8
3FF8
0FF0
0380
0380
0380
0780
0780
0700
0700
0700
0700
0F00
0F00
0E00
0E00
0E00
3FC0
FFE0
FFC0
0000
1C00
1E00
1E00
1C00
ENDCHAR
STARTCHAR uni1ECB
ENCODING 7883
SWIDTH 246 0
DWIDTH 6 0
BBX 9 21 0 -5
BITMAP
1C00
3E00
3C00
1C00
0000
3800
3800
3800
3800
7000
7000
7180
7380
7F00
3E00
3C00
0000
7000
F000
F000
7000
ENDCHAR
STARTCHAR uni1ECC
ENCODING 7884
SWIDTH 816 0
DWIDTH 20 0
BBX 17 25 2 -5
BITMAP
01F000
0FFC00
1FFE00
3C0F00
780780
780780
F00780
F00380
E00380
E00380
E00780
E00780
E00780
E00700
F00F00
F01E00
783C00
7FF800
3FF000
0FC000
000000
070000
0F8000
0F8000
070000
ENDCHAR
STARTCHAR uni1ECD
ENCODING 7885
SWIDTH 451 0
DWIDTH 11 0
BBX 13 16 1 -5
BITMAP
1E00
3F00
7F80
E780
E7F8
E3F8
E3C0
E380
FF00
7F00
3C00
0000
1C00
3C00
3C00
3800
ENDCHAR
STARTCHAR uni1ECE
ENCODING 7886
SWIDTH 816 0
DWIDTH 20 0
BBX 17 28 2 0
BITMAP
00F000
00F800
00F800
007800
007800
007000
000000
000000
01F000
0FFC00
1FFE00
3C0F00
780780
780780
F00780
F00380
E00380
E00380
E00780
E00780
E00780
E00700
F00F00
F01E00
783C00
7FF800
3FF000
0FC000
ENDCHAR
STARTCHAR uni1ECF
ENCODING 7887
SWIDTH 451 0
DWIDTH 11 0
BBX 13 20 1 0
BITMAP
0E00
1F00
0380
0180
0380
0F00
0E00
0000
0000
1E00
3F00
7F80
E780
E7F8
E3F8
E3C0
E380
FF00
7F00
3C00
ENDCHAR
STARTCHAR uni1ED0
ENCODING 7888
SWIDTH 816 0
DWIDTH 20 0
BBX 17 30 2 0
BITMAP
000180
000380
000700
007400
00F800
01F800
039C00
031C00
000000
000000
01F000
0FFC00
1FFE00
3C0F00
780780
780780
F00780
F00380
E00380
E00380
E00780
E00780
E00780
E00700
F00F00
F01E00
783C00
7FF800
3FF000
0FC000
ENDCHAR
STARTCHAR uni1ED1
ENCODING 7889
SWIDTH 451 0
DWIDTH 11 0
BBX 13 21 1 0
BITMAP
0038
0078
00F0
0F40
1F00
3B80
3B80
7180
0000
0000
1E00
3F00
7F80
E780
E7F8
E3F8
E3C0
E380
FF00
7F00
3C00
ENDCHAR
STARTCHAR uni1ED2
ENCODING 7890
SWIDTH 816 0
DWIDTH 20 0
BBX 17 30 2 0
BITMAP
0C0000
0E0000
0F0000
017000
00F800
01F800
039C00
031C00
000000
000000
01F000
0FFC00
1FFE00
3C0F00
780780
780780
F00780
F00380
E00380
E00380
E00780
E00780
E00780
E00700
F00F00
F01E00
783C00
7FF800
3FF000
0FC000
ENDCHAR
STARTCHAR uni1ED3
ENCODING 7891
SWIDTH 451 0
DWIDTH 11 0
BBX 14 21 0 0
BITMAP
C000
F000
7800
1780
0F80
1DC0
1DC0
38C0
0000
0000
0F00
1F80
3FC0
73C0
73FC
71FC
71E0
71C0
7F80
3F80
1E00
ENDCHAR
STARTCHAR uni1ED4
ENCODING 7892
SWIDTH 816 0
DWIDTH 20 0
BBX 17 30 2 0
BITMAP
000780
000780
000180
007780
00FF00
01F800
039C00
031C00
000000
000000
01F000
0FFC00
1FFE00
3C0F00
780780
780780
F00780
F00380
E00380
E00380
E00780
E00780
E00780
E00700
F00F00
F01E00
783C00
7FF800
3FF000
0FC000
ENDCHAR
STARTCHAR uni1ED5
ENCODING 7893
SWIDTH 451 0
DWIDTH 11 0
BBX 13 21 1 0
BITMAP
00F0
00F8
0018
0678
1F70
1B80
3B80
7180
0000
0000
1E00
3F00
7F80
E780
E7F8
E3F8
E3C0
E380
FF00
7F00
3C00
ENDCHAR
STARTCHAR uni1ED6
ENCODING 7894
SWIDTH 816 0
DWIDTH 20 0
BBX 17 31 2 0
BITMAP
00C200
01F600
033C00
021C00
007000
00F800
01F800
039C00
031C00
000000
000000
01F000
0FFC00
1FFE00
3C0F00
780780
780780
F00780
F00380
E00380
E00380
E00780
E00780
E00780
E00700
F00F00
F01E00
783C00
7FF800
3FF000
0FC000
ENDCHAR
STARTCHAR uni1ED7
ENCODING 7895
SWIDTH 451 0
DWIDTH 11 0
BBX 13 22 1 0
BITMAP
1C40
3EE0
37C0
2180
0F00
1F00
3B80
3B80
7180
0000
0000
1E00
3F00
7F80
E780
E7F8
E3F8
E3C0
E380
FF00
7F00
3C00
ENDCHAR
STARTCHAR uni1ED8
ENCODING 7896
SWIDTH 816 0
DWIDTH 20 0
BBX 17 34 2 -5
BITMAP
002000
00F000
00F800
01D800
039C00
039C00
031C00
000000
000000
01F000
0FFC00
1FFE00
3C0F00
780780
780780
F00780
F00380
E00380
E00380
E00780
E00780
E00780
E00700
F00F00
F01E00
783C00
7FF800
3FF000
0FC000
000000
070000
0F8000
0F8000
070000
ENDCHAR
STARTCHAR uni1ED9
ENCODING 7897
SWIDTH 451 0
DWIDTH 11 0
BBX 13 26 1 -5
BITMAP
0200
0F00
0F00
1F80
1B80
3B80
7180
7180
0000
0000
1E00
3F00
7F80
E780
E7F8
E3F8
E3C0
E380
FF00
7F00
3C00
0000
1C00
3C00
3C00
3800
ENDCHAR
STARTCHAR uni1EDA
ENCODING 7898
SWIDTH 816 0
DWIDTH 20 0
BBX 19 28 2 0
BITMAP
000200
000700
000F00
003E00
007840
0060E0
0000E0
0001C0
01FFC0
0FFF80
1FFF00
3C0F00
780780
780780
F00780
F00380
E00380
E00380
E00780
E00780
E00780
E00700
F00F00
F01E00
783C00
7FFC00
3FF000
0FC000
ENDCHAR
STARTCHAR uni1EDB
ENCODING 7899
SWIDTH 451 0
DWIDTH 11 0
BBX 13 20 1 0
BITMAP
0180
0380
0380
0700
0600
0E00
0C60
0060
00E0
1FC0
3FC0
7F80
E780
E7F8
E3F8
E3C0
E380
FF00
7F00
3C00
ENDCHAR
STARTCHAR uni1EDC
ENCODING 7900
SWIDTH 816 0
DWIDTH 20 0
BBX 19 28 2 0
BITMAP
080000
1E0000
1F0000
0F8000
03C040
00C0E0
0000E0
0001C0
01FFC0
0FFF80
1FFF00
3C0F00
780780
780780
F00780
F00380
E00380
E00380
E00780
E00780
E00780
E00700
F00F00
F01E00
783C00
7FFC00
3FF000
0FC000
ENDCHAR
STARTCHAR uni1EDD
ENCODING 7901
SWIDTH 451 0
DWIDTH 11 0
BBX 13 20 1 0
BITMAP
6000
F000
7000
3800
3800
1800
0C60
0060
00E0
1FC0
3FC0
7F80
E780
E7F8
E3F8
E3C0
E380
FF00
7F00
3C00
ENDCHAR
STARTCHAR uni1EDE
ENCODING 7902
SWIDTH 816 0
DWIDTH 20 0
BBX 19 28 2 0
BITMAP
00F000
00F800
00F800
003800
007840
0070E0
0000E0
0001C0
01FFC0
0FFF80
1FFF00
3C0F00
780780
780780
F00780
F00380
E00380
E00380
E00780
E00780
E00780
E00700
F00F00
F01E00
783C00
7FFC00
3FF000
0FC000
ENDCHAR
STARTCHAR uni1EDF
ENCODING 7903
SWIDTH 451 0
DWIDTH 11 0
BBX 13 20 1 0
BITMAP
1E00
1F00
0300
0300
0300
0F00
0E60
0060
00E0
1FC0
3FC0
7F80
E780
E7F8
E3F8
E3C0
E380
FF00
7F00
3C00
ENDCHAR
STARTCHAR uni1EE0
ENCODING 7904
SWIDTH 816 0
DWIDTH 20 0
BBX 19 27 2 0
BITMAP
008200
03C600
07FE00
067E40
041CE0
0000E0
0001C0
01FFC0
0FFF80
1FFF00
3C0F00
780780
780780
F00780
F00380
E00380
E00380
E00780
E00780
E00780
E00700
F00F00
F01E00
783C00
7FFC00
3FF000
0FC000
ENDCHAR
STARTCHAR uni1EE1
ENCODING 7905
SWIDTH 451 0
DWIDTH 11 0
BBX 13 18 1 0
BITMAP
1000
38C0
7D80
6F80
4760
0260
00E0
1FC0
3F80
7F80
E780
E7F8
E3F8
E3C0
E380
FF00
7F00
3C00
ENDCHAR
STARTCHAR uni1EE2
ENCODING 7906
SWIDTH 816 0
DWIDTH 20 0
BBX 19 29 2 -5
BITMAP
000040
0000E0
0000E0
0001C0
01FFC0
0FFF80
1FFF00
3C0F00
780780
780780
F00780
F00380
E00380
E00380
E00780
E00780
E00780
E00700
F00F00
F01E00
783C00
7FFC00
3FF000
0FC000
000000
070000
078000
0F8000
070000
ENDCHAR
STARTCHAR uni1EE3
ENCODING 7907
SWIDTH 451 0
DWIDTH 11 0
BBX 13 19 1 -5
BITMAP
0060
0060
00E0
1FC0
3FC0
7F80
E780
E7F8
E3F8
E3C0
E380
FF00
7F00
3C00
0000
1C00
3C00
3C00
3800
ENDCHAR
STARTCHAR uni1EE4
ENCODING 7908
SWIDTH 890 0
DWIDTH 21 0
BBX 24 25 0 -5
BITMAP
0F0070
3F8070
7F8070
E3C0F0
C380F0
8380F0
0380E0
0780E0
0781E0
0781E0
0701E0
0703E0
0F03C0
0F07C0
0E07C0
0E0DC1
0F1DE7
0FF9FF
07F1FE
03C078
000000
007000
00F000
00F000
00E000
ENDCHAR
STARTCHAR uni1EE5
ENCODING 7909
SWIDTH 462 0
DWIDTH 11 0
BBX 13 16 1 -5
BITMAP
31C0
7180
7380
7380
E380
E780
E708
EF18
FBF8
7BF0
73C0
0000
1C00
3C00
3C00
3800
ENDCHAR
STARTCHAR uni1EE6
ENCODING 7910
SWIDTH 890 0
DWIDTH 21 0
BBX 24 28 0 0
BITMAP
001F00
001F00
001F80
000780
000F00
000E00
000000
000000
0F0070
3F8070
7F8070
E3C0F0
C380F0
8380F0
0380E0
0780E0
0781E0
0781E0
0701E0
0703E0
0F03C0
0F07C0
0E07C0
0E0DC1
0F1DE7
0FF9FF
07F1FE
03C078
ENDCHAR
STARTCHAR uni1EE7
ENCODING 7911
SWIDTH 462 0
DWIDTH 11 0
BBX 13 20 1 0
BITMAP
0F00
0F80
01C0
01C0
0180
0780
0700
0000
0000
31C0
7180
7380
7380
E380
E780
E708
EF18
FBF8
7BF0
73C0
ENDCHAR
STARTCHAR uni1EE8
ENCODING 7912
SWIDTH 890 0
DWIDTH 21 0
BBX 24 28 0 0
BITMAP
000040
0000E0
0001E0
0003C0
000F02
000C07
000007
00000F
0F007E
3F807C
7F8078
E3C0F0
C380F0
8380F0
0380E0
0780E0
0781E0
0781E0
0701E0
0703E0
0F03C0
0F07C0
0E07C0
0E0DC1
0F1DE7
0FF9FF
07F1FE
03C078
ENDCHAR
STARTCHAR uni1EE9
ENCODING 7913
SWIDTH 512 0
DWIDTH 12 0
BBX 14 20 1 0
BITMAP
00C0
01E0
01C0
0380
0380
0700
0630
0038
0030
31F0
71E0
7380
7380
E380
E780
E704
EF0C
FBFC
7BF8
71E0
ENDCHAR
STARTCHAR uni1EEA
ENCODING 7914
SWIDTH 890 0
DWIDTH 21 0
BBX 24 28 0 0
BITMAP
010000
03C000
01E000
01F000
007802
001C07
000007
00000F
0F007E
3F807C
7F8078
E3C0F0
C380F0
8380F0
0380E0
0780E0
0781E0
0781E0
0701E0
0703E0
0F03C0
0F07C0
0E07C0
0E0DC1
0F1DE7
0FF9FF
07F1FE
03C078
ENDCHAR
STARTCHAR uni1EEB
ENCODING 7915
SWIDTH 512 0
DWIDTH 12 0
BBX 14 20 1 0
BITMAP
3000
3800
3800
1C00
0C00
0E00
0630
0038
0030
31F0
71E0
7380
7380
E380
E780
E704
EF0C
FBFC
7BF8
71E0
ENDCHAR
STARTCHAR uni1EEC
ENCODING 7916
SWIDTH 890 0
DWIDTH 21 0
BBX 24 28 0 0
BITMAP
001F00
001F00
001F80
000780
000F02
000E07
000007
00000F
0F007E
3F807C
7F8078
E3C0F0
C380F0
8380F0
0380E0
0780E0
0781E0
0781E0
0701E0
0703E0
0F03C0
0F07C0
0E07C0
0E0DC1
0F1DE7
0FF9FF
07F1FE
03C078
ENDCHAR
STARTCHAR uni1EED
ENCODING 7917
SWIDTH 512 0
DWIDTH 12 0
BBX 14 20 1 0
BITMAP
0F00
0F80
01C0
01C0
0180
0780
0730
0038
0030
31F0
71E0
7380
7380
E380
E780
E704
EF0C
FBFC
7BF8
71E0
ENDCHAR
STARTCHAR uni1EEE
ENCODING 7918
SWIDTH 890 0
DWIDTH 21 0
BBX 24 27 0 0
BITMAP
001040
007CE0
00FFC0
00E7C2
004387
000007
00000F
0F007E
3F807C
7F8078
E3C0F0
C380F0
8380F0
0380E0
0780E0
0781E0
0781E0
0701E0
0703E0
0F03C0
0F07C0
0E07C0
0E0DC1
0F1DE7
0FF9FF
07F1FE
03C078
ENDCHAR
STARTCHAR uni1EEF
ENCODING 7919
SWIDTH 512 0
DWIDTH 12 0
BBX 14 18 1 0
BITMAP
0800
1C60
3EE0
37C0
33F0
00B8
0030
31F0
71E0
7380
7380
E380
E780
E704
EF0C
FBFC
7BF8
71E0
ENDCHAR
STARTCHAR uni1EF0
ENCODING 7920
SWIDTH 890 0
DWIDTH 21 0
BBX 24 29 0 -5
BITMAP
000002
000007
000007
00000F
0F007E
3F807C
7F8078
E3C0F0
C380F0
8380F0
0380E0
0780E0
0781E0
0781E0
0701E0
0703E0
0F03C0
0F07C0
0E07C0
0E0DC1
0F1DE7
0FF9FF
07F1FE
03C078
000000
007000
00F000
00F000
00E000
ENDCHAR
STARTCHAR uni1EF1
ENCODING 7921
SWIDTH 512 0
DWIDTH 12 0
BBX 14 19 1 -5
BITMAP
0030
0038
0030
31F0
71E0
7380
7380
E380
E780
E704
EF0C
FBFC
7BF8
71E0
0000
1C00
3C00
3C00
3800
ENDCHAR
STARTCHAR Ygrave
ENCODING 7922
SWIDTH 851 0
DWIDTH 20 0
BBX 23 36 0 -8
BITMAP
008000
01C000
01E000
00F000
003C00
000C00
000000
000000
0F0070
3F8070
7F8070
E3C0F0
C380F0
8380F0
0380E0
0781E0
0781E0
0781E0
0703E0
0703E0
0707E0
070FC0
07FDC2
07F9FE
01E3FE
000FE0
003FC0
00F380
01C380
038380
038380
038700
038F00
03FE00
01FC00
006000
ENDCHAR
STARTCHAR ygrave
ENCODING 7923
SWIDTH 479 0
DWIDTH 12 0
BBX 14 31 0 -11
BITMAP
1800
1C00
1C00
0E00
0600
0700
0300
0000
0000
18E0
38C0
39C0
39C0
71C0
73C0
73CC
779C
7FB8
3DF0
3BC0
0380
0F80
1F00
3B00
7700
6700
C600
CE00
FC00
FC00
7000
ENDCHAR
STARTCHAR uni1EF4
ENCODING 7924
SWIDTH 851 0
DWIDTH 20 0
BBX 23 28 0 -8
BITMAP
0F0070
3F8070
7F8070
E3C0F0
C380F0
8380F0
0380E0
0781E0
0781E0
0781E0
0703E0
0703E0
0707E0
070FC0
07FDC2
07F9FE
01E3FE
000FE0
003FC0
00F380
01C380
038380
038380
038770
038FF0
03FEF0
01FCF0
006000
ENDCHAR
STARTCHAR uni1EF5
ENCODING 7925
SWIDTH 479 0
DWIDTH 12 0
BBX 14 22 0 -11
BITMAP
18E0
38C0
39C0
39C0
71C0
73C0
73CC
779C
7FB8
3DF0
3BC0
0380
0F80
1F00
3B00
7700
6700
C6E0
CFE0
FDE0
FDE0
7000
ENDCHAR
STARTCHAR uni1EF6
ENCODING 7926
SWIDTH 851 0
DWIDTH 20 0
BBX 23 36 0 -8
BITMAP
000F00
001F80
000F80
000780
000F00
000E00
000000
000000
0F0070
3F8070
7F8070
E3C0F0
C380F0
8380F0
0380E0
0781E0
0781E0
0781E0
0703E0
0703E0
0707E0
070FC0
07FDC2
07F9FE
01E3FE
000FE0
003FC0
00F380
01C380
038380
038380
038700
038F00
03FE00
01FC00
006000
ENDCHAR
STARTCHAR uni1EF7
ENCODING 7927
SWIDTH 479 0
DWIDTH 12 0
BBX 14 31 0 -11
BITMAP
0780
07C0
00E0
00E0
00C0
03C0
0380
0000
0000
18E0
38C0
39C0
39C0
71C0
73C0
73CC
779C
7FB8
3DF0
3BC0
0380
0F80
1F00
3B00
7700
6700
C600
CE00
FC00
FC00
7000
ENDCHAR
STARTCHAR uni1EF8
ENCODING 7928
SWIDTH 851 0
DWIDTH 20 0
BBX 23 35 0 -8
BITMAP
001040
003CE0
007FE0
00E7C0
004380
000000
000000
0F0070
3F8070
7F8070
E3C0F0
C380F0
8380F0
0380E0
0781E0
0781E0
0781E0
0703E0
0703E0
0707E0
070FC0
07FDC2
07F9FE
01E3FE
000FE0
003FC0
00F380
01C380
038380
038380
038700
038F00
03FE00
01FC00
006000
ENDCHAR
STARTCHAR uni1EF9
ENCODING 7929
SWIDTH 479 0
DWIDTH 12 0
BBX 14 29 0 -11
BITMAP
0410
1F38
1FF0
39F0
10E0
0000
0000
18E0
38C0
39C0
39C0
71C0
73C0
73CC
779C
7FB8
3DF0
3BC0
0380
0F80
1F00
3B00
7700
6700
C600
CE00
FC00
FC00
7000
ENDCHAR
STARTCHAR endash
ENCODING 8211
SWIDTH 484 0
DWIDTH 12 0
BBX 10 3 1 6
BITMAP
7F80
FFC0
7F80
ENDCHAR
STARTCHAR emdash
ENCODING 8212
SWIDTH 620 0
DWIDTH 15 0
BBX 13 3 1 6
BITMAP
7FF0
FFF8
7FF8
ENDCHAR
STARTCHAR quoteleft
ENCODING 8216
SWIDTH 237 0
DWIDTH 6 0
BBX 5 8 2 14
BITMAP
18
38
38
70
70
70
F0
60
ENDCHAR
STARTCHAR quoteright
ENCODING 8217
SWIDTH 236 0
DWIDTH 6 0
BBX 4 8 3 14
BITMAP
70
F0
F0
F0
E0
E0
C0
C0
ENDCHAR
STARTCHAR quotesinglbase
ENCODING 8218
SWIDTH 257 0
DWIDTH 6 0
BBX 5 8 0 -4
BITMAP
30
78
78
70
70
70
E0
C0
ENDCHAR
STARTCHAR quotedblleft
ENCODING 8220
SWIDTH 457 0
DWIDTH 11 0
BBX 10 8 2 14
BITMAP
18C0
39C0
39C0
73C0
73C0
73C0
F380
6380
ENDCHAR
STARTCHAR quotedblright
ENCODING 8221
SWIDTH 456 0
DWIDTH 11 0
BBX 9 8 3 14
BITMAP
7380
F380
F380
F380
E780
E700
C700
C600
ENDCHAR
STARTCHAR quotedblbase
ENCODING 8222
SWIDTH 477 0
DWIDTH 11 0
BBX 10 8 0 -4
BITMAP
31C0
7BC0
7BC0
73C0
7380
7380
E300
C300
ENDCHAR
STARTCHAR dagger
ENCODING 8224
SWIDTH 588 0
DWIDTH 14 0
BBX 11 16 3 6
BITMAP
0600
0600
0600
0E00
FFE0
FFE0
7FC0
0C00
0C00
0C00
1C00
1C00
1C00
1C00
1C00
1800
ENDCHAR
STARTCHAR daggerdbl
ENCODING 8225
SWIDTH 588 0
DWIDTH 14 0
BBX 12 16 2 6
BITMAP
0300
0300
0300
0700
7FF0
7FF0
3FE0
0600
0600
0600
7FE0
FFE0
7FC0
0E00
0E00
0C00
ENDCHAR
STARTCHAR bullet
ENCODING 8226
SWIDTH 512 0
DWIDTH 12 0
BBX 8 7 2 2
BITMAP
3E
7F
7F
FF
7F
7E
3C
ENDCHAR
STARTCHAR ellipsis
ENCODING 8230
SWIDTH 777 0
DWIDTH 19 0
BBX 17 4 1 0
BITMAP
F1C700
F3CF80
F3CF80
E3C700
ENDCHAR
STARTCHAR perthousand
ENCODING 8240
SWIDTH 1277 0
DWIDTH 31 0
BBX 29 18 1 0
BITMAP
1C030000
7E070000
770F0000
E71E0000
E7FC0000
E7FC0000
E7380000
7E380000
3C700000
00E3C1F0
00E7E3F8
01CE7338
03CE7718
038E7718
070E7738
070E7738
0E07E3F0
0603C1E0
ENDCHAR
STARTCHAR guilsinglleft
ENCODING 8249
SWIDTH 350 0
DWIDTH 8 0
BBX 6 9 1 1
BITMAP
0C
3C
78
F0
E0
F0
78
3C
0C
ENDCHAR
STARTCHAR guilsinglright
ENCODING 8250
SWIDTH 350 0
DWIDTH 8 0
BBX 7 9 1 1
BITMAP
60
F0
78
3C
0E
1E
7C
F0
E0
ENDCHAR
STARTCHAR fraction
ENCODING 8260
SWIDTH 200 0
DWIDTH 5 0
BBX 10 15 -2 2
BITMAP
00C0
01C0
03C0
0380
0700
0700
0E00
1C00
1C00
3800
3800
7000
E000
E000
C000
ENDCHAR
STARTCHAR uni2074
ENCODING 8308
SWIDTH 450 0
DWIDTH 11 0
BBX 9 12 2 8
BITMAP
1C00
1C00
3900
3300
7700
6700
E700
FF80
FF80
0600
0600
0600
ENDCHAR
STARTCHAR colonmonetary
ENCODING 8353
SWIDTH 517 0
DWIDTH 12 0
BBX 14 18 0 -2
BITMAP
0028
006C
03D8
0FF0
1FF0
3930
3B70
7270
76C0
7480
7D80
7910
3B30
3FF0
3FE0
2F80
6C00
D800
ENDCHAR
STARTCHAR franc
ENCODING 8355
SWIDTH 750 0
DWIDTH 18 0
BBX 17 14 1 0
BITMAP
7FFC00
7FFC00
3FE000
700600
700F00
7F9F00
7FFE00
7FB780
71E780
E1E700
E1C000
E1C000
E1C000
E18000
ENDCHAR
STARTCHAR lira
ENCODING 8356
SWIDTH 525 0
DWIDTH 13 0
BBX 13 14 0 0
BITMAP
03E0
0FF0
1FF0
1C38
1C10
7F80
7F80
3800
7F80
7F80
3800
7FF0
FFF0
7FF0
ENDCHAR
STARTCHAR uni20A6
ENCODING 8358
SWIDTH 672 0
DWIDTH 16 0
BBX 15 14 1 0
BITMAP
181C
3C1C
3C1C
3E1C
3E1C
3F38
FFFE
FFFE
71F8
FFFE
FFFC
70F0
7070
6030
ENDCHAR
STARTCHAR peseta
ENCODING 8359
SWIDTH 1085 0
DWIDTH 26 0
BBX 25 15 1 0
BITMAP
0C020000
7F060000
FF8E0000
73CE0000
71FFC600
71FFCE00
71CC0C00
71DC1C00
739C1E00
FF1C3F00
FE1C3700
E01C6380
E01FEF00
E00FDF00
E0071E00
ENDCHAR
STARTCHAR uni20A9
ENCODING 8361
SWIDTH 775 0
DWIDTH 19 0
BBX 18 14 1 0
BITMAP
30C180
30C380
FFFFC0
FFFFC0
31C700
FFFFC0
FFFFC0
33EE00
3BEE00
3FEC00
3EFC00
3EF800
3C7800
1C7000
ENDCHAR
STARTCHAR dong
ENCODING 8363
SWIDTH 463 0
DWIDTH 11 0
BBX 13 21 0 -3
BITMAP
0070
0070
00F0
3FF8
3FF8
00E0
00E0
07E0
1FC0
3FC0
39C0
71C0
71C0
73C0
73C0
7FC0
7FC0
3980
0000
FFE0
FFE0
ENDCHAR
STARTCHAR Euro
ENCODING 8364
SWIDTH 552 0
DWIDTH 13 0
BBX 13 14 0 0
BITMAP
03E0
07F0
0FF8
1C38
1C38
7FB8
7F80
3800
7F80
FF00
3C18
1FF0
0FF0
07C0
ENDCHAR
STARTCHAR uni20AD
ENCODING 8365
SWIDTH 590 0
DWIDTH 14 0
BBX 15 14 0 0
BITMAP
0C1C
1C1C
1C38
1C70
1CF0
19C0
7FFC
FFF8
3BC0
39C0
39E0
38FC
707E
303C
ENDCHAR
STARTCHAR uni20AE
ENCODING 8366
SWIDTH 513 0
DWIDTH 12 0
BBX 11 14 2 0
BITMAP
FFC0
FFE0
FFC0
0C00
1F00
1F00
FC00
DB00
1F00
7800
7800
3800
3800
3000
ENDCHAR
STARTCHAR uni20B1
ENCODING 8369
SWIDTH 557 0
DWIDTH 13 0
BBX 14 14 0 0
BITMAP
1F80
3FE0
1CE0
7FFC
7FF8
7FF8
FFF8
39E0
3FC0
3F00
3800
3800
3800
3000
ENDCHAR
STARTCHAR uni20B2
ENCODING 8370
SWIDTH 599 0
DWIDTH 14 0
BBX 13 20 1 -3
BITMAP
0300
0300
0300
07C0
1FE0
3FF0
7270
7270
6660
E600
E660
E6F8
E6F8
7678
7FF0
3FF0
1FB0
0C30
0C30
0C00
ENDCHAR
STARTCHAR uni20B4
ENCODING 8372
SWIDTH 570 0
DWIDTH 14 0
BBX 12 14 1 0
BITMAP
1F80
3FC0
7FE0
70E0
00E0
7FF0
7FF0
FFF0
FFF0
7000
7060
7FE0
3FC0
1F80
ENDCHAR
STARTCHAR uni20B5
ENCODING 8373
SWIDTH 517 0
DWIDTH 12 0
BBX 11 20 1 -3
BITMAP
0300
0300
0300
0780
1FC0
3FE0
7A60
72E0
66E0
E600
E600
E600
E600
7660
7DE0
3FC0
1F00
0C00
0C00
0C00
ENDCHAR
STARTCHAR uni20B8
ENCODING 8376
SWIDTH 522 0
DWIDTH 13 0
BBX 12 14 1 0
BITMAP
7FE0
7FF0
7FE0
0000
7FE0
FFE0
7FC0
0E00
0C00
0C00
0C00
1C00
1C00
1C00
ENDCHAR
STARTCHAR uni20B9
ENCODING 8377
SWIDTH 511 0
DWIDTH 12 0
BBX 12 14 1 0
BITMAP
FFF0
FFF0
FFF0
FFE0
0700
0700
1E00
F800
F800
1C00
0E00
0F00
07E0
03C0
ENDCHAR
STARTCHAR uni20BA
ENCODING 8378
SWIDTH 452 0
DWIDTH 11 0
BBX 11 14 0 0
BITMAP
1C00
1C00
1D80
1F80
1E00
3980
7F00
7C00
7800
F820
78E0
3BC0
3F80
3E00
ENDCHAR
STARTCHAR uni20BC
ENCODING 8380
SWIDTH 673 0
DWIDTH 16 0
BBX 15 17 0 0
BITMAP
0060
0060
0040
00E0
03F8
0FF8
0FFC
1EDC
3CCE
388E
398E
798E
718E
718E
718E
F18E
E18C
ENDCHAR
STARTCHAR uni20BD
ENCODING 8381
SWIDTH 505 0
DWIDTH 12 0
BBX 12 14 0 0
BITMAP
0F80
3FE0
3FE0
1C70
1C70
1C70
1CE0
39E0
7FC0
7F00
7F80
FF00
3800
3000
ENDCHAR
STARTCHAR uni2116
ENCODING 8470
SWIDTH 1198 0
DWIDTH 29 0
BBX 26 20 2 0
BITMAP
187C0780
38FE1FC0
39FF1FC0
3B8F38C0
3F0738C0
3E0F38C0
7C0F39C0
7C0F1FC0
7C0E1F80
780E0400
780E3F80
781E7F80
701E7F80
F01E0000
F01C0000
F01C0000
F01C0000
E01C0000
E03C0000
E01C0000
ENDCHAR
STARTCHAR trademark
ENCODING 8482
SWIDTH 1150 0
DWIDTH 28 0
BBX 24 10 2 10
BITMAP
7F9BCF
FFBFDF
1C34D3
1C38E3
1838E3
1830C3
1830C7
1830C7
3871C7
3871C6
ENDCHAR
STARTCHAR partialdiff
ENCODING 8706
SWIDTH 451 0
DWIDTH 11 0
BBX 10 19 1 0
BITMAP
7000
7C00
1E00
0F00
0700
0380
0380
01C0
3FC0
7FC0
73C0
E1C0
E1C0
E180
E380
E380
F700
7F00
3C00
ENDCHAR
STARTCHAR product
ENCODING 8719
SWIDTH 700 0
DWIDTH 17 0
BBX 15 20 1 0
BITMAP
0FFE
1FFE
1FFE
1C0E
1C0E
380E
380E
380E
381C
381C
381C
381C
701C
701C
701C
7038
7038
7038
7038
E038
ENDCHAR
STARTCHAR summation
ENCODING 8721
SWIDTH 700 0
DWIDTH 17 0
BBX 16 20 1 0
BITMAP
1FFE
3FFF
1FFE
0E00
0700
0780
03C0
01E0
00F0
0078
0070
00E0
03C0
0780
0F00
1E00
3C00
7FF8
FFF8
7FF8
ENDCHAR
STARTCHAR minus
ENCODING 8722
SWIDTH 700 0
DWIDTH 17 0
BBX 13 3 2 6
BITMAP
7FF8
FFF8
FFF8
ENDCHAR
STARTCHAR uni2215
ENCODING 8725
SWIDTH 700 0
DWIDTH 17 0
BBX 13 23 3 0
BITMAP
0010
0038
0078
0070
00F0
00E0
01E0
01C0
0380
0380
0700
0700
0E00
0E00
1C00
3C00
3800
7800
7000
F000
E000
E000
C000
ENDCHAR
STARTCHAR uni2219
ENCODING 8729
SWIDTH 700 0
DWIDTH 17 0
BBX 5 4 6 4
BITMAP
70
F8
F8
70
ENDCHAR
STARTCHAR radical
ENCODING 8730
SWIDTH 700 0
DWIDTH 17 0
BBX 17 21 1 0
BITMAP
000100
000380
000380
000700
000700
000E00
000E00
001C00
001C00
001800
F83800
FC3000
1C7000
0C6000
0CE000
0EE000
07C000
07C000
078000
078000
030000
ENDCHAR
STARTCHAR infinity
ENCODING 8734
SWIDTH 700 0
DWIDTH 17 0
BBX 15 10 1 2
BITMAP
1C38
7EFC
FFFE
E7CE
E386
E38E
E3CE
FFFE
7EFC
3C78
ENDCHAR
STARTCHAR integral
ENCODING 8747
SWIDTH 700 0
DWIDTH 17 0
BBX 15 30 1 -7
BITMAP
0008
007E
00FE
00E0
01E0
01C0
01C0
01C0
01C0
01C0
01C0
03C0
03C0
0380
0380
0380
0380
0380
0380
0380
0780
0700
0700
0700
0700
0700
0F00
7E00
FE00
7800
ENDCHAR
STARTCHAR approxequal
ENCODING 8776
SWIDTH 700 0
DWIDTH 17 0
BBX 15 12 1 1
BITMAP
1E0E
3F8E
3FFC
71FC
7078
0020
0808
3E1C
7F9C
77F8
E1F8
4070
ENDCHAR
STARTCHAR notequal
ENCODING 8800
SWIDTH 700 0
DWIDTH 17 0
BBX 13 14 2 0
BITMAP
00C0
00E0
01C0
7FF8
FFF8
7FF8
0700
0700
FFF8
FFF8
FFF0
1C00
3800
1000
ENDCHAR
STARTCHAR lessequal
ENCODING 8804
SWIDTH 700 0
DWIDTH 17 0
BBX 14 14 2 0
BITMAP
001C
01FC
0FF8
7FC0
FC00
FC00
7F80
0FF0
01F8
0030
0000
7FF0
FFF8
FFF0
ENDCHAR
STARTCHAR greaterequal
ENCODING 8805
SWIDTH 700 0
DWIDTH 17 0
BBX 13 14 2 0
BITMAP
7000
7E00
7FC0
07F8
00F8
00F8
0FF8
7F80
FC00
E000
0000
7FF0
FFF8
FFF0
ENDCHAR
STARTCHAR lozenge
ENCODING 9674
SWIDTH 700 0
DWIDTH 17 0
BBX 12 23 3 0
BITMAP
0380
0380
0780
07C0
0FC0
1CC0
1CE0
38E0
3860
7060
7070
E070
E070
60E0
70C0
71C0
3180
3B80
3F00
1F00
1E00
1E00
0C00
ENDCHAR
STARTCHAR fi
ENCODING 64257
SWIDTH 633 0
DWIDTH 15 0
BBX 17 29 1 -7
BITMAP
01C000
03C000
07E000
0EE000
0EE000
1CC000
1CDC00
1CDE00
399E00
3B1C00
3E0000
FFF800
FFF800
7FF800
703800
733800
737000
737180
737380
737F80
733E00
731C00
730000
730000
720000
760000
3E0000
3C0000
1C0000
ENDCHAR
STARTCHAR fl
ENCODING 64258
SWIDTH 688 0
DWIDTH 17 0
BBX 19 30 1 -8
BITMAP
038380
07C7C0
0FCFC0
0CDCC0
1CDCC0
1CD8C0
39F9C0
39B980
39B980
733180
777300
767300
7C7600
787E00
707C00
F7F800
EFF000
EFF060
EC70E0
EC3FC0
EC3F80
EC1E00
E40000
E40000
E40000
640000
7C0000
7C0000
380000
100000
ENDCHAR
STARTCHAR .notdef
ENCODING -1
SWIDTH 265 0
DWIDTH 6 0
BBX 1 1 0 0
BITMAP
00
ENDCHAR
STARTCHAR Iacute_J.loclNLD
ENCODING -1
SWIDTH 776 0
DWIDTH 19 0
BBX 21 28 2 0
BITMAP
004010
01E038
03C0F8
07C1F0
0F03C0
1C0300
000000
000000
380600
380F00
380F00
380F00
780F00
780E00
780E00
701E00
701E00
703E00
78FE00
7FEE00
3FDE00
1F1C00
001C00
003C00
E07800
FFF000
7FE000
1F8000
ENDCHAR
STARTCHAR A.ss01
ENCODING -1
SWIDTH 780 0
DWIDTH 19 0
BBX 19 20 1 0
BITMAP
003FC0
01FFE0
07FFC0
0F8000
1F0380
1E0780
3C0700
380700
780F00
700F00
700F00
F00E00
F01E00
F01E00
F01E00
703E00
787E00
7FFE00
3FDE00
0F9C00
ENDCHAR
STARTCHAR Aacute.ss01
ENCODING -1
SWIDTH 780 0
DWIDTH 19 0
BBX 20 28 1 0
BITMAP
000020
0000F0
0001F0
0003E0
000780
000E00
000000
000000
003FC0
01FFE0
07FFC0
0F8000
1F0380
1E0780
3C0700
380700
780F00
700F00
700F00
F00E00
F01E00
F01E00
F01E00
703E00
787E00
7FFE00
3FDE00
0F9C00
ENDCHAR
STARTCHAR Abreve.ss01
ENCODING -1
SWIDTH 780 0
DWIDTH 19 0
BBX 19 27 1 0
BITMAP
002040
0070E0
007FC0
003FC0
001F00
000000
000000
003FC0
01FFE0
07FFC0
0F8000
1F0380
1E0780
3C0700
380700
780F00
700F00
700F00
F00E00
F01E00
F01E00
F01E00
703E00
787E00
7FFE00
3FDE00
0F9C00
ENDCHAR
STARTCHAR uni1EAE.ss01
ENCODING -1
SWIDTH 780 0
DWIDTH 19 0
BBX 19 29 1 0
BITMAP
000180
0003C0
000780
002440
0070E0
007FC0
003FC0
001F00
000000
003FC0
01FFE0
07FFC0
0F8000
1F0380
1E0780
3C0700
380700
780F00
700F00
700F00
F00E00
F01E00
F01E00
F01E00
703E00
787E00
7FFE00
3FDE00
0F9C00
ENDCHAR
STARTCHAR uni1EB6.ss01
ENCODING -1
SWIDTH 780 0
DWIDTH 19 0
BBX 19 32 1 -5
BITMAP
002040
0070E0
007FC0
003FC0
001F00
000000
000000
003FC0
01FFE0
07FFC0
0F8000
1F0380
1E0780
3C0700
380700
780F00
700F00
700F00
F00E00
F01E00
F01E00
F01E00
703E00
787E00
7FFE00
3FDE00
0F9C00
000000
038000
03C000
03C000
038000
ENDCHAR
STARTCHAR uni1EB0.ss01
ENCODING -1
SWIDTH 780 0
DWIDTH 19 0
BBX 19 29 1 0
BITMAP
001800
003C00
001E00
000600
0060E0
0079C0
003FC0
001F00
000000
003FC0
01FFE0
07FFC0
0F8000
1F0380
1E0780
3C0700
380700
780F00
700F00
700F00
F00E00
F01E00
F01E00
F01E00
703E00
787E00
7FFE00
3FDE00
0F9C00
ENDCHAR
STARTCHAR uni1EB2.ss01
ENCODING -1
SWIDTH 780 0
DWIDTH 19 0
BBX 19 31 1 0
BITMAP
000E00
000F00
000300
000F00
002E40
0070E0
007FC0
003FC0
001F00
000000
000000
003FC0
01FFE0
07FFC0
0F8000
1F0380
1E0780
3C0700
380700
780F00
700F00
700F00
F00E00
F01E00
F01E00
F01E00
703E00
787E00
7FFE00
3FDE00
0F9C00
ENDCHAR
STARTCHAR uni1EB4.ss01
ENCODING -1
SWIDTH 780 0
DWIDTH 19 0
BBX 19 31 1 0
BITMAP
001C20
003E60
0037E0
0063C0
0020C0
0060E0
0079C0
003FC0
001F00
000000
000000
003FC0
01FFE0
07FFC0
0F8000
1F0380
1E0780
3C0700
380700
780F00
700F00
700F00
F00E00
F01E00
F01E00
F01E00
703E00
787E00
7FFE00
3FDE00
0F9C00
ENDCHAR
STARTCHAR Acircumflex.ss01
ENCODING -1
SWIDTH 780 0
DWIDTH 19 0
BBX 19 29 1 0
BITMAP
000200
000F00
001F00
001F80
003B80
0071C0
007180
000000
000000
003FC0
01FFE0
07FFC0
0F8000
1F0380
1E0780
3C0700
380700
780F00
700F00
700F00
F00E00
F01E00
F01E00
F01E00
703E00
787E00
7FFE00
3FDE00
0F9C00
ENDCHAR
STARTCHAR uni1EA4.ss01
ENCODING -1
SWIDTH 780 0
DWIDTH 19 0
BBX 21 30 1 0
BITMAP
000018
000078
0000F0
000F40
001F00
001F80
003980
007180
000000
000000
003FC0
01FFE0
07FFC0
0F8000
1F0380
1E0780
3C0700
380700
780F00
700F00
700F00
F00E00
F01E00
F01E00
F01E00
703E00
787E00
7FFE00
3FDE00
0F9C00
ENDCHAR
STARTCHAR uni1EAC.ss01
ENCODING -1
SWIDTH 780 0
DWIDTH 19 0
BBX 19 34 1 -5
BITMAP
000200
000F00
001F00
001F80
003B80
0071C0
007180
000000
000000
003FC0
01FFE0
07FFC0
0F8000
1F0380
1E0780
3C0700
380700
780F00
700F00
700F00
F00E00
F01E00
F01E00
F01E00
703E00
787E00
7FFE00
3FDE00
0F9C00
000000
038000
03C000
03C000
038000
ENDCHAR
STARTCHAR uni1EA6.ss01
ENCODING -1
SWIDTH 780 0
DWIDTH 19 0
BBX 19 30 1 0
BITMAP
01C000
01E000
00F000
002F00
001F00
001F80
003980
007180
000000
000000
003FC0
01FFE0
07FFC0
0F8000
1F0380
1E0780
3C0700
380700
780F00
700F00
700F00
F00E00
F01E00
F01E00
F01E00
703E00
787E00
7FFE00
3FDE00
0F9C00
ENDCHAR
STARTCHAR uni1EA8.ss01
ENCODING -1
SWIDTH 780 0
DWIDTH 19 0
BBX 21 30 1 0
BITMAP
0000F0
0000F8
000018
000778
001F70
001F80
003980
007180
000000
000000
003FC0
01FFE0
07FFC0
0F8000
1F0380
1E0780
3C0700
380700
780F00
700F00
700F00
F00E00
F01E00
F01E00
F01E00
703E00
787E00
7FFE00
3FDE00
0F9C00
ENDCHAR
STARTCHAR uni1EAA.ss01
ENCODING -1
SWIDTH 780 0
DWIDTH 19 0
BBX 19 31 1 0
BITMAP
001C60
003EE0
0037C0
002180
000F00
001F00
001B80
003980
007180
000000
000000
003FC0
01FFE0
07FFC0
0F8000
1F0380
1E0780
3C0700
380700
780F00
700F00
700F00
F00E00
F01E00
F01E00
F01E00
703E00
787E00
7FFE00
3FDE00
0F9C00
ENDCHAR
STARTCHAR uni0200.ss01
ENCODING -1
SWIDTH 780 0
DWIDTH 19 0
BBX 19 28 1 0
BITMAP
004200
00E700
006700
007700
003380
003100
000000
000000
003FC0
01FFE0
07FFC0
0F8000
1F0380
1E0780
3C0700
380700
780F00
700F00
700F00
F00E00
F01E00
F01E00
F01E00
703E00
787E00
7FFE00
3FDE00
0F9C00
ENDCHAR
STARTCHAR Adieresis.ss01
ENCODING -1
SWIDTH 780 0
DWIDTH 19 0
BBX 19 26 1 0
BITMAP
0039C0
007BC0
007BC0
003180
000000
000000
003FC0
01FFE0
07FFC0
0F8000
1F0380
1E0780
3C0700
380700
780F00
700F00
700F00
F00E00
F01E00
F01E00
F01E00
703E00
787E00
7FFE00
3FDE00
0F9C00
ENDCHAR
STARTCHAR uni1EA0.ss01
ENCODING -1
SWIDTH 780 0
DWIDTH 19 0
BBX 19 25 1 -5
BITMAP
003FC0
01FFE0
07FFC0
0F8000
1F0380
1E0780
3C0700
380700
780F00
700F00
700F00
F00E00
F01E00
F01E00
F01E00
703E00
787E00
7FFE00
3FDE00
0F9C00
000000
038000
03C000
03C000
038000
ENDCHAR
STARTCHAR Agrave.ss01
ENCODING -1
SWIDTH 780 0
DWIDTH 19 0
BBX 19 28 1 0
BITMAP
008000
01C000
01E000
00F800
003C00
000C00
000000
000000
003FC0
01FFE0
07FFC0
0F8000
1F0380
1E0780
3C0700
380700
780F00
700F00
700F00
F00E00
F01E00
F01E00
F01E00
703E00
787E00
7FFE00
3FDE00
0F9C00
ENDCHAR
STARTCHAR uni1EA2.ss01
ENCODING -1
SWIDTH 780 0
DWIDTH 19 0
BBX 19 28 1 0
BITMAP
000F00
001F80
000F80
000780
000F80
000F00
000000
000000
003FC0
01FFE0
07FFC0
0F8000
1F0380
1E0780
3C0700
380700
780F00
700F00
700F00
F00E00
F01E00
F01E00
F01E00
703E00
787E00
7FFE00
3FDE00
0F9C00
ENDCHAR
STARTCHAR uni0202.ss01
ENCODING -1
SWIDTH 780 0
DWIDTH 19 0
BBX 19 27 1 0
BITMAP
000600
003F80
007FC0
0070E0
0060E0
000000
000000
003FC0
01FFE0
07FFC0
0F8000
1F0380
1E0780
3C0700
380700
780F00
700F00
700F00
F00E00
F01E00
F01E00
F01E00
703E00
787E00
7FFE00
3FDE00
0F9C00
ENDCHAR
STARTCHAR Amacron.ss01
ENCODING -1
SWIDTH 780 0
DWIDTH 19 0
BBX 19 25 1 0
BITMAP
003F00
003F80
003F80
000000
000000
003FC0
01FFE0
07FFC0
0F8000
1F0380
1E0780
3C0700
380700
780F00
700F00
700F00
F00E00
F01E00
F01E00
F01E00
703E00
787E00
7FFE00
3FDE00
0F9C00
ENDCHAR
STARTCHAR Aogonek.ss01
ENCODING -1
SWIDTH 780 0
DWIDTH 19 0
BBX 19 26 1 -6
BITMAP
003FC0
01FFE0
07FFC0
0F8000
1F0380
1E0780
3C0700
380700
780F00
700F00
700F00
F00E00
F01E00
F01E00
F01E00
703E00
787E00
7FFE00
3FDE00
0F9C00
003800
007000
007000
007F00
003F00
001E00
ENDCHAR
STARTCHAR Aring.ss01
ENCODING -1
SWIDTH 780 0
DWIDTH 19 0
BBX 19 29 1 0
BITMAP
000F00
001F80
001F80
001980
001F80
001F00
000E00
000000
000000
003FC0
01FFE0
07FFC0
0F8000
1F0380
1E0780
3C0700
380700
780F00
700F00
700F00
F00E00
F01E00
F01E00
F01E00
703E00
787E00
7FFE00
3FDE00
0F9C00
ENDCHAR
STARTCHAR Aringacute.ss01
ENCODING -1
SWIDTH 780 0
DWIDTH 19 0
BBX 22 31 1 0
BITMAP
000004
00001C
00043C
000F70
001F80
001980
001980
001F80
001F00
000400
000000
003FC0
01FFE0
07FFC0
0F8000
1F0380
1E0780
3C0700
380700
780F00
700F00
700F00
F00E00
F01E00
F01E00
F01E00
703E00
787E00
7FFE00
3FDE00
0F9C00
ENDCHAR
STARTCHAR Atilde.ss01
ENCODING -1
SWIDTH 780 0
DWIDTH 19 0
BBX 19 27 1 0
BITMAP
001040
003CE0
007FE0
00E7C0
004380
000000
000000
003FC0
01FFE0
07FFC0
0F8000
1F0380
1E0780
3C0700
380700
780F00
700F00
700F00
F00E00
F01E00
F01E00
F01E00
703E00
787E00
7FFE00
3FDE00
0F9C00
ENDCHAR
STARTCHAR AE.ss01
ENCODING -1
SWIDTH 1057 0
DWIDTH 25 0
BBX 25 20 1 0
BITMAP
0078FF80
01F9FF80
07FBFE00
0F838000
1F038000
1E078000
3C078000
78070000
78070000
700FFE00
700FFE00
F00FFC00
F01E0000
F01E0000
F03E0000
703F0000
787F0000
7FE7FF00
3FC3FF00
0F80FE00
ENDCHAR
STARTCHAR AEacute.ss01
ENCODING -1
SWIDTH 1057 0
DWIDTH 25 0
BBX 25 28 1 0
BITMAP
00000800
00001C00
00003C00
00007800
0001E000
00018000
00000000
00000000
0078FF80
01F9FF80
07FBFE00
0F838000
1F038000
1E078000
3C078000
78070000
78070000
700FFE00
700FFE00
F00FFC00
F01E0000
F01E0000
F03E0000
703F0000
787F0000
7FE7FF00
3FC3FF00
0F80FE00
ENDCHAR
STARTCHAR B.ss01
ENCODING -1
SWIDTH 826 0
DWIDTH 20 0
BBX 17 20 2 0
BITMAP
07F800
3FFE00
3FFF80
000780
000380
3C0380
3C0380
380780
381F00
79FE00
79F800
70FE00
700E00
700F00
F00F00
F00F00
F01E00
FFFC00
FFF800
7FC000
ENDCHAR
STARTCHAR C.ss01
ENCODING -1
SWIDTH 704 0
DWIDTH 17 0
BBX 15 20 2 0
BITMAP
01F0
07FC
1FFC
3C1E
380E
780E
F01E
F00C
E000
E000
E000
E000
E000
E000
F000
F006
781E
7FFC
3FF8
0FE0
ENDCHAR
STARTCHAR Cacute.ss01
ENCODING -1
SWIDTH 704 0
DWIDTH 17 0
BBX 16 28 2 0
BITMAP
0002
0007
001F
003E
0078
0060
0000
0000
01F0
07FC
1FFC
3C1E
380E
780E
F01E
F00C
E000
E000
E000
E000
E000
E000
F000
F006
781E
7FFC
3FF8
0FE0
ENDCHAR
STARTCHAR Ccaron.ss01
ENCODING -1
SWIDTH 704 0
DWIDTH 17 0
BBX 15 28 2 0
BITMAP
038C
039C
019C
01F8
00F0
0060
0000
0000
01F0
07FC
1FFC
3C1E
380E
780E
F01E
F00C
E000
E000
E000
E000
E000
E000
F000
F006
781E
7FFC
3FF8
0FE0
ENDCHAR
STARTCHAR Ccedilla.ss01
ENCODING -1
SWIDTH 704 0
DWIDTH 17 0
BBX 15 26 2 -6
BITMAP
01F0
07FC
1FFC
3C1E
380E
780E
F01E
F00C
E000
E000
E000
E000
E000
E000
F002
F00E
7C3E
7FFC
3FF8
0FE0
0F80
01C0
01C0
0FC0
1F80
1F00
ENDCHAR
STARTCHAR Ccircumflex.ss01
ENCODING -1
SWIDTH 704 0
DWIDTH 17 0
BBX 15 29 2 0
BITMAP
0020
00F0
00F8
01D8
039C
039C
031C
0000
0000
01F0
07FC
1FFC
3C1E
380E
780E
F01E
F00C
E000
E000
E000
E000
E000
E000
F000
F006
781E
7FFC
3FF8
0FE0
ENDCHAR
STARTCHAR Cdotaccent.ss01
ENCODING -1
SWIDTH 704 0
DWIDTH 17 0
BBX 15 26 2 0
BITMAP
0070
00F0
00F0
00E0
0000
0000
01F0
07FC
1FFC
3C1E
380E
780E
F01E
F00C
E000
E000
E000
E000
E000
E000
F000
F006
781E
7FFC
3FF8
0FE0
ENDCHAR
STARTCHAR D.ss01
ENCODING -1
SWIDTH 810 0
DWIDTH 19 0
BBX 17 20 2 0
BITMAP
0FE000
3FFC00
3FFE00
201F00
000F00
1C0780
3C0780
380780
380780
780780
780780
700780
700700
700F00
F00F00
F01E00
F07C00
FFF800
FFF000
7F8000
ENDCHAR
STARTCHAR uni01C4.ss01
ENCODING -1
SWIDTH 1455 0
DWIDTH 35 0
BBX 33 28 2 0
BITMAP
000000C300
000000E700
000000EE00
0000006C00
0000007C00
0000003800
0000000000
0000000000
0FE00FFF80
3FFC1FFF80
3FFE0FFF80
201F000780
000F000F00
1C07801E00
3C07803E00
3807803C00
3807807800
780780F000
780781F000
700783E000
700703C000
700F078000
F00F0F0000
F01E1F0000
F07C3E0000
FFF83FF800
FFF07FFF00
7F807FFF00
ENDCHAR
STARTCHAR Eth.ss01
ENCODING -1
SWIDTH 821 0
DWIDTH 20 0
BBX 19 20 0 0
BITMAP
01FC00
03FF00
07FF80
0707C0
0701C0
0701E0
0F00E0
0E00E0
7FF0E0
FFF0E0
7FE0E0
1C01E0
1C01E0
1C01C0
1C03C0
3C0780
3C0F00
3FFE00
3FFC00
1FE000
ENDCHAR
STARTCHAR Dcaron.ss01
ENCODING -1
SWIDTH 810 0
DWIDTH 19 0
BBX 17 28 2 0
BITMAP
031C00
031C00
03B800
01F000
01E000
00C000
000000
000000
0FE000
3FFC00
3FFE00
201F00
000F00
1C0780
3C0780
380780
380780
780780
780780
700780
700700
700F00
F00F00
F01E00
F07C00
FFF800
FFF000
7F8000
ENDCHAR
STARTCHAR Dcroat.ss01
ENCODING -1
SWIDTH 821 0
DWIDTH 20 0
BBX 19 20 0 0
BITMAP
01FC00
03FF00
07FF80
0707C0
0701C0
0701E0
0F00E0
0E00E0
7FF0E0
FFF0E0
7FE0E0
1C01E0
1C01E0
1C01C0
1C03C0
3C0780
3C0F00
3FFE00
3FFC00
1FE000
ENDCHAR
STARTCHAR E.ss01
ENCODING -1
SWIDTH 720 0
DWIDTH 17 0
BBX 16 20 1 0
BITMAP
03F8
0FFE
1FFF
3C07
3C07
3807
3807
3C06
1FC0
07C0
1FC0
7C00
7000
F000
F000
F003
F80F
7FFE
3FFC
0FE0
ENDCHAR
STARTCHAR Eacute.ss01
ENCODING -1
SWIDTH 720 0
DWIDTH 17 0
BBX 16 28 1 0
BITMAP
0002
0007
000F
001E
0038
0060
0000
0000
03F8
0FFE
1FFF
3C07
3C07
3807
3807
3C06
1FC0
07C0
1FC0
7C00
7000
F000
F000
F003
F80F
7FFE
3FFC
0FE0
ENDCHAR
STARTCHAR Ebreve.ss01
ENCODING -1
SWIDTH 720 0
DWIDTH 17 0
BBX 16 27 1 0
BITMAP
0202
0307
03FE
03FC
00F8
0000
0000
03F8
0FFE
1FFF
3C07
3C07
3807
3807
3C06
1FC0
07C0
1FC0
7C00
7000
F000
F000
F003
F80F
7FFE
3FFC
0FE0
ENDCHAR
STARTCHAR Ecaron.ss01
ENCODING -1
SWIDTH 720 0
DWIDTH 17 0
BBX 16 28 1 0
BITMAP
0186
018E
01DC
00D8
00F8
0070
0000
0000
03F8
0FFE
1FFF
3C07
3C07
3807
3807
3C06
1FC0
07C0
1FC0
7C00
7000
F000
F000
F003
F80F
7FFE
3FFC
0FE0
ENDCHAR
STARTCHAR Ecircumflex.ss01
ENCODING -1
SWIDTH 720 0
DWIDTH 17 0
BBX 16 29 1 0
BITMAP
0010
0078
00F8
01DC
01DC
038C
038C
0000
0000
03F8
0FFE
1FFF
3C07
3C07
3807
3807
3C06
1FC0
07C0
1FC0
7C00
7000
F000
F000
F003
F80F
7FFE
3FFC
0FE0
ENDCHAR
STARTCHAR uni1EBE.ss01
ENCODING -1
SWIDTH 720 0
DWIDTH 17 0
BBX 18 30 1 0
BITMAP
000180
0003C0
000780
007400
00F800
01DC00
03DC00
038C00
000000
000000
03F800
0FFE00
1FFF00
3C0700
3C0700
380700
380700
3C0600
1FC000
07C000
1FC000
7C0000
700000
F00000
F00000
F00300
F80F00
7FFE00
3FFC00
0FE000
ENDCHAR
STARTCHAR uni1EC6.ss01
ENCODING -1
SWIDTH 720 0
DWIDTH 17 0
BBX 16 34 1 -5
BITMAP
0010
0078
00F8
01DC
01DC
038C
038C
0000
0000
03F8
0FFE
1FFF
3C07
3C07
3807
3807
3C06
1FC0
07C0
1FC0
7C00
7000
F000
F000
F003
F80F
7FFE
3FFC
0FE0
0000
0380
0780
0780
0700
ENDCHAR
STARTCHAR uni1EC0.ss01
ENCODING -1
SWIDTH 720 0
DWIDTH 17 0
BBX 16 30 1 0
BITMAP
0C00
0E00
0700
0170
00F8
01DC
03DC
038C
0000
0000
03F8
0FFE
1FFF
3C07
3C07
3807
3807
3C06
1FC0
07C0
1FC0
7C00
7000
F000
F000
F003
F80F
7FFE
3FFC
0FE0
ENDCHAR
STARTCHAR uni1EC2.ss01
ENCODING -1
SWIDTH 720 0
DWIDTH 17 0
BBX 18 30 1 0
BITMAP
000780
0007C0
0000C0
0073C0
00FB80
01DC00
01DC00
038C00
000000
000000
03F800
0FFE00
1FFF00
3C0700
3C0700
380700
380700
3C0600
1FC000
07C000
1FC000
7C0000
700000
F00000
F00000
F00300
F80F00
7FFE00
3FFC00
0FE000
ENDCHAR
STARTCHAR uni1EC4.ss01
ENCODING -1
SWIDTH 720 0
DWIDTH 17 0
BBX 16 31 1 0
BITMAP
00E2
01F7
01BE
010C
0070
00F8
01DC
039C
038C
0000
0000
03F8
0FFE
1FFF
3C07
3C07
3807
3807
3C06
1FC0
07C0
1FC0
7C00
7000
F000
F000
F003
F80F
7FFE
3FFC
0FE0
ENDCHAR
STARTCHAR uni0204.ss01
ENCODING -1
SWIDTH 720 0
DWIDTH 17 0
BBX 16 28 1 0
BITMAP
0210
0730
0738
03B8
0198
0198
0000
0000
03F8
0FFE
1FFF
3C07
3C07
3807
3807
3C06
1FC0
07C0
1FC0
7C00
7000
F000
F000
F003
F80F
7FFE
3FFC
0FE0
ENDCHAR
STARTCHAR Edieresis.ss01
ENCODING -1
SWIDTH 720 0
DWIDTH 17 0
BBX 16 26 1 0
BITMAP
018C
03DE
03DE
018C
0000
0000
03F8
0FFE
1FFF
3C07
3C07
3807
3807
3C06
1FC0
07C0
1FC0
7C00
7000
F000
F000
F003
F80F
7FFE
3FFC
0FE0
ENDCHAR
STARTCHAR Edotaccent.ss01
ENCODING -1
SWIDTH 720 0
DWIDTH 17 0
BBX 16 26 1 0
BITMAP
0070
00F8
00F0
0070
0000
0000
03F8
0FFE
1FFF
3C07
3C07
3807
3807
3C06
1FC0
07C0
1FC0
7C00
7000
F000
F000
F003
F80F
7FFE
3FFC
0FE0
ENDCHAR
STARTCHAR uni1EB8.ss01
ENCODING -1
SWIDTH 720 0
DWIDTH 17 0
BBX 16 25 1 -5
BITMAP
03F8
0FFE
1FFF
3C07
3C07
3807
3807
3C06
1FC0
07C0
1FC0
7C00
7000
F000
F000
F003
F80F
7FFE
3FFC
0FE0
0000
0380
0780
0780
0700
ENDCHAR
STARTCHAR Egrave.ss01
ENCODING -1
SWIDTH 720 0
DWIDTH 17 0
BBX 16 28 1 0
BITMAP
0400
0E00
0F00
0780
01C0
0060
0000
0000
03F8
0FFE
1FFF
3C07
3C07
3807
3807
3C06
1FC0
07C0
1FC0
7C00
7000
F000
F000
F003
F80F
7FFE
3FFC
0FE0
ENDCHAR
STARTCHAR uni1EBA.ss01
ENCODING -1
SWIDTH 720 0
DWIDTH 17 0
BBX 16 28 1 0
BITMAP
0078
00FC
007C
003C
0078
0070
0000
0000
03F8
0FFE
1FFF
3C07
3C07
3807
3807
3C06
1FC0
07C0
1FC0
7C00
7000
F000
F000
F003
F80F
7FFE
3FFC
0FE0
ENDCHAR
STARTCHAR uni0206.ss01
ENCODING -1
SWIDTH 720 0
DWIDTH 17 0
BBX 16 27 1 0
BITMAP
0020
01FC
03FE
038F
0306
0000
0000
03F8
0FFE
1FFF
3C07
3C07
3807
3807
3C06
1FC0
07C0
1FC0
7C00
7000
F000
F000
F003
F80F
7FFE
3FFC
0FE0
ENDCHAR
STARTCHAR Emacron.ss01
ENCODING -1
SWIDTH 720 0
DWIDTH 17 0
BBX 16 25 1 0
BITMAP
01F8
03FC
01FC
0000
0000
03F8
0FFE
1FFF
3C07
3C07
3807
3807
3C06
1FC0
07C0
1FC0
7C00
7000
F000
F000
F003
F80F
7FFE
3FFC
0FE0
ENDCHAR
STARTCHAR Eogonek.ss01
ENCODING -1
SWIDTH 720 0
DWIDTH 17 0
BBX 16 26 1 -6
BITMAP
03F8
0FFE
1FFF
3C07
3C07
3807
3807
3C06
1FC0
07C0
1FC0
7C00
7000
F000
F000
F003
F80F
7FFE
3FFC
0FE0
01C0
0180
0380
01F8
01F8
00F0
ENDCHAR
STARTCHAR uni1EBC.ss01
ENCODING -1
SWIDTH 720 0
DWIDTH 17 0
BBX 16 27 1 0
BITMAP
0082
03E7
03FE
073E
021C
0000
0000
03F8
0FFE
1FFF
3C07
3C07
3807
3807
3C06
1FC0
07C0
1FC0
7C00
7000
F000
F000
F003
F80F
7FFE
3FFC
0FE0
ENDCHAR
STARTCHAR F.ss01
ENCODING -1
SWIDTH 671 0
DWIDTH 16 0
BBX 17 20 1 0
BITMAP
7FFF80
7FFF80
1FC800
070000
0F0000
0F0000
0E0000
0E0000
0E0000
7FFC00
FFFC00
7FF000
1C0000
1C0000
1C0000
3C0000
3C0000
3C0000
3C0000
380000
ENDCHAR
STARTCHAR G.ss01
ENCODING -1
SWIDTH 811 0
DWIDTH 19 0
BBX 16 25 2 -5
BITMAP
01F8
07FC
1FFE
3E0E
380F
780E
F00E
F004
E000
E000
E000
E07F
E07F
E01F
F007
F007
7807
3FFF
1FFE
07FE
000E
000E
000E
000E
000C
ENDCHAR
STARTCHAR Gbreve.ss01
ENCODING -1
SWIDTH 811 0
DWIDTH 19 0
BBX 16 32 2 -5
BITMAP
0202
0706
03FE
03FC
00F8
0000
0000
01F8
07FC
1FFE
3E0E
380F
780E
F00E
F004
E000
E000
E000
E07F
E07F
E01F
F007
F007
7807
3FFF
1FFE
07FE
000E
000E
000E
000E
000C
ENDCHAR
STARTCHAR Gcaron.ss01
ENCODING -1
SWIDTH 811 0
DWIDTH 19 0
BBX 16 33 2 -5
BITMAP
0186
018E
01DC
00D8
00F8
0070
0000
0000
01F8
07FC
1FFE
3E0E
380F
780E
F00E
F004
E000
E000
E000
E07F
E07F
E01F
F007
F007
7807
3FFF
1FFE
07FE
000E
000E
000E
000E
000C
ENDCHAR
STARTCHAR Gcircumflex.ss01
ENCODING -1
SWIDTH 811 0
DWIDTH 19 0
BBX 16 34 2 -5
BITMAP
0020
0078
00F8
01DC
01DC
039C
030C
0000
0000
01F8
07FC
1FFE
3E0E
380F
780E
F00E
F004
E000
E000
E000
E07F
E07F
E01F
F007
F007
7807
3FFF
1FFE
07FE
000E
000E
000E
000E
000C
ENDCHAR
STARTCHAR uni0122.ss01
ENCODING -1
SWIDTH 811 0
DWIDTH 19 0
BBX 16 26 2 -6
BITMAP
01F8
07FC
1FFE
3E0E
380F
780E
F00E
F004
E000
E000
E000
E07F
E07F
E01F
F007
F007
7807
3FFF
1FFE
07FE
000E
038E
038E
038E
030C
0300
ENDCHAR
STARTCHAR Gdotaccent.ss01
ENCODING -1
SWIDTH 811 0
DWIDTH 19 0
BBX 16 31 2 -5
BITMAP
0070
00F8
00F0
0070
0000
0000
01F8
07FC
1FFE
3E0E
380F
780E
F00E
F004
E000
E000
E000
E07F
E07F
E01F
F007
F007
7807
3FFF
1FFE
07FE
000E
000E
000E
000E
000C
ENDCHAR
STARTCHAR H.ss01
ENCODING -1
SWIDTH 846 0
DWIDTH 20 0
BBX 19 20 1 0
BITMAP
0E01C0
0E01C0
0E01C0
1E03C0
1E03C0
1E03C0
1E0380
1C0380
1C0380
7FFFE0
FFFFE0
7FFF80
380700
380700
380700
380700
780F00
780F00
780F00
700E00
ENDCHAR
STARTCHAR Hbar.ss01
ENCODING -1
SWIDTH 856 0
DWIDTH 21 0
BBX 20 20 1 0
BITMAP
0E01C0
0E01C0
0E01C0
0E01C0
7FFFF0
7FFFF0
1E03C0
1C0380
3FFFE0
FFFFE0
FFFFE0
3C0780
3C0700
380700
380700
380700
780F00
780F00
780F00
300600
ENDCHAR
STARTCHAR Hcircumflex.ss01
ENCODING -1
SWIDTH 846 0
DWIDTH 20 0
BBX 19 29 1 0
BITMAP
000800
003C00
007C00
006E00
00EE00
01C600
01C600
000000
000000
0E01C0
0E01C0
0E01C0
1E03C0
1E03C0
1E03C0
1E0380
1C0380
1C0380
7FFFE0
FFFFE0
7FFF80
380700
380700
380700
380700
780F00
780F00
780F00
700E00
ENDCHAR
STARTCHAR I.ss01
ENCODING -1
SWIDTH 357 0
DWIDTH 9 0
BBX 6 20 2 0
BITMAP
1C
3C
3C
3C
38
38
38
38
78
78
70
70
70
70
F0
F0
F0
E0
E0
E0
ENDCHAR
STARTCHAR Iacute.ss01
ENCODING -1
SWIDTH 357 0
DWIDTH 9 0
BBX 11 28 2 0
BITMAP
0040
01E0
03E0
07C0
0F00
0C00
0000
0000
1C00
3C00
3C00
3C00
3800
3800
3800
3800
7800
7800
7000
7000
7000
7000
F000
F000
F000
E000
E000
E000
ENDCHAR
STARTCHAR Iacute_J.loclNLD.ss01
ENCODING -1
SWIDTH 776 0
DWIDTH 19 0
BBX 21 28 2 0
BITMAP
004010
01E038
03C0F8
07C1F0
0F03C0
1C0300
000000
000000
380600
380F00
380F00
380F00
780F00
780E00
780E00
701E00
701E00
703E00
78FE00
7FEE00
3FDE00
1F1C00
001C00
003C00
E07800
FFF000
7FE000
1F8000
ENDCHAR
STARTCHAR Ibreve.ss01
ENCODING -1
SWIDTH 357 0
DWIDTH 9 0
BBX 10 27 2 0
BITMAP
4080
E1C0
FF80
7F80
3E00
0000
0000
1C00
3C00
3C00
3C00
3800
3800
3800
3800
7800
7800
7000
7000
7000
7000
F000
F000
F000
E000
E000
E000
ENDCHAR
STARTCHAR Icircumflex.ss01
ENCODING -1
SWIDTH 357 0
DWIDTH 9 0
BBX 9 29 2 0
BITMAP
0400
1E00
3F00
3F00
7300
E380
E300
0000
0000
1C00
3C00
3C00
3C00
3800
3800
3800
3800
7800
7800
7000
7000
7000
7000
F000
F000
F000
E000
E000
E000
ENDCHAR
STARTCHAR uni0208.ss01
ENCODING -1
SWIDTH 357 0
DWIDTH 9 0
BBX 9 28 1 0
BITMAP
4200
E700
7700
7300
3380
3180
0000
0000
0E00
1E00
1E00
1E00
1C00
1C00
1C00
1C00
3C00
3C00
3800
3800
3800
3800
7800
7800
7800
7000
7000
7000
ENDCHAR
STARTCHAR Idieresis.ss01
ENCODING -1
SWIDTH 357 0
DWIDTH 9 0
BBX 9 26 2 0
BITMAP
7380
F780
F780
6300
0000
0000
1C00
3C00
3C00
3C00
3800
3800
3800
3800
7800
7800
7000
7000
7000
7000
F000
F000
F000
E000
E000
E000
ENDCHAR
STARTCHAR Idotaccent.ss01
ENCODING -1
SWIDTH 357 0
DWIDTH 9 0
BBX 7 26 2 0
BITMAP
1C
1E
3E
1C
00
00
1C
3C
3C
3C
38
38
38
38
78
78
70
70
70
70
F0
F0
F0
E0
E0
E0
ENDCHAR
STARTCHAR uni1ECA.ss01
ENCODING -1
SWIDTH 357 0
DWIDTH 9 0
BBX 7 25 1 -5
BITMAP
0E
1E
1E
1E
1C
1C
1C
1C
3C
3C
38
38
38
38
78
78
78
70
70
70
00
70
F0
F0
E0
ENDCHAR
STARTCHAR Igrave.ss01
ENCODING -1
SWIDTH 357 0
DWIDTH 9 0
BBX 8 28 0 0
BITMAP
40
E0
F0
7C
1E
06
00
00
07
0F
0F
0F
0E
0E
0E
0E
1E
1E
1C
1C
1C
1C
3C
3C
3C
38
38
38
ENDCHAR
STARTCHAR uni1EC8.ss01
ENCODING -1
SWIDTH 357 0
DWIDTH 9 0
BBX 8 28 2 0
BITMAP
1E
3F
1F
0F
1F
1E
00
00
1C
3C
3C
3C
38
38
38
38
78
78
70
70
70
70
F0
F0
F0
E0
E0
E0
ENDCHAR
STARTCHAR uni020A.ss01
ENCODING -1
SWIDTH 357 0
DWIDTH 9 0
BBX 10 27 2 0
BITMAP
0C00
7F80
FF80
E1C0
C1C0
0000
0000
1C00
3C00
3C00
3C00
3800
3800
3800
3800
7800
7800
7000
7000
7000
7000
F000
F000
F000
E000
E000
E000
ENDCHAR
STARTCHAR Imacron.ss01
ENCODING -1
SWIDTH 357 0
DWIDTH 9 0
BBX 8 25 2 0
BITMAP
3E
7F
7F
00
00
1C
3C
3C
3C
38
38
38
38
78
78
70
70
70
70
F0
F0
F0
E0
E0
E0
ENDCHAR
STARTCHAR Iogonek.ss01
ENCODING -1
SWIDTH 357 0
DWIDTH 9 0
BBX 7 26 1 -6
BITMAP
0E
1E
1E
1E
1C
1C
1C
1C
3C
3C
38
38
38
38
78
78
78
70
70
70
E0
C0
C0
FC
FC
78
ENDCHAR
STARTCHAR Itilde.ss01
ENCODING -1
SWIDTH 357 0
DWIDTH 9 0
BBX 11 27 1 0
BITMAP
1020
3C60
7FE0
E7C0
4180
0000
0000
0E00
1E00
1E00
1E00
1C00
1C00
1C00
1C00
3C00
3C00
3800
3800
3800
3800
7800
7800
7800
7000
7000
7000
ENDCHAR
STARTCHAR J.ss01
ENCODING -1
SWIDTH 716 0
DWIDTH 17 0
BBX 15 20 2 0
BITMAP
07FC
3FFE
7FFE
F01C
E03C
E03C
E03C
E038
4038
0038
0038
0078
0078
0070
4070
C0F0
E0E0
FFE0
7FC0
1F00
ENDCHAR
STARTCHAR Jcircumflex.ss01
ENCODING -1
SWIDTH 716 0
DWIDTH 17 0
BBX 15 29 2 0
BITMAP
0040
00E0
01F0
03B0
0738
0738
0618
0000
0000
07FC
3FFE
7FFE
F01C
E03C
E03C
E03C
E038
4038
0038
0038
0078
0078
0070
4070
C0F0
E0E0
FFE0
7FC0
1F00
ENDCHAR
STARTCHAR K.ss01
ENCODING -1
SWIDTH 779 0
DWIDTH 19 0
BBX 17 20 2 0
BITMAP
1C0700
1C0700
3C0700
3C0F00
3C0E00
381E00
383C00
383800
38F000
7FE000
FF8000
FF8000
73C000
71E000
70E000
F0F000
F07800
F07F00
E03F80
E01F00
ENDCHAR
STARTCHAR uni0136.ss01
ENCODING -1
SWIDTH 779 0
DWIDTH 19 0
BBX 17 26 2 -6
BITMAP
1C0700
1C0700
3C0700
3C0F00
3C0E00
381E00
383C00
383800
38F000
7FE000
FF8000
FF8000
73C000
71E000
70E000
F0F000
F07800
F07F00
E03F80
E01F00
000000
070000
070000
070000
060000
060000
ENDCHAR
STARTCHAR L.ss01
ENCODING -1
SWIDTH 625 0
DWIDTH 15 0
BBX 13 20 2 0
BITMAP
1800
3C00
3C00
3C00
3800
3800
3800
7800
7800
7800
7000
7000
7000
F000
F000
F000
E000
FFF0
FFF8
FFF0
ENDCHAR
STARTCHAR uni01C7.ss01
ENCODING -1
SWIDTH 1291 0
DWIDTH 31 0
BBX 29 20 2 0
BITMAP
18003FF0
3C00FFF8
3C01FFF8
3C0380F0
380380F0
380380F0
380380E0
780380E0
780100E0
780000E0
700001E0
700001E0
700001C0
F00001C0
F00201C0
F0030380
E0038380
FFF3FF00
FFF9FE00
FFF07C00
ENDCHAR
STARTCHAR Lacute.ss01
ENCODING -1
SWIDTH 625 0
DWIDTH 15 0
BBX 13 28 2 0
BITMAP
0040
01E0
03E0
07C0
0F00
1C00
0000
0000
1800
3C00
3C00
3C00
3800
3800
3800
7800
7800
7800
7000
7000
7000
F000
F000
F000
E000
FFF0
FFF8
FFF0
ENDCHAR
STARTCHAR Lcaron.ss01
ENCODING -1
SWIDTH 625 0
DWIDTH 15 0
BBX 13 21 2 0
BITMAP
0010
1838
3C30
3C30
3C30
3860
3800
3800
7800
7800
7800
7000
7000
7000
F000
F000
F000
E000
FFF0
FFF8
FFF0
ENDCHAR
STARTCHAR uni013B.ss01
ENCODING -1
SWIDTH 625 0
DWIDTH 15 0
BBX 13 26 2 -6
BITMAP
1800
3C00
3C00
3C00
3800
3800
3800
7800
7800
7800
7000
7000
7000
F000
F000
F000
E000
FFF0
FFF8
FFF0
0000
0600
0E00
0E00
0E00
0400
ENDCHAR
STARTCHAR Ldot.ss01
ENCODING -1
SWIDTH 625 0
DWIDTH 15 0
BBX 13 20 2 0
BITMAP
1800
3C00
3C00
3C00
3800
3800
3800
7800
78E0
78F0
70F0
70E0
7000
F000
F000
F000
E000
FFF0
FFF8
FFF0
ENDCHAR
STARTCHAR uni01C8.ss01
ENCODING -1
SWIDTH 854 0
DWIDTH 21 0
BBX 19 31 2 -11
BITMAP
180000
3C0000
3C0000
3C0000
3800E0
3801E0
3801E0
7801C0
780000
7801C0
7001C0
7001C0
7001C0
F001C0
F00380
F00380
E00380
FFF380
FFFB80
FFF380
000700
000F00
001F00
003700
006700
00E600
00CE00
00CC00
00FC00
00F800
007000
ENDCHAR
STARTCHAR Lslash.ss01
ENCODING -1
SWIDTH 625 0
DWIDTH 15 0
BBX 14 20 1 0
BITMAP
0C00
1E00
1E00
1E00
1C60
1DE0
1FE0
3F80
3E00
7C00
F800
F800
3800
7800
7800
7800
7000
7FF8
7FFC
7FF8
ENDCHAR
STARTCHAR M.ss01
ENCODING -1
SWIDTH 1139 0
DWIDTH 27 0
BBX 24 20 2 0
BITMAP
18783E
39FC7F
3BFCFF
3B1DC7
3E0D87
3E1F07
7C1F07
7C1E0F
781E0F
781E0E
781C0E
703C0E
703C1E
F03C1E
F0381E
F0381C
E0381C
E0381C
E0781C
E0301C
ENDCHAR
STARTCHAR N.ss01
ENCODING -1
SWIDTH 799 0
DWIDTH 19 0
BBX 16 20 2 0
BITMAP
187C
38FE
39FF
3B8F
3F07
3E0F
7C0F
7C0F
7C0E
780E
780E
781E
701E
F01E
F01C
F01C
F01C
E01C
E03C
E01C
ENDCHAR
STARTCHAR uni01CA.ss01
ENCODING -1
SWIDTH 1515 0
DWIDTH 36 0
BBX 35 20 2 0
BITMAP
187C00FF80
38FE07FFE0
39FF0FFFC0
3B8F1E0380
3F071C0380
3E0F1C0780
7C0F1C0780
7C0F1E0780
7C0E080700
780E000700
780E000700
781E000700
701E000F00
F01E000F00
F01C080E00
F01C1C0E00
F01C1C1C00
E01C1FFC00
E03C0FF800
E01C03E000
ENDCHAR
STARTCHAR Nacute.ss01
ENCODING -1
SWIDTH 799 0
DWIDTH 19 0
BBX 16 28 2 0
BITMAP
0002
0007
001F
003E
0078
0060
0000
0000
187C
38FE
39FF
3B8F
3F07
3E0F
7C0F
7C0F
7C0E
780E
780E
781E
701E
F01E
F01C
F01C
F01C
E01C
E03C
E01C
ENDCHAR
STARTCHAR Ncaron.ss01
ENCODING -1
SWIDTH 799 0
DWIDTH 19 0
BBX 16 28 2 0
BITMAP
038C
039C
019C
01F8
00F0
00E0
0000
0000
187C
38FE
39FF
3B8F
3F07
3E0F
7C0F
7C0F
7C0E
780E
780E
781E
701E
F01E
F01C
F01C
F01C
E01C
E03C
E01C
ENDCHAR
STARTCHAR uni0145.ss01
ENCODING -1
SWIDTH 799 0
DWIDTH 19 0
BBX 16 26 2 -6
BITMAP
187C
38FE
39FF
3B8F
3F07
3E0F
7C0F
7C0F
7C0E
780E
780E
781E
701E
F01E
F01C
F01C
F01C
E01C
E03C
E01C
0000
0700
0700
0700
0600
0600
ENDCHAR
STARTCHAR Eng.ss01
ENCODING -1
SWIDTH 792 0
DWIDTH 19 0
BBX 16 28 2 -8
BITMAP
1C7C
38FE
39FF
3B8F
3F0F
3E0F
7C0F
7C0E
7C0E
780E
781E
781E
701C
F01C
F03C
F03C
F038
E038
E038
E078
0070
0070
00E0
40E0
E1E0
FFC0
7F80
1F00
ENDCHAR
STARTCHAR uni01CB.ss01
ENCODING -1
SWIDTH 1008 0
DWIDTH 24 0
BBX 23 31 2 -11
BITMAP
187C00
38FE00
39FF00
3B8F00
3F071C
3E0F1E
7C0F1E
7C0F1C
7C0E00
780E1C
780E1C
781E1C
701E38
F01E38
F01C38
F01C38
F01C38
E01C38
E03C38
E01C30
000070
0000F0
0003F0
000770
000660
000CE0
000CE0
001DC0
001FC0
001F80
000F00
ENDCHAR
STARTCHAR Ntilde.ss01
ENCODING -1
SWIDTH 799 0
DWIDTH 19 0
BBX 16 27 2 0
BITMAP
0102
03C6
07FE
067C
041C
0000
0000
187C
38FE
39FF
3B8F
3F07
3E0F
7C0F
7C0F
7C0E
780E
780E
781E
701E
F01E
F01C
F01C
F01C
E01C
E03C
E01C
ENDCHAR
STARTCHAR OE.ss01
ENCODING -1
SWIDTH 1166 0
DWIDTH 28 0
BBX 27 20 2 0
BITMAP
01F87FC0
0FFCFFE0
1FFEFF80
3C0FE000
7807E000
7807C000
F007C000
F003C000
E003C000
E003FF80
E007FF80
E007FE00
E0078000
E0078000
F00F8000
F01F8000
783FC000
7FFBFFC0
3FF1FFC0
0FC07F00
ENDCHAR
STARTCHAR P.ss01
ENCODING -1
SWIDTH 662 0
DWIDTH 16 0
BBX 15 20 1 0
BITMAP
0FE0
3FF8
7FFC
2E1C
0E1E
1E1E
1E1E
1E1E
1C1E
1C3C
1C78
FFF0
FFE0
3C00
3800
3800
3800
7800
7800
3000
ENDCHAR
STARTCHAR Thorn.ss01
ENCODING -1
SWIDTH 658 0
DWIDTH 16 0
BBX 15 20 1 0
BITMAP
0E00
0E00
0E00
0FE0
3FF8
7FFC
5E3C
1C1C
1C1E
1C1C
1C1C
3C3C
3C78
FFF0
FFE0
3C00
3800
7800
7800
3000
ENDCHAR
STARTCHAR Q.ss01
ENCODING -1
SWIDTH 816 0
DWIDTH 20 0
BBX 17 26 2 -6
BITMAP
01F000
0FFC00
1FFE00
3C0F00
780780
780780
F00780
F00380
E00380
E00380
E00780
E00780
E00780
E00700
F00F00
F01E00
783C00
7FF800
1FF000
07C000
01E000
00F000
00F000
007800
003C00
003800
ENDCHAR
STARTCHAR R.ss01
ENCODING -1
SWIDTH 744 0
DWIDTH 18 0
BBX 16 20 2 0
BITMAP
1FC0
7FF0
FFF8
DC78
1C3C
3C3C
3C3C
3838
3878
39F0
FFE0
FF00
7F80
73C0
71E0
71E0
70F0
F0FE
F07F
603E
ENDCHAR
STARTCHAR Racute.ss01
ENCODING -1
SWIDTH 744 0
DWIDTH 18 0
BBX 16 28 2 0
BITMAP
0008
001E
003C
007C
00F0
01C0
0000
0000
1FC0
7FF0
FFF8
DC78
1C3C
3C3C
3C3C
3838
3878
39F0
FFE0
FF00
7F80
73C0
71E0
71E0
70F0
F0FE
F07F
603E
ENDCHAR
STARTCHAR Rcaron.ss01
ENCODING -1
SWIDTH 744 0
DWIDTH 18 0
BBX 16 28 2 0
BITMAP
0618
0738
0770
0360
03E0
01C0
0000
0000
1FC0
7FF0
FFF8
DC78
1C3C
3C3C
3C3C
3838
3878
39F0
FFE0
FF00
7F80
73C0
71E0
71E0
70F0
F0FE
F07F
603E
ENDCHAR
STARTCHAR uni0156.ss01
ENCODING -1
SWIDTH 744 0
DWIDTH 18 0
BBX 16 26 2 -6
BITMAP
1FC0
7FF0
FFF8
DC78
1C3C
3C3C
3C3C
3838
3878
39F0
FFE0
FF00
7F80
73C0
71E0
71E0
70F0
F0FE
F07F
603E
0000
0600
0700
0600
0600
0600
ENDCHAR
STARTCHAR uni0210.ss01
ENCODING -1
SWIDTH 744 0
DWIDTH 18 0
BBX 16 28 2 0
BITMAP
0840
1CC0
1CE0
0EE0
0660
0620
0000
0000
1FC0
7FF0
FFF8
DC78
1C3C
3C3C
3C3C
3838
3878
39F0
FFE0
FF00
7F80
73C0
71E0
71E0
70F0
F0FE
F07F
603E
ENDCHAR
STARTCHAR uni0212.ss01
ENCODING -1
SWIDTH 744 0
DWIDTH 18 0
BBX 16 27 2 0
BITMAP
00C0
07F0
0FF8
0E3C
0C18
0000
0000
1FC0
7FF0
FFF8
DC78
1C3C
3C3C
3C3C
3838
3878
39F0
FFE0
FF00
7F80
73C0
71E0
71E0
70F0
F0FE
F07F
603E
ENDCHAR
STARTCHAR T.ss01
ENCODING -1
SWIDTH 631 0
DWIDTH 15 0
BBX 16 20 2 0
BITMAP
7FFE
FFFF
FFFC
0380
0780
0780
0700
0700
0700
0700
0F00
0F00
0E00
0E00
0E00
0E00
1E00
1E00
1E00
0C00
ENDCHAR
STARTCHAR Tbar.ss01
ENCODING -1
SWIDTH 631 0
DWIDTH 15 0
BBX 16 20 2 0
BITMAP
7FFE
FFFF
FFFC
0380
0780
0780
0700
0700
0700
7FF0
FFF0
7FC0
0E00
0E00
0E00
0E00
1E00
1E00
1E00
0C00
ENDCHAR
STARTCHAR Tcaron.ss01
ENCODING -1
SWIDTH 631 0
DWIDTH 15 0
BBX 16 28 2 0
BITMAP
0638
0638
0770
03E0
03C0
01C0
0000
0000
7FFE
FFFF
FFFC
0380
0780
0780
0700
0700
0700
0700
0F00
0F00
0E00
0E00
0E00
0E00
1E00
1E00
1E00
0C00
ENDCHAR
STARTCHAR uni0162.ss01
ENCODING -1
SWIDTH 631 0
DWIDTH 15 0
BBX 16 26 2 -6
BITMAP
7FFE
FFFF
FFFC
0380
0780
0780
0700
0700
0700
0700
0F00
0F00
0E00
0E00
0E00
0E00
1E00
1E00
1E00
3C00
3E00
0700
0700
7E00
7C00
3000
ENDCHAR
STARTCHAR uni021A.ss01
ENCODING -1
SWIDTH 631 0
DWIDTH 15 0
BBX 16 26 2 -6
BITMAP
7FFE
FFFF
FFFC
0380
0780
0780
0700
0700
0700
0700
0F00
0F00
0E00
0E00
0E00
0E00
1E00
1E00
1E00
0C00
0000
0C00
1C00
1C00
1C00
1800
ENDCHAR
STARTCHAR U.ss01
ENCODING -1
SWIDTH 800 0
DWIDTH 19 0
BBX 16 20 2 0
BITMAP
1C03
3C07
3C07
3C07
3807
380F
380F
380F
780F
781E
701E
701E
703E
F03E
F07E
F0FE
F1DC
FFDC
7F9C
3E1C
ENDCHAR
STARTCHAR Uacute.ss01
ENCODING -1
SWIDTH 800 0
DWIDTH 19 0
BBX 16 28 2 0
BITMAP
0002
0007
001F
003E
0078
0060
0000
0000
1C03
3C07
3C07
3C07
3807
380F
380F
380F
780F
781E
701E
701E
703E
F03E
F07E
F0FE
F1DC
FFDC
7F9C
3E1C
ENDCHAR
STARTCHAR Ubreve.ss01
ENCODING -1
SWIDTH 800 0
DWIDTH 19 0
BBX 16 27 2 0
BITMAP
0202
070E
07FE
03FC
01F8
0000
0000
1C03
3C07
3C07
3C07
3807
380F
380F
380F
780F
781E
701E
701E
703E
F03E
F07E
F0FE
F1DC
FFDC
7F9C
3E1C
ENDCHAR
STARTCHAR Ucircumflex.ss01
ENCODING -1
SWIDTH 800 0
DWIDTH 19 0
BBX 16 29 2 0
BITMAP
0020
00F0
00F8
01D8
039C
039C
031C
0000
0000
1C03
3C07
3C07
3C07
3807
380F
380F
380F
780F
781E
701E
701E
703E
F03E
F07E
F0FE
F1DC
FFDC
7F9C
3E1C
ENDCHAR
STARTCHAR uni0214.ss01
ENCODING -1
SWIDTH 800 0
DWIDTH 19 0
BBX 16 28 2 0
BITMAP
0220
0770
0770
0730
03B8
0118
0000
0000
1C03
3C07
3C07
3C07
3807
380F
380F
380F
780F
781E
701E
701E
703E
F03E
F07E
F0FE
F1DC
FFDC
7F9C
3E1C
ENDCHAR
ENDFONT
